<svg xmlns="http://www.w3.org/2000/svg" xmlns:xlink="http://www.w3.org/1999/xlink" width="92" height="60" viewBox="0 0 92 60">
  <defs>
    <clipPath id="clip-audi">
      <rect width="92" height="60"/>
    </clipPath>
  </defs>
  <g id="audi" clip-path="url(#clip-audi)">
    <g id="audi-14" transform="translate(-8.503 -28.023)">
      <path id="Path_116229" data-name="Path 116229" d="M84.029,42.023a15.927,15.927,0,0,0-9.921,3.447,16,16,0,0,0-19.842,0,16,16,0,0,0-19.842,0,16,16,0,1,0,0,25.107,16,16,0,0,0,19.842,0,16,16,0,0,0,19.842,0,16,16,0,1,0,9.921-28.554ZM31.806,67.963a12.335,12.335,0,1,1,0-19.879,16,16,0,0,0,0,19.879Zm2.618-2.611a12.333,12.333,0,0,1,0-14.658,12.333,12.333,0,0,1,0,14.658Zm17.224,2.611a12.347,12.347,0,0,1-14.606,0,16,16,0,0,0,0-19.878,12.345,12.345,0,0,1,14.606,0,16,16,0,0,0,0,19.878Zm2.617-2.611a12.333,12.333,0,0,1,0-14.658,12.331,12.331,0,0,1,0,14.658ZM71.49,67.963a12.347,12.347,0,0,1-14.606,0,16,16,0,0,0,0-19.878,12.345,12.345,0,0,1,14.606,0,16,16,0,0,0,0,19.878Zm2.618-2.611a12.333,12.333,0,0,1,0-14.658,12.333,12.333,0,0,1,0,14.658Zm9.921,5.006a12.417,12.417,0,0,1-7.3-2.4,16,16,0,0,0,0-19.878,12.334,12.334,0,1,1,7.3,22.273Z" transform="translate(0 0)" fill="#fff" fill-rule="evenodd"/>
    </g>
  </g>
</svg>
