<svg xmlns="http://www.w3.org/2000/svg" xmlns:xlink="http://www.w3.org/1999/xlink" width="72" height="60" viewBox="0 0 72 60">
  <defs>
    <clipPath id="clip-axa">
      <rect width="72" height="60"/>
    </clipPath>
  </defs>
  <g id="axa" clip-path="url(#clip-axa)">
    <g id="axa-2" data-name="axa" transform="translate(0 14)">
      <path id="Path_39" data-name="Path 39" d="M-756.426,1286.3l5.263-7.086s.5,2.27.859,3.708c.332,1.324.912,3.378.912,3.378Zm-17.757,17.706,3.826.014,10.293-13.45h11.994l1.889,5.085-6.783,8.349h6l2.435-3.744a11.417,11.417,0,0,1,.854,1.664,11.58,11.58,0,0,1,.435,2.258h6.5l2.467-3.332a11.514,11.514,0,0,1,.812,1.83c.268.857.428,1.5.428,1.5h7.891l-1.072-1.825-2.956-8.38,2.581-3.432h11.431l3.921,11.651a2.135,2.135,0,0,1,.107,1.074,5.136,5.136,0,0,0-.107.911h8.267a13.136,13.136,0,0,1-.859-1.77c-.551-1.414-8.8-28.781-8.8-28.781l-.107-1.448h-6.765s-.275.765-.486,1.24c-1.612,3.594-10.789,15.031-10.789,15.031l-.913-3.439,10.258-12.778h-6.609l-.055.751-5.685,7.675-2.313-7.354v-1.072h-7.677l4.834,14.227-2.1,2.741-4.828-15.628v-1.34h-6.818a6.246,6.246,0,0,1-.644,1.878c-.883,2.035-16.5,22.107-20.85,27.676v2.217Zm34.642-10.192,2.2-2.745,1.448,4.193-2.4,2.945-1.249-4.393Zm16.108-7.514,5.265-7.086s.5,2.27.857,3.708c.332,1.324.912,3.378.912,3.378Z" transform="translate(774.183 -1272.183)" fill="#fff" fill-rule="evenodd"/>
    </g>
  </g>
</svg>
