<svg xmlns="http://www.w3.org/2000/svg" xmlns:xlink="http://www.w3.org/1999/xlink" width="180" height="60" viewBox="0 0 180 60">
  <defs>
    <clipPath id="clip-path">
      <rect id="Rectangle_7446" data-name="Rectangle 7446" width="180" height="60"/>
    </clipPath>
  </defs>
  <g id="_09" data-name="09" clip-path="url(#clip-path)">
    <rect id="Rectangle_7445" data-name="Rectangle 7445" width="180" height="60" fill="#fff"/>
    <g id="Layer_x0020_1" transform="translate(10 13)">
      <g id="_2271487850848" transform="translate(0 -1)">
        <path id="Path_116237" data-name="Path 116237" d="M3508,1.55V21.657a11.306,11.306,0,0,0,6.624,10.229c6.771,3.195,15.095-1.172,15.945-9.79.528-5.305-4.455-11.753-10.493-11.753-4.924,0-4.015-.938-4.015,4.514,0,1.7,2.813-.147,6.038,1.524,5.217,2.7,3.282,11.05-2.755,11.05a6.08,6.08,0,0,1-5.451-3.605c-.733-1.876-.352-14.919-.352-18.026,0-4.045.352-6.8-3.019-6.8A2.711,2.711,0,0,0,3508,1.521Z" transform="translate(-3405.179 1)" fill-rule="evenodd"/>
        <path id="Path_116238" data-name="Path 116238" d="M0,1.286V22.155a9.89,9.89,0,0,0,3.341,7.474c7.328,7.357,19.052,1.2,19.052-7.24,0-3.547-.7-6.39-3.195-8.881-3.341-3.341-6.39-3.195-10.376-3.195-1.436,0-1,2.052-1,4.279,0,1.378,1.7.967,3.019,1a6.63,6.63,0,0,1,3.224.791c5.51,3.253,2.7,11.021-2.726,11.021a6,6,0,0,1-5.51-3.547C4.6,20.631,5.745,4.8,5.276,1.286A2.554,2.554,0,0,0,2.99-1H2.169A2.3,2.3,0,0,0,0,1.257Z" transform="translate(0 1)" fill-rule="evenodd"/>
        <path id="Path_116239" data-name="Path 116239" d="M866,391.3c0,6.3,5.071,11.578,10.317,11.578,5.217,0,4.279.967,4.279-4.514,0-1.7-2.872.117-6.038-1.495-5.129-2.609-3.4-11.079,2.785-11.079a6.456,6.456,0,0,1,4.338,1.934c3.634,3.928-1.319,15.417,4.191,15.417a2.969,2.969,0,0,0,2.755-3.253c0-7.328,1.2-14.831-6.624-18.524-7.562-3.547-16,2.462-16,9.966Z" transform="translate(-840.617 -369.136)" fill-rule="evenodd"/>
        <path id="Path_116240" data-name="Path 116240" d="M4393.323,402.174c4.66,0,4.279.615,4.279-3.781,0-1.7-.85-1.524-2.52-1.495a8.011,8.011,0,0,1-3.606-.674c-5.48-2.7-3.341-11.138,2.609-11.138a6.108,6.108,0,0,1,5.012,2.755c2.375,3.752-.264,12.017,1.817,13.776,1.7,1.436,4.485.469,4.485-1.7,0-5.921,1.172-12.75-3.458-17.176a11.11,11.11,0,0,0-11.959-2.257,9.9,9.9,0,0,0-3.371,2.14c-7.3,7.24-2.608,19.55,6.741,19.55Z" transform="translate(-4254.568 -368.467)" fill-rule="evenodd"/>
        <path id="Path_116241" data-name="Path 116241" d="M2633,567.791v4.514c0,5.129,5.158,10.317,10.317,10.317h.235a11.206,11.206,0,0,0,5.569-1c3.312-1.524,6.272-5.628,6.272-9.291,0-8.148.967-7.034-4.279-7.034-2.023,0-.381,4.309-1.319,7.738-1.495,5.452-10.024,5.716-11.372-.586-.44-2.022.908-7.152-2.638-7.152a2.671,2.671,0,0,0-2.755,2.521Z" transform="translate(-2555.826 -548.652)" fill-rule="evenodd"/>
        <path id="Path_116242" data-name="Path 116242" d="M1770.069,393.831v-4.514c0-5.129-5.159-10.317-10.317-10.317h-.234a11.206,11.206,0,0,0-5.569,1c-3.312,1.524-6.272,5.628-6.272,9.291,0,8.148-.967,7.034,4.279,7.034,2.022,0,.381-4.309,1.319-7.738,1.495-5.452,10.024-5.716,11.372.586.44,2.022-.909,7.152,2.638,7.152a2.671,2.671,0,0,0,2.755-2.521Z" transform="translate(-1696.383 -367.862)" fill-rule="evenodd"/>
      </g>
    </g>
  </g>
</svg>
