<svg xmlns="http://www.w3.org/2000/svg" xmlns:xlink="http://www.w3.org/1999/xlink" width="180" height="60" viewBox="0 0 180 60">
  <defs>
    <clipPath id="clip-cengage">
      <rect width="180" height="60"/>
    </clipPath>
  </defs>
  <g id="cengage" clip-path="url(#clip-cengage)">
    <g id="Cengage-logo" transform="translate(-0.151 9.705)">
      <g id="Group_68666" data-name="Group 68666" transform="translate(0.151 0.1)">
        <g id="XMLID_29_">
          <path id="XMLID_42_" d="M13.49,12.546l6.2,2.1-.994,4.968L10.1,16.7l2.1-3.682A1,1,0,0,1,13.49,12.546Z" transform="translate(-4.285 -5.24)" fill="#fff" fill-rule="evenodd"/>
          <path id="XMLID_41_" d="M.589,36.235,6.025,31.5l4.208,3.682-7.54,6.547L.355,37.7A1.03,1.03,0,0,1,.589,36.235Z" transform="translate(-0.151 -13.146)" fill="#fff" fill-rule="evenodd"/>
          <path id="XMLID_40_" d="M16.378,60.461,14.8,52.687,20.645,50.7l2.163,10.813H17.664A1.214,1.214,0,0,1,16.378,60.461Z" transform="translate(-6.238 -21.124)" fill="#fff" fill-rule="evenodd"/>
          <path id="XMLID_39_" d="M45.8,60.169l-8.3-2.806L38.844,50.7,50.3,54.616,47.5,59.526A1.284,1.284,0,0,1,45.8,60.169Z" transform="translate(-15.669 -21.124)" fill="#fff" fill-rule="evenodd"/>
          <path id="XMLID_38_" d="M60.159,30.065l-7.248,6.313L47.3,31.468l10-8.768,3.1,5.378A1.351,1.351,0,0,1,60.159,30.065Z" transform="translate(-19.741 -9.49)" fill="#fff" fill-rule="evenodd"/>
          <path id="XMLID_37_" d="M43.492,1.5l2.046,10.346-7.774,2.63L34.9.1h6.839A1.593,1.593,0,0,1,43.492,1.5Z" transform="translate(-14.589 -0.1)" fill="#fff" fill-rule="evenodd"/>
        </g>
        <g id="Group_68665" data-name="Group 68665" transform="translate(50.589 10.287)">
          <path id="Path_115226" data-name="Path 115226" d="M102.657,37.223a12.376,12.376,0,0,1-5.962,1.52c-6.313,0-10-4.325-10-10.346,0-5.962,4.15-10.7,10.4-10.7a11.2,11.2,0,0,1,5.144,1.111v2.572A10.557,10.557,0,0,0,97.163,20.1c-4.735,0-7.54,3.624-7.54,8.183,0,4.735,2.806,8.066,7.365,8.066A10.052,10.052,0,0,0,101.9,35Z" transform="translate(-86.7 -17.7)" fill="#fff"/>
          <path id="Path_115227" data-name="Path 115227" d="M122,18.1h10.346l-.818,2.28h-6.78v6.6h6.663v2.28h-6.663v7.073h7.716v2.28H122Z" transform="translate(-101.367 -17.866)" fill="#fff"/>
          <path id="Path_115228" data-name="Path 115228" d="M147.7,18.1h2.689l9.294,12.041c1.228,1.578,2.1,2.806,2.747,3.8h.058c-.058-1.111-.058-2.1-.058-3.566V18.1h2.747V38.616h-2.455l-9.586-12.509c-1.169-1.52-1.987-2.689-2.689-3.682h-.058c.058.935.117,1.987.117,3.449v12.8h-2.747V18.1Z" transform="translate(-112.045 -17.866)" fill="#fff"/>
          <path id="Path_115229" data-name="Path 115229" d="M194.086,30.133l-.818-2.28H201.8v9.352a16.293,16.293,0,0,1-6.956,1.578c-6.313,0-10.346-4.267-10.346-10.229,0-6.254,4.325-10.755,10.813-10.755a15.4,15.4,0,0,1,5.67,1.111v2.513a12.168,12.168,0,0,0-5.553-1.286c-5.144,0-8.066,3.332-8.066,8.125,0,4.968,2.981,8.125,7.657,8.125a8.951,8.951,0,0,0,3.916-.76V30.075h-4.851Z" transform="translate(-127.335 -17.742)" fill="#fff"/>
          <path id="Path_115230" data-name="Path 115230" d="M227.191,18h1.987l7.949,20.575h-2.981L232.1,33.2h-7.949l-1.987,5.378H219.3Zm4.092,12.859-1.929-5.378c-.585-1.754-.877-2.689-1.169-3.449h-.058c-.234.76-.585,1.7-1.169,3.449L225.028,30.8h6.254Z" transform="translate(-141.794 -17.825)" fill="#fff"/>
          <path id="Path_115231" data-name="Path 115231" d="M261.686,30.133l-.818-2.28H269.4v9.352a16.294,16.294,0,0,1-6.956,1.578c-6.313,0-10.346-4.267-10.346-10.229,0-6.254,4.325-10.755,10.813-10.755a15.4,15.4,0,0,1,5.67,1.111v2.513a12.168,12.168,0,0,0-5.553-1.286c-5.144,0-8.066,3.332-8.066,8.125,0,4.968,2.981,8.125,7.657,8.125a8.951,8.951,0,0,0,3.916-.76V30.075h-4.852Z" transform="translate(-155.422 -17.742)" fill="#fff"/>
          <path id="Path_115232" data-name="Path 115232" d="M290.2,18.1h10.346l-.818,2.28h-6.78v6.6h6.663v2.28h-6.663v7.073h7.716v2.28H290.2V18.1Z" transform="translate(-171.252 -17.866)" fill="#fff"/>
        </g>
      </g>
    </g>
  </g>
</svg>
