<svg xmlns="http://www.w3.org/2000/svg" xmlns:xlink="http://www.w3.org/1999/xlink" width="140" height="60" viewBox="0 0 140 60">
  <defs>
    <clipPath id="clip-disney">
      <rect width="140" height="60"/>
    </clipPath>
  </defs>
  <g id="disney" clip-path="url(#clip-disney)">
    <g id="disney-2" data-name="disney" transform="translate(0 0)">
      <path id="Path_111137" data-name="Path 111137" d="M73.262,64a4.246,4.246,0,0,1,2.582,1.033,3.529,3.529,0,0,1,.774,3.719c-1.806,3.718-6.1,6.2-9.038,7.023A10.2,10.2,0,0,1,62,75.569c-.775.465-1.429,1.966-2.376,1.342-1.37-1.07-.184-2.745-.975-3.933-.163-.245-.574-.263-.78-.663-1.085-2.376.258-4.648,1.755-6.455,2.5-2.785,9.658-5.888,13.634-1.859Zm-8.315,1.859a6.854,6.854,0,0,0-3.821,1.859c-.852.994-1.394,1.963-.878,3,1.808-1.342,2.686-3.2,4.7-4.338C64.947,66.169,65.257,66.014,64.947,65.859Zm8.419.517c-3.564-.311-6.25,2.376-8.78,4.957-.155.413-1.084.878-.361,1.342a11.719,11.719,0,0,0,9.142-2.944,2.287,2.287,0,0,0,.878-2.479A1.826,1.826,0,0,0,73.366,66.376Zm30.882,15.39c1.653,4.029,3.047,10.38,0,14.254-.826.929-2.272,1.786-3.2,1.084-3.409-2.736-4.854-6.662-6.972-10.174-.31-.155-.31.259-.465.414-.774,3.563.671,8.212-1.755,11A1.859,1.859,0,0,1,89.738,97.1c-1.188-3.667.05-7.489.36-11.155.724-1.859,1.033-4.028,2.635-5.423,2.582,1.033,3.821,3.925,5.318,6.043a52.875,52.875,0,0,0,3.2,4.854c1.084-.465.551-1.882.517-2.737a67.326,67.326,0,0,0-2.222-9.657c-.05-.826-.515-2.221.361-2.737C102.236,77.325,103.215,79.752,104.249,81.766Zm-15.6-1.24a2.145,2.145,0,0,1-1.137,1.859c-4.957.774-10.483.31-15.131,1.859-.155.568.516.671.878.826,3.976.62,8.16.774,12.034,1.756,2.048.52,2.79,2.944,2.944,4.958a5.275,5.275,0,0,1-2.066,4.6c-3.821,2.427-9.657,2.323-13.531.1-1.481-.831-2.892-2.169-3-3.821a3.088,3.088,0,0,1,1.5-2.84c3.719-1.5,8.315-.67,11.518,1.239.205,1.033-.913.977-1.448,1.343-3.564,2.066-6.249-2.323-9.554-.724-.465.31-.8,1.174-.258,1.446,4.08,1.808,8.625.516,12.653-.62.465-.155,1.033-.62,1.084-1.084-.155-1.653-2.014-2.014-3.2-2.478-3.512-.878-7.385-.878-11.155-1.239a2.725,2.725,0,0,1-1.859-1.239,4.2,4.2,0,0,1,.516-3.976c4.8-4.235,12.084-3.873,18.178-2.737.414.152.878.307,1.034.771ZM66.084,82.489a126.066,126.066,0,0,1,.62,14.77c-.1.67-.878.826-1.394,1.084a2.59,2.59,0,0,1-2.221-.465c-1.188-1.912-.774-4.493-.878-6.817.155-3.666.1-7.643,1.137-11.052.2-.5.774-.929,1.239-.62C65.826,80.01,66.032,81.25,66.084,82.489Zm57.378-.723c.248.418.508,1.063,0,1.342-2.324,1.033-5.474.568-8.16.878a2.707,2.707,0,0,0-1.034,2.582c.26.155.491.391.776.361,1.651.1,4.131-.774,5.217.774.265.461-.036,2.182-.774,2.221-2.015.26-5.328-.253-6.3.26-1.239.826-1.137,2.427-1.6,3.719.878.568,1.8-.013,2.84-.156,1.913-.31,4.03-.878,5.94-.465.361.671.878,1.395.516,2.221-3.256,2.582-7.455,5.229-11.929,3.357-1.679-.753-2.427-3.305-1.859-5.473.361-1.55,1.961-3.047.981-4.7a1.229,1.229,0,0,1,.878-1.5c1.7,0,1.342-2.118,2.22-3.1-.981-1.084-3.459-1.033-3.2-3.2,1.188-.62,2.635-.413,3.976-.62a31.277,31.277,0,0,1,9.556-.62C122.119,79.774,122.946,80.992,123.462,81.766ZM49.712,69.991c4.766,3.9,10.949,10.536,10.174,18.179-.93,6.043-7.334,10.587-12.757,12.034a36.091,36.091,0,0,1-17.25.155c-.361.982-.723,2.169-1.859,2.582a2.424,2.424,0,0,1-2.221-.361c-1.6-1.5-.31-4.39-2.634-5.319-4.545-1.911-9.452-5.682-11.775-10.329a2.775,2.775,0,0,1,.62-2.582c3.564-2.84,8.057-3.976,12.55-4.855.258.1.155-.258.361-.361.258-3.1.361-6.25,1.342-9.038a.806.806,0,0,1,1.137-.258c2.84,2.169,1.5,6.25,2.737,9.193,5.423.258,10.846.516,15.132,3.564a4.7,4.7,0,0,1,1.342,4.752,3.95,3.95,0,0,1-3.357,2.323c-.93,0-2.686.091-2.582-.619s3.159-1.872,2.221-2.841c-1.349-1.393-8.1-2.221-12.283-2.737-.516-.1-.99.052-.99.62-.1,3.925-.413,8.263.258,12.034a.925.925,0,0,0,.62.619c7.385,1.188,15.183.516,20.968-3.718a8.857,8.857,0,0,0,3.1-8.573C52.242,75.1,42.482,69.474,34.477,65.859a56.492,56.492,0,0,0-25.667-4.7c-1.472.108-3.8.616-3.821,1.137s2.642.357,2.323,1.342-3.021.4-3.821.155-.723-1.395-.516-2.118c2.014-3.563,7.635-3.851,10.174-3.976A57.314,57.314,0,0,1,49.712,69.991ZM24.406,83.832a32.077,32.077,0,0,0-10.639,1.652c-.671.258-1.5.981-.982,1.859a17.1,17.1,0,0,0,5.061,4.338A19.468,19.468,0,0,0,24.2,94.368a59.94,59.94,0,0,0,.465-10.123C24.457,84.142,24.664,83.936,24.406,83.832Zm106.75-4.7c-.155,4.493-4.339,7.282-4.339,11.775.155.155.26.361.465.26,3.358-3.667,6.663-8.884,11.569-10.433a3.514,3.514,0,0,1,2.944,1.859,11.283,11.283,0,0,1-1.083,11.31C138.259,96.946,134,100,129.144,99.481a66.238,66.238,0,0,0-4.185,15.6c-.413,1.084-1.393.1-2.013-.1-4.183-3.305-.748-12.055-.465-13.171s1.4-3.74,2.222-5.939c-1.963-3.511-.724-7.747.877-11a21.936,21.936,0,0,1,4.959-5.991.7.7,0,0,1,.617.259Zm8.316,5.578c-.62-.1-.878.724-1.394.879-2.375,2.686-4.752,5.371-5.94,8.573,1.6.207,2.944-.826,4.339-1.394a7.554,7.554,0,0,0,3.718-6.817c-.1-.466-.517-.828-.724-1.241Z" transform="translate(-2.835 -57.683)" fill="#fff"/>
    </g>
  </g>
</svg>
