<svg xmlns="http://www.w3.org/2000/svg" xmlns:xlink="http://www.w3.org/1999/xlink" width="36" height="36" viewBox="0 0 36 36">
    <defs>
        <linearGradient id="dy9b4d7epa" x1=".714" x2="-.271" y1=".647" y2="-.03" gradientUnits="objectBoundingBox">
            <stop offset="0" stop-color="#ad1457" stop-opacity="0"/>
            <stop offset="1" stop-color="#ad1457"/>
        </linearGradient>
        <linearGradient id="m6nc8p4zdb" x1=".5" x2=".5" y1=".177" y2=".855" xlink:href="#dy9b4d7epa"/>
    </defs>
    <path fill="#ec407a" d="M29.561 35.384a108.736 108.736 0 0 1-23.122 0 6.555 6.555 0 0 1-5.823-5.823 108.733 108.733 0 0 1 0-23.122A6.555 6.555 0 0 1 6.439.616a108.733 108.733 0 0 1 23.122 0 6.555 6.555 0 0 1 5.823 5.823 108.733 108.733 0 0 1 0 23.122 6.555 6.555 0 0 1-5.823 5.823zm0 0"/>
    <path fill="url(#dy9b4d7epa)" d="M60.232 34.548a5.817 5.817 0 0 0-5.167-5.167 96.524 96.524 0 0 0-20.518 0 5.817 5.817 0 0 0-5.167 5.167 96.522 96.522 0 0 0 0 20.517 5.817 5.817 0 0 0 5.167 5.167 96.486 96.486 0 0 0 20.517 0 5.816 5.816 0 0 0 5.167-5.167 96.486 96.486 0 0 0 .001-20.517zm0 0" transform="translate(-26.807 -26.807)"/>
    <path fill="url(#m6nc8p4zdb)" d="M7.672 409.8q.037.373.077.747a6.555 6.555 0 0 0 5.823 5.823 108.733 108.733 0 0 0 23.122 0 6.555 6.555 0 0 0 5.823-5.823q.04-.373.077-.747zm0 0" transform="translate(-7.132 -380.99)"/>
    <g>
        <path fill="#fff" d="M11.953 0a11.953 11.953 0 1 0 11.953 11.954A11.953 11.953 0 0 0 11.953 0zM19.8 5.786a9.937 9.937 0 0 1 2.134 5.888 21.208 21.208 0 0 0-6.993-.167q-.38-.872-.781-1.693a14.426 14.426 0 0 0 5.64-4.028zm-1.379-1.428a12.618 12.618 0 0 1-5.173 3.685A51.2 51.2 0 0 0 9.6 2.253a9.945 9.945 0 0 1 8.821 2.105zM7.661 2.941a48.974 48.974 0 0 1 3.693 5.734 35.308 35.308 0 0 1-9.117.987 10.021 10.021 0 0 1 5.424-6.721zm-5.692 9.012l.008-.323h.054a36.735 36.735 0 0 0 10.257-1.166q.354.721.7 1.481a15.566 15.566 0 0 0-8.544 6.572 9.937 9.937 0 0 1-2.475-6.564zm3.925 7.928a13.715 13.715 0 0 1 7.856-6.105 34.107 34.107 0 0 1 2.007 7.406 9.949 9.949 0 0 1-9.863-1.3zm11.7.306a36.389 36.389 0 0 0-1.884-6.8 19.791 19.791 0 0 1 6.083.26 10.005 10.005 0 0 1-4.199 6.541z" transform="translate(6.047 6.047) translate(0 -0.001)"/>
    </g>
</svg>
