<svg xmlns="http://www.w3.org/2000/svg" xmlns:xlink="http://www.w3.org/1999/xlink" width="104" height="60" viewBox="0 0 104 60">
  <defs>
    <clipPath id="clip-espn">
      <rect width="104" height="60"/>
    </clipPath>
  </defs>
  <g id="espn" clip-path="url(#clip-espn)">
    <g id="Group_69020" data-name="Group 69020" transform="translate(0 17)">
      <path id="Path_18490" data-name="Path 18490" d="M33.507,141.783H55.995l-.958,7.284H32.721l.786-7.284Zm-1.13,9.941H54.864l-.738,5.9H40.3l-.444,3.056H53.737l-.84,6.891H30.508l1.869-15.845Zm99.006,15.845h-8.319l1.824-15.845H133.3l-1.922,15.845Zm-16.729,0h-8.316l1.819-15.845h8.412l-1.916,15.845Zm-6.2-18.5H133.6c1.138-4.874-1.229-7.284-3.69-7.284-2.912,0-10.014.008-20.521.008l-.93,7.275ZM82.67,151.724l-1.824,15.845h8.316l1.135-9.948h12a4.083,4.083,0,0,0,4.336-3.135l.537-2.763Zm-26.714,0s-.006,1.544-.006,2.363a3.91,3.91,0,0,0,4.033,3.534c1.527,0,12.378.019,12.378.019l-.4,3.038H55.212l-.887,6.891H73.959a6.57,6.57,0,0,0,6.15-5.265s.766-6.45.787-6.692c.1-1.261-.664-3.889-4.07-3.889Zm5.874-9.941c-1.968,0-5.442,2.247-5.442,7.284h51.076c.649-7.012-3.938-7.278-4.514-7.284H61.83Z" transform="translate(-30.508 -141.783)" fill="#fff"/>
    </g>
  </g>
</svg>
