<svg xmlns="http://www.w3.org/2000/svg" xmlns:xlink="http://www.w3.org/1999/xlink" width="115" height="60" viewBox="0 0 115 60">
  <defs>
    <clipPath id="clip-_07">
      <rect width="115" height="60"/>
    </clipPath>
  </defs>
  <g id="_07" data-name="07" clip-path="url(#clip-_07)">
    <rect width="115" height="60" fill="#fff"/>
    <path id="fastly" d="M65.333,3.815V28.863h7.524V25.036H70.371V0H65.333ZM0,25.036H2.558V12.952H0V9.628l2.558-.421V5.843C2.558,1.768,3.444,0,8.642,0a21.616,21.616,0,0,1,3.617.376l-.691,4.1A9.407,9.407,0,0,0,9.89,4.325C8.059,4.325,7.6,4.507,7.6,6.3V9.208h3.8v3.744H7.6V25.036h2.531v3.827H0V25.036Zm62.771-1.209a9.934,9.934,0,0,1-1.976.158c-2.072.051-1.893-.63-1.893-2.585V12.952h3.945V9.208H58.9V0H53.863V22.445c0,4.407,1.088,6.418,5.827,6.418a20.722,20.722,0,0,0,3.83-.538Zm-15.2-10.882v-.67a21.684,21.684,0,0,0-3.859-.282c-2.345,0-2.631,1.243-2.631,1.917,0,.954.325,1.469,2.865,2.024,3.713.834,7.442,1.7,7.442,6.307,0,4.366-2.247,6.622-6.977,6.622a35.369,35.369,0,0,1-8.579-1.274V23.827H39.65l0,.668a22.446,22.446,0,0,0,4.262.285c2.5,0,2.906-1.345,2.906-2.06,0-.992-.717-1.468-3.061-1.944-4.417-.754-7.922-2.263-7.922-6.749,0-4.247,2.84-5.912,7.57-5.912a30.646,30.646,0,0,1,7.985,1.092v3.737H47.573ZM22.051,23.815v-.592h-.6v.591a5.33,5.33,0,0,1-5.008-5.038h.6v-.6h-.6a5.33,5.33,0,0,1,5-5v.594h.6v-.6a5.33,5.33,0,0,1,5.019,4.85v.173h-.6v.6h.6v.165a5.33,5.33,0,0,1-5.019,4.852Zm10.059.011,0-15.678H27.069v1.47a10.3,10.3,0,0,0-3.426-1.3h.029V6.583h.615V5.3H19.213V6.583h.615v1.74h.035a10.356,10.356,0,1,0,7.222,19.058l.907,1.482h5.322V23.827h-1.2Zm53.5-14.619H96v3.74H93.516L87.143,28.627c-1.826,4.4-4.827,8.549-9.4,8.549a17.584,17.584,0,0,1-3.656-.374l.456-4.573a13.017,13.017,0,0,0,1.995.206,5.581,5.581,0,0,0,5.256-3.6l-6.457-15.89H72.857V9.208h10.4v3.74H80.771l3.658,9,3.658-9H85.608V9.208ZM24.393,16.252l-.383-.384-1.947,1.7a.924.924,0,0,0-.313-.055.978.978,0,1,0,.951.977,1,1,0,0,0-.044-.294l1.736-1.941" transform="translate(10 13.375)" fill="#d52f2f"/>
  </g>
</svg>
