<svg xmlns="http://www.w3.org/2000/svg" xmlns:xlink="http://www.w3.org/1999/xlink" width="30" height="30" viewBox="0 0 30 30">
  <defs>
    <clipPath id="clip-chat_icon">
      <rect width="30" height="30"/>
    </clipPath>
  </defs>
  <g id="chat_icon" data-name="chat icon" clip-path="url(#clip-chat_icon)">
    <g id="bubble-chat" transform="translate(1.999 -27)">
      <path id="Path_115062" data-name="Path 115062" d="M24.173,48.057a8.547,8.547,0,0,0-1.292-11.4,10.084,10.084,0,0,0-5.678-2.56c-.013-.016-.027-.033-.042-.048A10.207,10.207,0,0,0,9.818,31C4.484,31,0,34.975,0,40.064a8.507,8.507,0,0,0,1.607,4.972L.136,49.653a.755.755,0,0,0,1.062.9l4.473-2.274a10.37,10.37,0,0,0,2.9.773,10.139,10.139,0,0,0,7.389,3.094,10.563,10.563,0,0,0,4.147-.846l4.473,2.274a.755.755,0,0,0,1.062-.9Zm-18.2-1.3a.755.755,0,0,0-.666.009l-3.186,1.62,1.04-3.266a.755.755,0,0,0-.125-.694A7.043,7.043,0,0,1,1.51,40.064c0-4.165,3.727-7.553,8.308-7.553a8.857,8.857,0,0,1,5.061,1.565c-4.852.488-8.737,4.277-8.737,9.009a8.468,8.468,0,0,0,1.089,4.158,8.739,8.739,0,0,1-1.255-.481Zm14.494,3.03a.755.755,0,0,0-.666-.009,9.007,9.007,0,0,1-3.843.855c-4.581,0-8.308-3.388-8.308-7.553s3.727-7.553,8.308-7.553,8.308,3.388,8.308,7.553a7.043,7.043,0,0,1-1.529,4.366.756.756,0,0,0-.125.694l1.04,3.266Z" fill="#fff"/>
      <circle id="Ellipse_4431" data-name="Ellipse 4431" cx="0.755" cy="0.755" r="0.755" transform="translate(12.134 42.33)" fill="#fff"/>
      <circle id="Ellipse_4432" data-name="Ellipse 4432" cx="0.755" cy="0.755" r="0.755" transform="translate(15.156 42.33)" fill="#fff"/>
      <circle id="Ellipse_4433" data-name="Ellipse 4433" cx="0.755" cy="0.755" r="0.755" transform="translate(18.177 42.33)" fill="#fff"/>
    </g>
  </g>
</svg>
