<svg xmlns="http://www.w3.org/2000/svg" xmlns:xlink="http://www.w3.org/1999/xlink" id="instagram-2" width="36" height="36" viewBox="0 0 36 36">
    <defs>
        <linearGradient id="linear-gradient" x1=".369" x2="-1.54" y1=".426" y2="-.648" gradientUnits="objectBoundingBox">
            <stop offset="0" stop-color="#a1b5d8" stop-opacity="0"/>
            <stop offset=".309" stop-color="#90a2bd" stop-opacity=".31"/>
            <stop offset=".755" stop-color="#7c8b9c" stop-opacity=".757"/>
            <stop offset="1" stop-color="#748290"/>
        </linearGradient>
        <linearGradient id="linear-gradient-2" x1=".5" x2=".5" y1=".413" y2="1.193" gradientUnits="objectBoundingBox">
            <stop offset="0" stop-color="#fae100" stop-opacity="0"/>
            <stop offset=".307" stop-color="#fca800" stop-opacity=".306"/>
            <stop offset=".627" stop-color="#fe7300" stop-opacity=".627"/>
            <stop offset=".868" stop-color="#ff5200" stop-opacity=".867"/>
            <stop offset="1" stop-color="#ff4500"/>
        </linearGradient>
        <linearGradient id="linear-gradient-3" x1=".316" x2=".012" y1=".311" y2=".005" gradientUnits="objectBoundingBox">
            <stop offset="0" stop-color="#833ab4" stop-opacity="0"/>
            <stop offset="1" stop-color="#833ab4"/>
        </linearGradient>
        <linearGradient id="linear-gradient-4" x1=".582" x2=".418" y1=".887" y2=".113" xlink:href="#linear-gradient-3"/>
        <linearGradient id="linear-gradient-5" x1=".605" x2="-.16" y1=".605" y2="-.16" xlink:href="#linear-gradient-3"/>
        <linearGradient id="linear-gradient-6" x1=".376" x2="-.072" y1=".332" y2="-.063" xlink:href="#linear-gradient-3"/>
        <linearGradient id="linear-gradient-7" x1=".816" x2=".172" y1=".182" y2=".835" gradientUnits="objectBoundingBox">
            <stop offset="0" stop-color="#833ab4"/>
            <stop offset=".092" stop-color="#9c3495"/>
            <stop offset=".293" stop-color="#dc2546"/>
            <stop offset=".392" stop-color="#fd1d1d"/>
            <stop offset=".559" stop-color="#fc6831"/>
            <stop offset=".689" stop-color="#fc9b40"/>
            <stop offset=".752" stop-color="#fcaf45"/>
            <stop offset=".781" stop-color="#fdb750"/>
            <stop offset=".866" stop-color="#fecb6a"/>
            <stop offset=".942" stop-color="#ffd87a"/>
            <stop offset="1" stop-color="#ffdc80"/>
        </linearGradient>
        <radialGradient id="radial-gradient" cx=".205" cy=".874" r="1.103" gradientUnits="objectBoundingBox">
            <stop offset="0" stop-color="#fae100"/>
            <stop offset=".054" stop-color="#fadc04"/>
            <stop offset=".117" stop-color="#fbce0e"/>
            <stop offset=".183" stop-color="#fcb720"/>
            <stop offset=".251" stop-color="#fe9838"/>
            <stop offset=".305" stop-color="#ff7950"/>
            <stop offset=".492" stop-color="#ff1c74"/>
            <stop offset="1" stop-color="#6c1cd1"/>
        </radialGradient>
        <style>
            .cls-9{fill:#fff}
        </style>
    </defs>
    <path id="Path_115188" fill="url(#radial-gradient)" d="M35.384 6.439A6.555 6.555 0 0 0 29.561.616a108.733 108.733 0 0 0-23.122 0A6.555 6.555 0 0 0 .616 6.439a108.733 108.733 0 0 0 0 23.122 6.555 6.555 0 0 0 5.823 5.823 108.736 108.736 0 0 0 23.122 0 6.555 6.555 0 0 0 5.823-5.823 108.733 108.733 0 0 0 0-23.122zm0 0"/>
    <path id="Path_115189" fill="url(#linear-gradient)" d="M60.232 34.548a5.817 5.817 0 0 0-5.167-5.167 96.524 96.524 0 0 0-20.518 0 5.817 5.817 0 0 0-5.167 5.167 96.522 96.522 0 0 0 0 20.517 5.817 5.817 0 0 0 5.167 5.167 96.486 96.486 0 0 0 20.517 0 5.816 5.816 0 0 0 5.167-5.167 96.486 96.486 0 0 0 .001-20.517zm0 0" transform="translate(-26.807 -26.807)"/>
    <path id="Path_115190" fill="url(#linear-gradient-2)" d="M7.672 409.8q.037.373.077.747a6.555 6.555 0 0 0 5.823 5.823 108.733 108.733 0 0 0 23.122 0 6.555 6.555 0 0 0 5.823-5.823q.04-.373.077-.747zm0 0" transform="translate(-7.132 -380.99)"/>
    <path id="Path_115191" fill="url(#linear-gradient-3)" d="M123.788 120.035a108.828 108.828 0 0 0 .612-12.424l-8.229-8.229a5.894 5.894 0 0 0-4.294-1.97c-3.629-.131-7.269-.124-10.9 0a5.824 5.824 0 0 0-5.662 5.107c-.1.526-.152 1.058-.227 1.588v8.729c.041.283.1.564.121.849a6.346 6.346 0 0 0 2.057 4.412l8.374 8.374a108.831 108.831 0 0 0 12.323-.614 6.555 6.555 0 0 0 5.825-5.822zm0 0" transform="translate(-88.404 -90.475)"/>
    <path id="Path_115192" fill="url(#linear-gradient-4)" d="M152.76 147.413a6.555 6.555 0 0 1-5.823 5.823 108.89 108.89 0 0 1-12.323.614l-8.361-8.361a5.863 5.863 0 0 0 3.7 1.42c3.628.136 7.269.133 10.9 0a5.831 5.831 0 0 0 5.759-5.829c.109-3.484.109-6.978 0-10.462a6.074 6.074 0 0 0-1.459-3.854l8.224 8.224a109.023 109.023 0 0 1-.617 12.425zm0 0" transform="translate(-117.377 -117.852)"/>
    <path id="Path_115193" fill="url(#linear-gradient-5)" d="M184.006 175.86a5.765 5.765 0 1 0-8.146 8.146l13.34 13.341q1.059-.092 2.118-.205a6.555 6.555 0 0 0 5.823-5.823q.113-1.058.205-2.118zm0 0" transform="translate(-161.758 -161.758)"/>
    <path id="Path_115194" fill="url(#linear-gradient-6)" d="M336.484 162.021l-10.737-10.737a1.37 1.37 0 1 0-1.92 1.92l12.465 12.465q.127-1.823.192-3.648zm0 0" transform="translate(-300.554 -140.143)"/>
    <path id="Path_115195" fill="url(#linear-gradient-7)" d="M95.09 104.108c.075-.53.132-1.062.227-1.588a5.823 5.823 0 0 1 5.662-5.107c3.629-.125 7.269-.131 10.9 0a5.832 5.832 0 0 1 5.759 5.829q.164 5.227 0 10.462a5.831 5.831 0 0 1-5.758 5.829c-3.629.131-7.269.134-10.9 0a5.932 5.932 0 0 1-5.769-5.844c-.019-.284-.08-.566-.121-.849zm11.317 13.479c1.661 0 3.323.05 4.981-.012a4.052 4.052 0 0 0 4.26-4.246q.113-4.855 0-9.715a4.026 4.026 0 0 0-4.26-4.24q-4.948-.1-9.9 0a4 4 0 0 0-4.253 4.179q-.133 4.917 0 9.839a4.029 4.029 0 0 0 4.254 4.184c1.637.061 3.278.012 4.918.012zm0 0" transform="translate(-88.404 -90.475)"/>
    <g id="Group_68658" transform="translate(6.686 6.843)">
        <path id="Path_115196" d="M95.09 104.108c.075-.53.132-1.062.227-1.588a5.823 5.823 0 0 1 5.662-5.107c3.629-.125 7.269-.131 10.9 0a5.832 5.832 0 0 1 5.759 5.829q.164 5.227 0 10.462a5.831 5.831 0 0 1-5.758 5.829c-3.629.131-7.269.134-10.9 0a5.932 5.932 0 0 1-5.769-5.844c-.019-.284-.08-.566-.121-.849zm11.317 13.479c1.661 0 3.323.05 4.981-.012a4.052 4.052 0 0 0 4.26-4.246q.113-4.855 0-9.715a4.026 4.026 0 0 0-4.26-4.24q-4.948-.1-9.9 0a4 4 0 0 0-4.253 4.179q-.133 4.917 0 9.839a4.029 4.029 0 0 0 4.254 4.184c1.637.061 3.278.012 4.918.012zm0 0" class="cls-9" transform="translate(-95.09 -97.317)"/>
        <path id="Path_115197" d="M179.758 174a5.766 5.766 0 1 0 5.766 5.766 5.766 5.766 0 0 0-5.766-5.766zm0 9.547a3.781 3.781 0 1 1 3.781-3.781 3.781 3.781 0 0 1-3.781 3.777zm0 0" class="cls-9" transform="translate(-168.444 -168.605)"/>
        <path id="Path_115198" d="M326.029 152.114a1.372 1.372 0 1 1-1.372-1.372 1.372 1.372 0 0 1 1.372 1.372zm0 0" class="cls-9" transform="translate(-307.24 -146.986)"/>
    </g>
</svg>
