<svg xmlns="http://www.w3.org/2000/svg" width="260.003" height="61.836" viewBox="0 0 260.003 61.836"><g transform="translate(-446.527 -441.434)"><g transform="translate(484.652 490.695)"><path d="M0,0-2.454,2.455a6.934,6.934,0,0,1-9.777,0L-28.14-13.454a6.934,6.934,0,0,1,0-9.777l15.908-15.908a6.934,6.934,0,0,1,9.777,0L0-36.685l4.229-4.229c.135-.135.278-.259.421-.38L-.583-46.528a9.4,9.4,0,0,0-13.25,0l-21.56,21.56a9.4,9.4,0,0,0,0,13.25l21.56,21.56a9.4,9.4,0,0,0,13.25,0L4.649,4.612c-.131-.113-.263-.226-.388-.35Z" fill="#353132"/></g><g transform="translate(516.329 467.54)"><path d="M0,0-2-2-15.764-15.764a6.87,6.87,0,0,0-9.267-.381c-.144.122-.286.245-.421.381L-27.416-13.8l-2.266,2.266-2.354,2.354,4.523,4.523,2.354-2.354,1.428-1.428a4.428,4.428,0,0,1,6.245,0L-9.811-.765l2.487,2.487a4.429,4.429,0,0,1,0,6.245l-2.663,2.664-7.5,7.5a4.429,4.429,0,0,1-6.245,0l-1.46-1.46-2.354-2.354-4.523,4.523,2.354,2.354,2.266,2.266,2,2c.124.125.256.237.388.35a6.869,6.869,0,0,0,9.3-.35l13.8-13.8L0,9.688A6.871,6.871,0,0,0,0,0" fill="#353132"/></g><g transform="translate(474.221 486.077)"><path d="M0,0-10.5-10.5a4.575,4.575,0,0,1,0-6.452L0-27.45a4.576,4.576,0,0,1,6.452,0l10.5,10.5a4.576,4.576,0,0,1,0,6.452L6.452,0A4.575,4.575,0,0,1,0,0" fill="#353132"/></g><g transform="translate(530.767 476.836)"><path d="M0,0A2.951,2.951,0,0,0,.874,2.441a3.589,3.589,0,0,0,2.295.692,6.108,6.108,0,0,0,1.366-.146A6.164,6.164,0,0,0,5.9,2.478v2.4a6.292,6.292,0,0,1-1.548.6,7.8,7.8,0,0,1-1.84.2A7.409,7.409,0,0,1,.4,5.391a4.33,4.33,0,0,1-1.694-.929A4.28,4.28,0,0,1-2.4,2.805,6.667,6.667,0,0,1-2.8.364V-11H-5.428v-2.477H-2.8v-5.683H0v5.683H5.974V-11H0Z" fill="#353132"/></g><g transform="translate(554.19 471.736)"><path d="M0,0A9.667,9.667,0,0,0-.526-2.441a6.483,6.483,0,0,0-1.158-2.04,5.594,5.594,0,0,0-1.81-1.4,5.536,5.536,0,0,0-2.481-.528,5.316,5.316,0,0,0-2.282.491A5.961,5.961,0,0,0-10.1-4.571a7.089,7.089,0,0,0-1.3,2.021A8.576,8.576,0,0,0-12.058,0ZM-11.329,4.79a6.537,6.537,0,0,0,1.494,2A6.287,6.287,0,0,0-7.8,8.033a6.747,6.747,0,0,0,2.368.419,7.224,7.224,0,0,0,3.37-.729A9.964,9.964,0,0,0,.51,5.792L2.258,7.359A11.511,11.511,0,0,1-.984,9.927a9.566,9.566,0,0,1-4.517.966,9.4,9.4,0,0,1-3.643-.711,9.073,9.073,0,0,1-3-2,9.564,9.564,0,0,1-2.04-3.114,10.346,10.346,0,0,1-.756-4.007,10.891,10.891,0,0,1,.674-3.843A9.666,9.666,0,0,1-12.386-5.92a8.761,8.761,0,0,1,2.86-2.094A8.538,8.538,0,0,1-5.9-8.779,8.515,8.515,0,0,1-2.186-8,8.141,8.141,0,0,1,.583-5.865,9.278,9.278,0,0,1,2.295-2.7a12.734,12.734,0,0,1,.583,3.9v.4a3.382,3.382,0,0,1-.036.473h-14.9a7.756,7.756,0,0,0,.729,2.714" fill="#353132"/></g><g transform="translate(574.207 481.593)"><path d="M0,0A8.85,8.85,0,0,1-4.462,1.035,9.379,9.379,0,0,1-8.306.252a9.7,9.7,0,0,1-3.06-2.113,9.641,9.641,0,0,1-2.021-3.114,9.918,9.918,0,0,1-.728-3.789,10.054,10.054,0,0,1,.728-3.807,9.807,9.807,0,0,1,2.021-3.151,9.576,9.576,0,0,1,3.06-2.131,9.379,9.379,0,0,1,3.843-.783,10.789,10.789,0,0,1,2.441.255,9.117,9.117,0,0,1,2,.71A9.249,9.249,0,0,1,1.658-16.6a14.824,14.824,0,0,1,1.42,1.312L1.22-13.318a13.308,13.308,0,0,0-2.459-2,6,6,0,0,0-3.26-.838,6.345,6.345,0,0,0-2.659.563,6.531,6.531,0,0,0-2.149,1.563,7.285,7.285,0,0,0-1.421,2.325,7.876,7.876,0,0,0-.51,2.853,7.777,7.777,0,0,0,.528,2.871A7.336,7.336,0,0,0-9.253-3.641,6.691,6.691,0,0,0-7.067-2.078a6.648,6.648,0,0,0,2.75.563,6.383,6.383,0,0,0,3.224-.8,10.841,10.841,0,0,0,2.531-2L3.224-2.644A12.729,12.729,0,0,1,0,0" fill="#353132"/></g><g transform="translate(584.133 482.191)"><path d="M0,0H-2.8V-26.592H0v11.038a8.873,8.873,0,0,1,2.477-2.6,6.762,6.762,0,0,1,3.971-1.074,7.941,7.941,0,0,1,3.042.547,6.309,6.309,0,0,1,2.258,1.548,6.825,6.825,0,0,1,1.42,2.386,9.082,9.082,0,0,1,.492,3.06V0H10.855V-11a6.062,6.062,0,0,0-1.347-4.153,4.873,4.873,0,0,0-3.861-1.53,5.935,5.935,0,0,0-2.241.419,5.227,5.227,0,0,0-1.8,1.2A5.419,5.419,0,0,0,.419-13.187,6.657,6.657,0,0,0,0-10.783Z" fill="#353132"/></g><g transform="translate(613.202 474.322)"><path d="M0,0A8.448,8.448,0,0,0-1.621-.528a8.753,8.753,0,0,0-1.913-.2,4.944,4.944,0,0,0-2.8.692,2.271,2.271,0,0,0-1.02,2V2.04A2.046,2.046,0,0,0-6.52,3.788a3.583,3.583,0,0,0,2.185.619,4.9,4.9,0,0,0,3.151-.947A3.023,3.023,0,0,0,0,.983ZM-.109,7.868V5.756a7.7,7.7,0,0,1-2.441,1.8,8.04,8.04,0,0,1-3.461.674,8.677,8.677,0,0,1-2.6-.382A6.117,6.117,0,0,1-10.746,6.7a5.491,5.491,0,0,1-1.439-1.876,5.912,5.912,0,0,1-.528-2.568V2.186A6.124,6.124,0,0,1-12.13-.583a5.316,5.316,0,0,1,1.621-1.931A7.273,7.273,0,0,1-8.032-3.661a12.4,12.4,0,0,1,3.187-.383,13.656,13.656,0,0,1,2.6.219,16.332,16.332,0,0,1,2.167.583V-3.57A3.318,3.318,0,0,0-1.129-6.229,4.682,4.682,0,0,0-4.262-7.14a13.013,13.013,0,0,0-2.823.273,19.029,19.029,0,0,0-2.568.783l-1.385-4.226a21.765,21.765,0,0,1,3.351-1.13,17.647,17.647,0,0,1,4.226-.437q4.554,0,6.63,2.222A8.721,8.721,0,0,1,5.246-3.461V7.868Z" fill="#353132"/></g><g transform="translate(634.841 482.191)"><path d="M0,0V-10.865a4.379,4.379,0,0,0-.875-2.962,3.116,3.116,0,0,0-2.477-1,3.288,3.288,0,0,0-2.532,1,4.206,4.206,0,0,0-.929,2.962V0h-5.537V-26.592h5.537v9.858a11.919,11.919,0,0,1,1.038-1.192,7.245,7.245,0,0,1,1.257-1.009,6.248,6.248,0,0,1,1.53-.7,6.443,6.443,0,0,1,1.894-.257,6.238,6.238,0,0,1,4.9,1.931,7.683,7.683,0,0,1,1.73,5.318V0Z" fill="#353132"/></g><g transform="translate(655.968 467.893)"><path d="M0,0A3.632,3.632,0,0,0-2.805-1.148,3.719,3.719,0,0,0-5.628-.018a5.667,5.667,0,0,0-1.4,3.023H1.311A5.394,5.394,0,0,0,0,0M6.685,5.774q-.019.292-.055.692H-6.958A4.664,4.664,0,0,0-5.3,9.325a4.96,4.96,0,0,0,3.114.966A6.176,6.176,0,0,0,.292,9.818,8.446,8.446,0,0,0,2.55,8.287l3.169,2.8A9.821,9.821,0,0,1,2.368,13.77a10.393,10.393,0,0,1-4.627.966,11.119,11.119,0,0,1-4.061-.729A9.38,9.38,0,0,1-9.562,11.93a9.593,9.593,0,0,1-2.131-3.187,10.574,10.574,0,0,1-.765-4.1V4.572a10.931,10.931,0,0,1,.71-3.934A10.009,10.009,0,0,1-9.763-2.6,9.325,9.325,0,0,1-6.721-4.79a9.373,9.373,0,0,1,3.916-.8,9.507,9.507,0,0,1,4.226.874A8.6,8.6,0,0,1,4.39-2.368,9.786,9.786,0,0,1,6.138,1.02,14.016,14.016,0,0,1,6.7,5.009v.073c0,.267-.006.5-.018.692" fill="#353132"/></g><g transform="translate(677.606 474.322)"><path d="M0,0A8.448,8.448,0,0,0-1.621-.528a8.753,8.753,0,0,0-1.913-.2,4.944,4.944,0,0,0-2.8.692,2.271,2.271,0,0,0-1.02,2V2.04A2.046,2.046,0,0,0-6.52,3.788a3.583,3.583,0,0,0,2.185.619,4.9,4.9,0,0,0,3.151-.947A3.023,3.023,0,0,0,0,.983ZM-.109,7.868V5.756a7.7,7.7,0,0,1-2.441,1.8,8.04,8.04,0,0,1-3.461.674,8.677,8.677,0,0,1-2.6-.382A6.117,6.117,0,0,1-10.746,6.7a5.491,5.491,0,0,1-1.439-1.876,5.912,5.912,0,0,1-.528-2.568V2.186A6.124,6.124,0,0,1-12.13-.583a5.316,5.316,0,0,1,1.621-1.931A7.273,7.273,0,0,1-8.032-3.661a12.4,12.4,0,0,1,3.187-.383,13.656,13.656,0,0,1,2.6.219,16.332,16.332,0,0,1,2.167.583V-3.57A3.318,3.318,0,0,0-1.129-6.229,4.682,4.682,0,0,0-4.262-7.14a13.013,13.013,0,0,0-2.823.273,19.029,19.029,0,0,0-2.568.783l-1.385-4.226a21.765,21.765,0,0,1,3.351-1.13,17.647,17.647,0,0,1,4.226-.437q4.554,0,6.63,2.222A8.721,8.721,0,0,1,5.246-3.461V7.868Z" fill="#353132"/></g><g transform="translate(701.065 472.392)"><path d="M0,0A6.2,6.2,0,0,0-.382-2.219,5.488,5.488,0,0,0-1.4-3.942,4.406,4.406,0,0,0-2.9-5.043a4.434,4.434,0,0,0-1.84-.385,4.431,4.431,0,0,0-1.84.385,4.589,4.589,0,0,0-1.512,1.1A5.337,5.337,0,0,0-9.125-2.237,6.173,6.173,0,0,0-9.508,0V.073a6.21,6.21,0,0,0,.382,2.219A5.3,5.3,0,0,0-8.087,4.016a4.6,4.6,0,0,0,1.512,1.1,4.43,4.43,0,0,0,1.84.385A4.433,4.433,0,0,0-2.9,5.116,4.411,4.411,0,0,0-1.4,4.016,5.486,5.486,0,0,0-.382,2.292,6.2,6.2,0,0,0,0,.073ZM-.073,9.8V7.019A8.766,8.766,0,0,1-2.531,9.278a6.813,6.813,0,0,1-3.625.886,8.676,8.676,0,0,1-3.315-.656,8.2,8.2,0,0,1-2.841-1.949A9.707,9.707,0,0,1-14.3,4.39,11.6,11.6,0,0,1-15.044.073V0A11.6,11.6,0,0,1-14.3-4.317a9.881,9.881,0,0,1,1.967-3.169A8.025,8.025,0,0,1-9.508-9.435a8.759,8.759,0,0,1,3.351-.656A6.994,6.994,0,0,1-2.5-9.223,9.743,9.743,0,0,1-.073-7.2v-9.594H5.464V9.8Z" fill="#353132"/></g></g></svg>