<svg id="Group_19602" data-name="Group 19602" xmlns="http://www.w3.org/2000/svg" width="69.601" height="59.941" viewBox="0 0 69.601 59.941">
  <path id="Path_109051" data-name="Path 109051" d="M97.659,104.5l-2.379,2.379a6.719,6.719,0,0,1-9.477,0L70.384,91.462a6.719,6.719,0,0,1,0-9.477L85.8,66.565a6.719,6.719,0,0,1,9.477,0l2.379,2.379,4.1-4.1c.132-.132.271-.251.41-.367L97.094,59.4a9.108,9.108,0,0,0-12.843,0l-20.9,20.9a9.108,9.108,0,0,0,0,12.843l20.9,20.9a9.108,9.108,0,0,0,12.843,0l5.071-5.071c-.128-.108-.255-.22-.375-.34Z" transform="translate(-60.703 -56.753)" fill="#222"/>
  <path id="Path_109052" data-name="Path 109052" d="M186.346,94.872l-1.934-1.934L171.066,79.593a6.655,6.655,0,0,0-8.982-.367c-.139.116-.279.236-.41.367l-1.9,1.9-2.2,2.2-2.282,2.282,4.383,4.383,2.282-2.282,1.385-1.385a4.3,4.3,0,0,1,6.054,0l7.439,7.439,2.41,2.41a4.3,4.3,0,0,1,0,6.054l-2.58,2.58-7.269,7.269a4.3,4.3,0,0,1-6.054,0l-1.416-1.416-2.282-2.282-4.383,4.383,2.282,2.282,2.2,2.2,1.934,1.934c.12.12.248.228.375.34a6.658,6.658,0,0,0,9.017-.34l13.377-13.377,1.9-1.9A6.654,6.654,0,0,0,186.346,94.872Z" transform="translate(-118.682 -69.571)" fill="#222"/>
  <path id="Path_109053" data-name="Path 109053" d="M111.921,124.393l-10.177-10.177a4.434,4.434,0,0,1,0-6.255l10.177-10.177a4.434,4.434,0,0,1,6.255,0l10.177,10.177a4.434,4.434,0,0,1,0,6.255l-10.177,10.177A4.441,4.441,0,0,1,111.921,124.393Z" transform="translate(-85.076 -81.12)" fill="#222"/>
</svg>
