<svg id="Group_68738" data-name="Group 68738" xmlns="http://www.w3.org/2000/svg" width="260" height="60" viewBox="0 0 260 60">
  <rect id="Rectangle_6839" data-name="Rectangle 6839" width="260" height="60" fill="#fff"/>
  <path id="Path_115328" data-name="Path 115328" d="M2.085-143A9.345,9.345,0,0,0,8.935-140c3.106,0,4.34-1.547,4.34-2.966,0-1.977-2.3-2.536-4.935-3.224-3.531-.9-7.658-1.934-7.658-6.534,0-3.654,3.148-6.448,7.871-6.448a11.09,11.09,0,0,1,8.084,3.052l-2.17,2.837a8.722,8.722,0,0,0-6.254-2.493c-2.255,0-3.659,1.075-3.659,2.708,0,1.719,2.212,2.278,4.765,2.923,3.574.9,7.829,2.02,7.829,6.791,0,3.654-2.51,6.748-8.382,6.748A11.449,11.449,0,0,1,0-140.082Z" transform="translate(9.649 177.538)" fill="#343535"/>
  <path id="Path_115329" data-name="Path 115329" d="M16-136.389H5.744L4.17-132.177H0l8.509-21.836h4.723l8.509,21.836h-4.17Zm-9.19-3.353h8.126l-4.042-11.047Z" transform="translate(27.688 172.729)" fill="#343535"/>
  <path id="Path_115330" data-name="Path 115330" d="M0-154.316H3.787v18.483h9.53v3.4H0Z" transform="translate(51.812 173.031)" fill="#343535"/>
  <path id="Path_115331" data-name="Path 115331" d="M0-154.316H14.806v3.4H3.787v5.674H14.593v3.353H3.787v6.061H14.806v3.4H0Z" transform="translate(68.575 173.031)" fill="#343535"/>
  <path id="Path_115332" data-name="Path 115332" d="M2.085-143.048a9.345,9.345,0,0,0,6.85,3.009c3.106,0,4.34-1.547,4.34-2.966,0-1.977-2.3-2.536-4.935-3.224-3.531-.9-7.7-1.934-7.7-6.534,0-3.611,3.148-6.4,7.871-6.4a11.09,11.09,0,0,1,8.084,3.052l-2.17,2.837a8.722,8.722,0,0,0-6.254-2.493c-2.255,0-3.659,1.075-3.659,2.708,0,1.719,2.212,2.278,4.765,2.923,3.574.9,7.829,2.02,7.829,6.791,0,3.654-2.51,6.748-8.339,6.748A11.449,11.449,0,0,1,0-140.082Z" transform="translate(85.891 177.581)" fill="#343535"/>
  <path id="Path_115333" data-name="Path 115333" d="M19.188-108.711c0-1.719-.766-2.837-2.553-2.837a4.665,4.665,0,0,0-3.616,2.106V-98.4h-3.4v-10.316c0-1.719-.766-2.837-2.6-2.837A4.731,4.731,0,0,0,3.4-109.4v11.047H0v-15.861H3.4v2.149A6.7,6.7,0,0,1,8.509-114.6a4.021,4.021,0,0,1,4.255,2.923,6.663,6.663,0,0,1,5.318-2.923c2.893,0,4.51,1.59,4.51,4.771V-98.4h-3.4Z" transform="translate(135.713 139.032)" fill="#343535"/>
  <path id="Path_115334" data-name="Path 115334" d="M10.509-102.8a6.59,6.59,0,0,1-5.063,2.106A5.218,5.218,0,0,1,0-105.938c0-3.654,2.893-5.158,5.446-5.158a6.471,6.471,0,0,1,5.063,2.02v-2.364c0-1.848-1.489-2.966-3.659-2.966a6.293,6.293,0,0,0-4.638,2.02l-1.4-2.407A9.346,9.346,0,0,1,7.4-117.329c3.446,0,6.51,1.461,6.51,5.717v10.488h-3.4Zm0-4.255a4.6,4.6,0,0,0-3.744-1.633c-1.915,0-3.361,1.118-3.361,2.837s1.447,2.837,3.361,2.837a4.655,4.655,0,0,0,3.744-1.633Z" transform="translate(161.794 141.718)" fill="#343535"/>
  <path id="Path_115335" data-name="Path 115335" d="M10.594-108.281c0-2.45-1.234-3.267-3.148-3.267A5.155,5.155,0,0,0,3.4-109.4v11.047H0v-15.861H3.4v2.149A7.349,7.349,0,0,1,8.892-114.6c3.361,0,5.063,1.848,5.063,5.072V-98.4h-3.4Z" transform="translate(180.089 139.032)" fill="#343535"/>
  <path id="Path_115336" data-name="Path 115336" d="M10.509-102.8a6.59,6.59,0,0,1-5.063,2.106A5.218,5.218,0,0,1,0-105.938c0-3.654,2.893-5.158,5.446-5.158a6.471,6.471,0,0,1,5.063,2.02v-2.364c0-1.848-1.489-2.966-3.659-2.966a6.293,6.293,0,0,0-4.638,2.02l-1.4-2.407A9.346,9.346,0,0,1,7.4-117.329c3.446,0,6.51,1.461,6.51,5.717v10.488h-3.4Zm0-4.255a4.6,4.6,0,0,0-3.744-1.633c-1.915,0-3.361,1.118-3.361,2.837s1.447,2.837,3.361,2.837a4.655,4.655,0,0,0,3.744-1.633Z" transform="translate(197.533 141.718)" fill="#343535"/>
  <path id="Path_115337" data-name="Path 115337" d="M2.383-141.674a6.077,6.077,0,0,0,4.935,2.02c2.255,0,4.638-1.032,4.638-4.3v-1.891a6.267,6.267,0,0,1-5.02,2.622c-4,0-6.935-2.923-6.935-8.124,0-5.115,2.936-8.124,6.935-8.124a6.228,6.228,0,0,1,5.02,2.579v-2.192h3.4v15c0,5.717-4.17,7.221-8.041,7.221a8.792,8.792,0,0,1-6.552-2.364Zm9.573-12.637a5.151,5.151,0,0,0-4-2.149c-2.68,0-4.425,2.02-4.425,5.072s1.7,5.072,4.425,5.072a4.967,4.967,0,0,0,4-2.149Z" transform="translate(214.892 183.902)" fill="#343535"/>
  <path id="Path_115338" data-name="Path 115338" d="M0-109.033c0-4.513,3.063-8.3,8.041-8.3,5.02,0,8.084,3.783,8.084,8.3,0,4.556-3.063,8.339-8.084,8.339C3.063-100.737,0-104.476,0-109.033Zm12.594,0c0-2.794-1.617-5.244-4.552-5.244-2.893,0-4.51,2.45-4.51,5.244s1.617,5.287,4.51,5.287C10.977-103.789,12.594-106.239,12.594-109.033Z" transform="translate(233.697 141.761)" fill="#343535"/>
  <path id="Path_115339" data-name="Path 115339" d="M0-116.826l5.446-3.783v-15.517L0-132.343Z" transform="translate(107.122 160.515)" fill="#cbdda2"/>
  <path id="Path_115340" data-name="Path 115340" d="M0-158.2l5.446-3.826V-184.33L0-180.548Z" transform="translate(116.652 202.058)" fill="#cbdda2"/>
  <path id="Path_115341" data-name="Path 115341" d="M0-227.54v29.014l5.446-3.826v-28.971Z" transform="translate(126.183 242.387)" fill="#cbdda2"/>
</svg>
