<svg xmlns="http://www.w3.org/2000/svg" xmlns:xlink="http://www.w3.org/1999/xlink" width="160" height="60" viewBox="0 0 160 60">
  <defs>
    <clipPath id="clip-_05">
      <rect width="160" height="60"/>
    </clipPath>
  </defs>
  <g id="_05" data-name="05" clip-path="url(#clip-_05)">
    <rect width="160" height="60" fill="#fff"/>
    <g id="mixpanel_1_" data-name="mixpanel (1)" transform="translate(10.006 7.999)">
      <g id="Group_20154" data-name="Group 20154" transform="translate(0.472 26.623)">
        <circle id="Ellipse_4415" data-name="Ellipse 4415" cx="8.689" cy="8.689" r="8.689" fill="#33547d"/>
        <circle id="Ellipse_4416" data-name="Ellipse 4416" cx="6.145" cy="6.145" r="6.145" transform="translate(33.907 2.638)" fill="#33547d"/>
        <circle id="Ellipse_4417" data-name="Ellipse 4417" cx="2.79" cy="2.79" r="2.79" transform="translate(63.117 5.993)" fill="#33547d"/>
      </g>
      <path id="Path_111412" data-name="Path 111412" d="M26.117,21.729a1.951,1.951,0,0,1-1.271-.432,1.362,1.362,0,0,1-.515-1.065V13.86c0-2.2-1.255-3.886-4.068-3.886a4.919,4.919,0,0,0-3.278,1.136,3.413,3.413,0,0,0-1.247,2.783v6.339a1.322,1.322,0,0,1-.5,1.077,1.908,1.908,0,0,1-1.286.42,1.929,1.929,0,0,1-1.279-.426,1.342,1.342,0,0,1-.508-1.071V13.86c0-2.2-1.369-3.886-4.182-3.886-2.889,0-4.41,1.816-4.41,3.919v6.339A1.342,1.342,0,0,1,3.063,21.3a1.929,1.929,0,0,1-1.278.426A1.951,1.951,0,0,1,.514,21.3,1.363,1.363,0,0,1,0,20.232V8.922a1.306,1.306,0,0,1,.483-1.1,1.9,1.9,0,0,1,1.3-.428A1.874,1.874,0,0,1,3.1,7.814a1.286,1.286,0,0,1,.475,1.108v1.02A6.2,6.2,0,0,1,8.935,7.265,6.558,6.558,0,0,1,14.752,10.1,7.6,7.6,0,0,1,21.1,7.265c4.6,0,6.805,2.647,6.805,6.372v6.594a1.342,1.342,0,0,1-.508,1.072,1.929,1.929,0,0,1-1.279.426ZM32.925,1.721a1.944,1.944,0,0,1,2.091,1.752,2.124,2.124,0,0,1-4.182,0,1.962,1.962,0,0,1,2.091-1.752Zm0,20.009a1.929,1.929,0,0,1-1.279-.426,1.342,1.342,0,0,1-.508-1.072V8.889a1.815,1.815,0,0,1,3.574,0V20.232A1.342,1.342,0,0,1,34.2,21.3a1.929,1.929,0,0,1-1.278.426Zm11.858-9.176,4.524-4.715a1.639,1.639,0,0,1,1.179-.446,1.7,1.7,0,0,1,1.165.348,1.178,1.178,0,0,1,.47.959,1.16,1.16,0,0,1-.418.86l-4.981,4.97,5.057,5a1.151,1.151,0,0,1,.418.892,1.494,1.494,0,0,1-1.6,1.306,1.653,1.653,0,0,1-1.255-.478L44.783,16.5l-4.562,4.747a1.656,1.656,0,0,1-1.255.478,1.494,1.494,0,0,1-1.6-1.306,1.151,1.151,0,0,1,.418-.892l5.056-5-4.981-4.97a1.16,1.16,0,0,1-.418-.86,1.178,1.178,0,0,1,.47-.959,1.7,1.7,0,0,1,1.165-.348,1.64,1.64,0,0,1,1.179.446l4.524,4.715Zm19.5,9.3a7.211,7.211,0,0,1-5.855-2.74v7.073a1.815,1.815,0,0,1-3.574,0V8.889a1.262,1.262,0,0,1,.455-1.07,1.833,1.833,0,0,1,1.256-.427,1.9,1.9,0,0,1,1.274.443,1.312,1.312,0,0,1,.473,1.086v1.084a7.25,7.25,0,0,1,5.97-2.741c4.372,0,7.946,3.058,7.946,7.3C72.235,18.958,68.659,21.857,64.286,21.857ZM63.566,9.75a4.894,4.894,0,0,0-5.133,4.811,4.894,4.894,0,0,0,5.133,4.811c3.082,0,5.094-1.943,5.094-4.811S66.643,9.75,63.566,9.75ZM91.092,20.232a1.8,1.8,0,0,1-3.536,0v-.7a7.092,7.092,0,0,1-5.55,2.326c-5.323,0-8.4-3.249-8.4-7.3a6.542,6.542,0,0,1,2.5-5.242,9.414,9.414,0,0,1,6.275-2.054c5.475,0,8.707,2.995,8.707,7.3v5.671h0ZM82.347,9.814a4.865,4.865,0,0,0-5.171,4.747c0,2.74,1.787,4.747,5.171,4.747a4.87,4.87,0,0,0,5.17-4.747C87.517,11.633,85.389,9.814,82.347,9.814Zm19.5-2.549a8.665,8.665,0,0,1,5.684,1.9,6.044,6.044,0,0,1,2.3,4.755v6.307a1.815,1.815,0,0,1-3.574,0V13.572c-.078-1.985-2.021-3.561-4.391-3.561s-4.313,1.576-4.391,3.561v6.66a1.815,1.815,0,0,1-3.574,0V13.925a6.012,6.012,0,0,1,2.276-4.752,8.626,8.626,0,0,1,5.67-1.908Zm26.574,7.327c0,.51-.342,1.02-1.368,1.02H115.687c.19,2.2,1.977,3.855,5.132,3.855a6.435,6.435,0,0,0,4.41-1.561,1.9,1.9,0,0,1,1.179-.478,1.6,1.6,0,0,1,1.063.352,1.11,1.11,0,0,1,.42.89,1.242,1.242,0,0,1-.456.86,10.07,10.07,0,0,1-6.767,2.326c-5.665,0-8.668-3.314-8.668-7.3,0-4.174,3.612-7.3,8.516-7.3,4.791,0,7.908,3.25,7.908,7.329Zm-7.908-4.938c-2.435-.025-4.494,1.507-4.752,3.536h9.352c-.215-2-2.207-3.529-4.6-3.536ZM132.6,21.729a1.929,1.929,0,0,1-1.279-.426,1.342,1.342,0,0,1-.508-1.071V1.5a1.815,1.815,0,0,1,3.574,0V20.232a1.341,1.341,0,0,1-.508,1.071,1.928,1.928,0,0,1-1.278.426Z" transform="translate(0 0)" fill="#33547d"/>
    </g>
  </g>
</svg>
