<svg xmlns="http://www.w3.org/2000/svg" xmlns:xlink="http://www.w3.org/1999/xlink" width="240" height="60" viewBox="0 0 240 60">
  <defs>
    <clipPath id="clip-_10">
      <rect width="240" height="60"/>
    </clipPath>
  </defs>
  <g id="_10" data-name="10" clip-path="url(#clip-_10)">
    <rect width="240" height="60" fill="#fff"/>
    <g id="Layer_x0020_1" transform="translate(9.99 11.642)">
      <g id="_1902118825648" transform="translate(0.01 0)">
        <path id="Path_109105" data-name="Path 109105" d="M15.78,30.943c4.457,0,7.932-1.283,11.019-1.283.02-.918,1.434-6.756,1.434-7.321,0-.378-.421-.3-.755-.3-.4,0-.647.944-1.071,1.646-1.89,3.128-3.9,5.087-8.017,5.719a11.511,11.511,0,0,1-4.907-.237,10.751,10.751,0,0,1-5.569-3.94,11.842,11.842,0,0,1-1.373-2.1,15.83,15.83,0,0,1-1.779-7.881c0-5.034,2.543-10.079,6.315-12.326a9.824,9.824,0,0,1,6.062-1.485,9.274,9.274,0,0,1,8.195,5.691c.1.268.167.5.246.735.175.513.221.517.766.517a.78.78,0,0,0,.528-.227,7.645,7.645,0,0,0-.129-.852c-.194-1.333-.852-5.5-.852-6.544C22.837.755,20.391,0,16.535,0A18.383,18.383,0,0,0,9.9,1.218a15.417,15.417,0,0,0-4.9,3.028,4.321,4.321,0,0,0-.518.463c-.442.566-.7.712-1.356,1.587A14.8,14.8,0,0,0,1.617,8.779,13.979,13.979,0,0,0,.534,11.621l-.441,2.5c-.037.339.016.685-.032,1.025a16.173,16.173,0,0,0,1.141,6.6,13.692,13.692,0,0,0,1.355,2.569,14.557,14.557,0,0,0,1.279,1.665l.489.568A15.874,15.874,0,0,0,9.139,29.66a18,18,0,0,0,6.642,1.283Z" transform="translate(-0.01 0)" fill="#508eb7" fill-rule="evenodd"/>
        <path id="Path_109106" data-name="Path 109106" d="M3100.835,47.68c.93,0,.8-.455,1.384-1.71.891-1.9,1.791-4.123,2.666-6.089l3.971-9.085c.157-.368.281-.651.434-1,.3-.676.6-1.371.9-2.041l2.191-5.054c.142-.319.308-.619.477-.957.964-1.928,1.742-2.9,4.128-3.117,1.139-.106.8-1.21.45-1.21-1.9,0-3.41.227-4.981.227-1.834,0-3.557-.227-5.66-.227-.467,0-.289.864-.226,1.132.681.159,3.849.165,3.849,2.113a6.7,6.7,0,0,1-.787,3.137l-5.121,12.615c-.345.867-.689,1.7-1.025,2.522-.177.432-.316.792-.5,1.241a5.38,5.38,0,0,1-.571,1.24c-.128-.548-.712-1.916-.953-2.594l-3.975-10.44c-.353-.9-.628-1.733-.991-2.632-.186-.459-.323-.879-.5-1.315a16.307,16.307,0,0,1-1.358-4.3c0-1.157,1.82-1.368,2.6-1.479,1.084-.156,1.1.309,1.1-.936,0-.453-.758-.3-1.585-.3-1.9,0-3.569.227-5.51.227-1.871,0-3.78-.227-6.038-.227-.4,0-.28.769-.136.964.222.3.685.246,1.117.319,3.033.514,3.513.96,4.668,4.087l6.524,16.722c.566,1.412,1.074,2.807,1.627,4.184l1.208,3.094c.116.29.269.895.614.895Z" transform="translate(-2968.763 -16.736)" fill="#508eb7" fill-rule="evenodd"/>
        <path id="Path_109107" data-name="Path 109107" d="M1308.563,367.237c0,.406-.033.54.656.435a4.971,4.971,0,0,1,.856-.055h3.769c1.219,0,1.663.344,1.663-.38,0-.63-2.125-.1-2.743-1.332a19.286,19.286,0,0,1-.128-4.029c.005-.419.076-.481.081-.9l0-3.173c0-1.368.076-2.634.076-4.076.315.211,1.221,1.412,1.6,1.794l10.814,12.2c1.176,1.332.866-1.416.866-1.848s0-.856,0-1.285c0-.515.081-.689.079-1.2,0-.831,0-1.662,0-2.492,0-.877.075-1.559.075-2.491,0-1.724.029-3.265.073-4.984a1.628,1.628,0,0,1,.916-1.65c1.69-.656,1.955-.005,1.955-.838,0-.174-.052-.226-.226-.226a12.659,12.659,0,0,0-1.605.055l-4.885-.055c-.256,0-.226.133-.226.377,0,.635,1.847.11,2.656,1.193.521.7.288,2.5.288,3.637v7.774a1.226,1.226,0,0,1-.378-.377l-1.413-1.606c-.139-.144-.247-.226-.375-.379l-2.191-2.488a3.668,3.668,0,0,1-.366-.389,2.817,2.817,0,0,0-.352-.4c-.293-.287-.474-.533-.756-.829l-2.906-3.283c-.13-.148-.243-.232-.378-.377-.16-.173-.177-.244-.338-.417-.139-.15-.244-.226-.37-.384a3.5,3.5,0,0,0-.385-.446c-.205-.2-1.376-1.6-1.491-1.6-.754,0-1.442.129-2.038.129s-1.479-.129-2.415-.129c-.023,1.03-.177.41,1.652.989a1.524,1.524,0,0,1,1.212,1.657l-.072,1.355c0,.56-.065.908-.078,1.356s.036.985,0,1.433l-.222,5.514c0,.575-.081.821-.078,1.356.009,1.628-.205,2.176-1.841,2.461-.393.069-1.025.035-1.025.409Z" transform="translate(-1259.284 -337.501)" fill="#518fb8" fill-rule="evenodd"/>
        <path id="Path_109108" data-name="Path 109108" d="M2178.911,329c0,.546.12.393,1.089.572a6.088,6.088,0,0,1,1.189.32c.812.329,1.043.877,1.043,1.976v14.415c0,1.741-.317,7.925-2.944,7.925-1.235,0-1.644-1.811-2.792-1.811a2.263,2.263,0,0,0-1.857.482,1.947,1.947,0,0,0,1.556,3.367,6.1,6.1,0,0,0,4.4-1.337,11.311,11.311,0,0,0,3.3-3.946,14.243,14.243,0,0,0,1.214-3.616,13.52,13.52,0,0,0,.22-2.194c-.013-3.22,0-6.442,0-9.662a26.145,26.145,0,0,1,.12-4.71c.487-1.569,3.2-.947,3.2-1.63l-.075-.528c-1.934,0-3.139.151-4.755.151l-2.4-.087a23.28,23.28,0,0,0-2.426-.064,1.085,1.085,0,0,0-.075.377Z" transform="translate(-2092.123 -316.246)" fill="#508eb7" fill-rule="evenodd"/>
        <path id="Path_109109" data-name="Path 109109" d="M2581.867,349.832c0-3.032.832-5.863,3.138-7.428a5.9,5.9,0,0,1,6.113-.088,7.009,7.009,0,0,1,2.8,3.845c1.146,3.518.438,8.868-2.891,10.714-3.3,1.829-7.463.282-8.732-4a11.007,11.007,0,0,1-.425-3.047Zm-2.717-.377a8.512,8.512,0,0,0,2.547,6.585c2.465,2.489,6.906,2.983,10.1,1.761a8.258,8.258,0,0,0,1.414-.7,8.371,8.371,0,0,0,3.9-6.892c0-2.839-.42-4.911-2.471-6.962-2.079-2.078-4-2.547-6.962-2.547A8.567,8.567,0,0,0,2579.15,349.455Z" transform="translate(-2482.022 -327.869)" fill="#508eb7" fill-rule="evenodd"/>
        <path id="Path_109110" data-name="Path 109110" d="M4982.03,350.524c0,.748.581.3,1.781.785.7.282.936.615.936,1.555v11.774c0,1.428-.744,1.585-1.816,1.806-.622.128-.9-.047-.9.533,0,.488.726.223,1.206.225.527,0,1.064.011,1.59,0,.471-.006.6-.079,1.506-.078,1.363,0,5.146-.046,6.124.064l2.857.087,1.661-4.151c-.314-.21-.135-.227-.68-.227a4.345,4.345,0,0,1-.774,1.264c-2.167,2.423-3.9,2.132-6.849,2.132-1.126,0-1.434-.69-1.434-1.811V358.9h3.169c2.591,0,1.74,2.868,2.415,2.868.162,0,.453.035.453-.151,0-1.122-.151-2.019-.151-3.094,0-2.881.581-3.17-.3-3.17-.682,0,.163,2.717-2.264,2.717h-3.321V352.94c0-2.081,1.405-1.736,3.547-1.736,1.692,0,3.067.531,3.75,1.911.538,1.086.384,1.441,1.156,1.033-.024-.287-.732-2.674-.83-3.849-2.029,0-4.479.142-6.492.152-.6,0-.939-.078-1.583-.076l-4.079-.078c-.336-.005-.677-.089-.677.229Z" transform="translate(-4794.411 -337.091)" fill="#508eb7" fill-rule="evenodd"/>
        <path id="Path_109111" data-name="Path 109111" d="M1875.719,350.12c0,.49-.008.409.359.472,1.587.271,2.359.282,2.359,2.245v11.17c0,1.364-.374,1.782-1.82,2.029-.654.112-.9-.009-.9.537,0,.488.726.223,1.206.225l2.27-.07c1.329-.11,6.785.073,8.373.072.576,0,.964.075,1.434.075l.765-2.1c.13-.315.3-.687.432-1,.266-.648.755-1.272-.064-1.272-.219,0-.48.661-.9,1.208a5.823,5.823,0,0,1-4.3,2.188h-2.566a1.273,1.273,0,0,1-1.434-1.434V358.5h3.245c2.455,0,1.627,2.868,2.34,2.868.75,0,.374-.665.377-1.433,0-.594-.074-1.057-.074-1.737,0-.761.056-1.252.073-1.964.009-.381.107-.506.09-.911-.021-.507-.172-.37-.691-.37a7.8,7.8,0,0,1-.476,1.864,1.6,1.6,0,0,1-1.562.853h-3.321v-5.359c0-1.846,1.626-1.51,3.547-1.51a4.262,4.262,0,0,1,2.859.839c1.1.818,1.2,2.255,1.518,2.255.535,0,.539-.207.408-.628-.12-.386-.185-.672-.288-1.078a17.566,17.566,0,0,1-.422-2.295c-2.029,0-4.48.142-6.492.152-.6,0-.939-.078-1.584-.076l-2.493,0c-.372-.011-.377-.069-.75-.08-.624-.019-1.512-.124-1.512.229Z" transform="translate(-1805.082 -336.686)" fill="#508eb7" fill-rule="evenodd"/>
        <path id="Path_109112" data-name="Path 109112" d="M3680.354,344.4h.151a13.084,13.084,0,0,0,.481,1.482l1.557,4.556h-4.377l1.652-4.462A8.521,8.521,0,0,0,3680.354,344.4Zm-8.226,12.981c-.261,1.122.489.528,2.868.528.3,0,.614-.011.908,0,.389.012.462.081.9.079,1.13,0,1.511.386,1.511-.454,0-.431-.461-.069-1.331-.4-1.471-.568-.494-2.063,0-3.491l.785-2.159c.085-.157.014-.209.243-.209h4.679c.252,0,.117-.084.325.505a28.579,28.579,0,0,1,1.411,4.627c0,.475-.4.671-.812.773-1.3.325-1.3-.188-1.3.661,0,.432.912.147,1.813.152l5.136.072c.985.1.737-.4.673-.678a4.3,4.3,0,0,1-2.247-.848c-.983-.92-1.548-3-2.009-4.331l-3.356-9.323c-.242-.647-.622-2.178-.992-2.178-.539,0-.384-.023-.8,1.014-.164.411-.3.707-.464,1.121l-4.647,11.428a7.737,7.737,0,0,1-1.086,2.084c-.694.86-1.048.761-2.213,1.032Z" transform="translate(-3533.792 -327.868)" fill="#518fb8" fill-rule="evenodd"/>
        <path id="Path_109113" data-name="Path 109113" d="M5370.822,350.438c0,.33.364.313.622.359a5.719,5.719,0,0,1,.854.2,3.094,3.094,0,0,1,1.261.853,8.126,8.126,0,0,1,.916,1.2l2.052,3.232a23.119,23.119,0,0,1,1.993,3.29v4.981c0,1.3-.876,1.473-1.878,1.669-.583.114-.838-.053-.838.52,0,.537.98.221,1.813.228.464,0,.583-.067.977-.079l4.235.152c.669.064.749-.049.749-.451,0-.434-.606-.252-1.5-.536-.535-.17-.988-.4-.988-1.125v-5.51a8.273,8.273,0,0,1,.83-1.283l2.656-3.835c.8-1.175,1.854-2.946,3.086-3.328,1.067-.331,1.5-.039,1.5-.686,0-.58-1.729.049-3.331-.139-.446-.052-1.1-.05-1.5-.083-.49-.04-1.148,0-1.656,0a2.058,2.058,0,0,0,0,.679c.638,0,2.179.227,1.984,1.226a8.611,8.611,0,0,1-1.245,2.156l-2.038,3.019a5.881,5.881,0,0,0-.664,1.072c-.209-.056-.217-.114-.321-.283l-2.878-4.518c-.823-1.23-1.451-2.1-.106-2.5.96-.289.966.014.966-.619,0-.293-.194-.226-.68-.226a13.393,13.393,0,0,0-1.681.055,6.627,6.627,0,0,1-.887.018c-.394,0-.538.083-.824.075-.262-.008-.376-.074-.756-.075l-2.644-.073a1.1,1.1,0,0,0-.075.377Z" transform="translate(-5168.561 -336.853)" fill="#518fb8" fill-rule="evenodd"/>
        <path id="Path_109114" data-name="Path 109114" d="M4581.221,350.549c0,.75,2.716-.1,2.716,1.962v12.3c0,1.155-1.053,1.369-1.942,1.529-.334.061-.775-.029-.775.433,0,.592.678.3,1.129.3.527-.007,1.062.006,1.591.006s.9-.079,1.507-.078c1.4,0,5.28-.047,6.274.064l2.933.087c.211-.906.343-2.216.648-3.427.287-1.133.5-1.4-.271-1.4-.259,0-.206.194-.426.63a10.281,10.281,0,0,1-1.252,1.918c-1.49,1.6-3.087,1.3-5.416,1.3a1.259,1.259,0,0,1-1.434-1.283v-12.3a1.274,1.274,0,0,1,.936-1.4c1.371-.548,1.953.049,1.706-1.012a13.887,13.887,0,0,0-2.006.032H4583.3a13.954,13.954,0,0,0-2.007-.032,1.1,1.1,0,0,0-.075.377Z" transform="translate(-4408.696 -336.964)" fill="#518fb8" fill-rule="evenodd"/>
        <path id="Path_109115" data-name="Path 109115" d="M4182.42,350.846c0,.822.434.255,1.782.783a1.373,1.373,0,0,1,.936,1.481v11.849c0,2.411-2.718,1.419-2.718,2.189,0,.748.155.37,1.282.376.519,0,1.073.019,1.589,0,.545-.016.534-.078,1.507-.078,1.379,0,5.069-.046,6.048.064.422.047,1.054.011,1.5.011l1.434.075.723-3.579c.107-.5.276-.777.184-1.175-1.251-.291-.416.623-2.208,2.472-.1.106-.153.175-.252.276-1.28,1.3-3.289,1.025-5.163,1.025-1.071,0-1.434-.6-1.434-1.66v-11.4c0-.92.1-1.492.727-1.839,1.149-.642,1.99.015,1.99-.878,0-.268-.147-.226-.453-.226l-2.643.074c-.4,0-.564.066-.833.073-.284.008-.431-.074-.823-.075l-2.946-.073c-.174,0-.227.053-.227.226Z" transform="translate(-4024.914 -337.412)" fill="#508eb7" fill-rule="evenodd"/>
        <path id="Path_109116" data-name="Path 109116" d="M1048.04,287.876l4.716,2.7a7.062,7.062,0,0,0,1.624.849,26.067,26.067,0,0,0,2.42-1.334c.265-.14.218-.009.3-.306l-9.057-5.208v3.3Z" transform="translate(-1008.572 -273.863)" fill="#f16122" fill-rule="evenodd"/>
        <path id="Path_109117" data-name="Path 109117" d="M802.662,688.473l-3.151-1.883c-.5-.294-1.053-.617-1.581-.911a6.722,6.722,0,0,0-1.607-.83,1.656,1.656,0,0,0-.683.318,17.718,17.718,0,0,0-2.109,1.287l9.132,5.208v-3.189Z" transform="translate(-763.647 -659.059)" fill="#f16122" fill-rule="evenodd"/>
        <path id="Path_109118" data-name="Path 109118" d="M1048.04,688.36v3.274c1.618-.856,3.991-2.29,5.656-3.249.375-.216.762-.427,1.151-.66a22.673,22.673,0,0,1,2.325-1.3,20.857,20.857,0,0,0-2.59-1.558.425.425,0,0,0-.2-.048c-.412-.006-5.615,3.252-6.339,3.54Z" transform="translate(-1008.572 -659.03)" fill="#f16122" fill-rule="evenodd"/>
        <path id="Path_109119" data-name="Path 109119" d="M798.237,291.44c.317-.055,2.682-1.479,3.147-1.752,1.082-.632,2.14-1.185,3.192-1.863V284.58l-5.07,2.93c-.532.322-3.8,2.1-3.986,2.353Z" transform="translate(-765.562 -273.863)" fill="#f16122" fill-rule="evenodd"/>
        <path id="Path_109120" data-name="Path 109120" d="M3068.131,897.1h1.132l.151-4.6a5.779,5.779,0,0,0,.227,1.131c.1.394.163.745.258,1.176.085.387.18.778.251,1.108a10.448,10.448,0,0,1,.245,1.188h1.208c.1-.218,1.056-4.422,1.056-4.755l.076,4.755h1.207v-6.037c-2.2,0-1.77-.287-2.068,1.027l-.876,3.577-.522-2.346c-.088-.424-.166-.719-.265-1.169-.3-1.4.107-1.088-2.081-1.088V897.1Z" transform="translate(-2952.587 -857.48)" fill="#828387" fill-rule="evenodd"/>
        <path id="Path_109121" data-name="Path 109121" d="M790.319,445.71l-.014-7.245a24.282,24.282,0,0,0-2.795-1.585v10.49c.454-.24.929-.517,1.391-.8a12.279,12.279,0,0,0,1.418-.863Z" transform="translate(-757.853 -420.427)" fill="#f16122" fill-rule="evenodd"/>
        <path id="Path_109122" data-name="Path 109122" d="M1222.38,438.475v7.245c.075.142,2.619,1.568,2.793,1.66V436.89a21.262,21.262,0,0,0-2.793,1.585Z" transform="translate(-1176.347 -420.437)" fill="#f36223" fill-rule="evenodd"/>
        <path id="Path_109123" data-name="Path 109123" d="M4875.82,897.858h1.208V893.1l1.132,4.755h1.208c.058-.7.968-4.009.981-4.6l.151,4.6h1.132V891.82h-1.811l-.749,3.327a5.808,5.808,0,0,0-.233,1.2h-.15c-.012-.531-.97-4.006-.981-4.528h-1.887v6.038Z" transform="translate(-4692.201 -858.235)" fill="#828387" fill-rule="evenodd"/>
        <path id="Path_109124" data-name="Path 109124" d="M4673.4,897.468h1.132l.151-4.6.483,2.31c.1.376.183.78.253,1.106a10.128,10.128,0,0,1,.245,1.189h1.208l1.132-4.755v4.755h1.208V891.43c-2.036,0-1.812-.138-1.924.415l-.687,3.01a5.442,5.442,0,0,1-.332,1.177l-.514-2.279c-.2-.787-.365-1.561-.542-2.325H4673.4v6.037Z" transform="translate(-4497.404 -857.845)" fill="#828387" fill-rule="evenodd"/>
        <path id="Path_109125" data-name="Path 109125" d="M851.64,37.384c0,1.524.3,2.691,1.733,3.4a3.4,3.4,0,0,0,1.88.215c.806-.1.952-.567,1.444-.9.079.95.071.755,1.057.755V37.383h-2.717V38.44h1.434c-.045,2.02-3.4,1.875-3.4-.3v-.906c0-2.431,3.12-2.416,3.245-.906h1.358c0-2.9-6.038-3.268-6.038,1.057Z" transform="translate(-819.568 -32.855)" fill="#818286" fill-rule="evenodd"/>
        <path id="Path_109126" data-name="Path 109126" d="M2001.13,40.938h-1.811v-1.66h1.811a.742.742,0,0,1,.679.83C2001.809,40.579,2001.593,40.938,2001.13,40.938Zm-3.17,3.7h1.358V42.07c1.977,0,2.359-.23,2.339,1.662-.014,1.285-.061.9,1.661.9-.09-.336-.264-.242-.3-.755-.025-.334.017-.719,0-1.058-.049-1.06-.523-1.039-.756-1.357,1.212-.282,1.645-3.4-1.283-3.4h-3.019v6.566Z" transform="translate(-1922.719 -36.636)" fill="#828387" fill-rule="evenodd"/>
        <path id="Path_109127" data-name="Path 109127" d="M1077.26,40.043h-1.811v-1.66c1.268,0,2.491-.279,2.491.83A.742.742,0,0,1,1077.26,40.043Zm-3.17,3.7h1.283V41.4c0-.36.505-.226,1.434-.226.652,0,.894.248.907.9.011.555.107,1.152.15,1.662h1.585c-.1-.394-.28-.168-.306-.751-.015-.339.029-.711-.006-1.051-.122-1.2-.469-.957-.745-1.368.932-.217,1.371-1.979.247-2.964-.742-.65-3.248-.432-4.549-.432v6.566Z" transform="translate(-1033.641 -35.741)" fill="#828387" fill-rule="evenodd"/>
        <path id="Path_109128" data-name="Path 109128" d="M3275.051,896.319h-1.283v-1.585c1.5,0,2.415-.24,2.415.83,0,.561-.559.755-1.132.755Zm.377-2.641h-1.661v-1.283c.567,0,2.264-.122,2.264.453C3276.032,893.223,3276.078,893.678,3275.428,893.678Zm-2.868,3.7c.938,0,3.42.105,4.077-.3,1.166-.72,1.058-2.622,0-2.869v-.151c.756-.2.951-1.861-.1-2.462-.662-.377-3.062-.255-3.972-.255Z" transform="translate(-3149.319 -857.753)" fill="#828387" fill-rule="evenodd"/>
        <path id="Path_109129" data-name="Path 109129" d="M1272.5,44.646h4.981V43.514h-3.623V41.778h3.17V40.646h-3.17V39.287h3.472V38.08h-4.83Z" transform="translate(-1224.579 -36.646)" fill="#818286" fill-rule="evenodd"/>
        <path id="Path_109130" data-name="Path 109130" d="M1811.59,44.655h4.981V43.523h-3.4c-.383,0-.226-.693-.226-1.736h3.17V40.656h-3.17V39.3h3.472V38.09h-4.83v6.566Z" transform="translate(-1743.367 -36.656)" fill="#828387" fill-rule="evenodd"/>
        <path id="Path_109131" data-name="Path 109131" d="M1447.946,39.669c0,.011.012.018.016.044l.8,2.443h-1.66Zm-3.106,4.977h1.509a5.827,5.827,0,0,1,.453-1.358h2.34a9.208,9.208,0,0,1,.377,1.358h1.509c-.03-.361-1.442-4.275-1.682-4.884l-.582-1.682h-1.585l-1.444,4.065c-.089.267-.186.575-.292.84l-.6,1.66Z" transform="translate(-1390.429 -36.646)" fill="#818286" fill-rule="evenodd"/>
        <path id="Path_109132" data-name="Path 109132" d="M3622.062,893.824h-1.585v-1.585c1.354,0,2.264-.206,2.264.906A.638.638,0,0,1,3622.062,893.824Zm-2.792,3.4h1.207v-2.339c2.275,0,2.038-.179,2.112,1.586.031.715.1.731.371.761s.842-.007,1.139-.007c-.035-.418-.183-.2-.227-.679-.05-.548.179-1.914-.678-2.114v-.151c.955-.255,1.166-1.985.165-2.731-.708-.528-2.978-.363-4.089-.363v6.037Z" transform="translate(-3482.972 -857.598)" fill="#828387" fill-rule="evenodd"/>
        <path id="Path_109133" data-name="Path 109133" d="M4480.19,893.008c-.642,0-1.078.081-1.529-.585-.653-.966-.6-3.566,1.227-3.566,2.21,0,1.936,4.151.3,4.151Zm-3.17-2.189c0,1.876.85,3.321,2.792,3.321,1.985,0,2.943-1.274,2.943-3.245a2.874,2.874,0,1,0-5.736-.075Z" transform="translate(-4308.419 -854.366)" fill="#828387" fill-rule="evenodd"/>
        <path id="Path_109134" data-name="Path 109134" d="M5251.374,893.827h-1.585v-1.585c1.8,0,2.265-.169,2.265,1.057C5252.053,893.573,5251.685,893.827,5251.374,893.827Zm-2.792,3.4h1.207v-2.339c2.965,0,1.719,0,2.265,2.339h1.358c-.035-.418-.183-.2-.227-.679a4.4,4.4,0,0,0-.194-1.768c-.191-.342-.275-.184-.484-.5.9-.24,1.234-1.932.165-2.731-.706-.527-2.98-.363-4.089-.363v6.038Z" transform="translate(-5050.924 -857.601)" fill="#828387" fill-rule="evenodd"/>
        <path id="Path_109135" data-name="Path 109135" d="M3874.96,893.007h-.6c-.663,0-1.283-.879-1.283-1.585,0-.932-.036-2.566,1.585-2.566,1.834,0,1.8,2.635,1.283,3.472a1.4,1.4,0,0,1-.981.679Zm-3.17-2.189c0,1.887.827,3.321,2.793,3.321a2.728,2.728,0,0,0,2.171-.848c1.339-1.441,1.113-5.492-1.945-5.492A2.719,2.719,0,0,0,3871.79,890.819Z" transform="translate(-3725.982 -854.366)" fill="#828387" fill-rule="evenodd"/>
        <path id="Path_109136" data-name="Path 109136" d="M5605.31,897.848h4.528v-1.132h-3.245v-1.509h2.868V894.15h-2.868v-1.283h3.094V891.81h-4.377Z" transform="translate(-5394.219 -858.225)" fill="#838488" fill-rule="evenodd"/>
        <path id="Path_109137" data-name="Path 109137" d="M5082.25,897.848h4.528v-1.132h-3.321v-1.509h2.868V894.15h-2.868v-1.283h3.17V891.81h-4.377Z" transform="translate(-4890.857 -858.225)" fill="#828387" fill-rule="evenodd"/>
        <path id="Path_109138" data-name="Path 109138" d="M3452.93,897.848h4.453v-1.132h-3.245v-1.509h2.868V894.15h-2.868v-1.283h3.17V891.81h-4.377Z" transform="translate(-3322.896 -858.225)" fill="#828387" fill-rule="evenodd"/>
        <path id="Path_109139" data-name="Path 109139" d="M2711.42,897.858h1.208V895.14h2.34v2.717h1.207V891.82h-1.207v2.113c0,.174-.053.227-.227.227h-1.887c-.174,0-.226-.053-.226-.227V891.82h-1.208v6.038Z" transform="translate(-2609.311 -858.235)" fill="#818286" fill-rule="evenodd"/>
        <path id="Path_109140" data-name="Path 109140" d="M2882.333,893.335a2.59,2.59,0,0,1,.1-.285c.127-.252.044-.1.145-.219l.673,2.185L2881.8,895Zm-2.582,3.981h1.283c.068-.293.3-1.283.6-1.283,2.369,0,1.915-.149,2.142.575a2.89,2.89,0,0,1,.2.708h1.359a22.371,22.371,0,0,0-.764-2.331l-.812-2.282c-.572-1.732-.32-1.424-1.745-1.424-.267,0-.312.355-.388.593l-1.37,3.838a8.487,8.487,0,0,0-.506,1.607Z" transform="translate(-2771.302 -857.693)" fill="#828387" fill-rule="evenodd"/>
        <path id="Path_109141" data-name="Path 109141" d="M4296.64,892.9c0,3.488,3.2,3.7,4.436,2.548a1.784,1.784,0,0,0,.522-.685,6.872,6.872,0,0,0,.325-.883h-1.283c-.387,1.662-2.717,1.4-2.717-.83,0-2.7,2.346-2.727,2.717-1.132h1.283a2.3,2.3,0,0,0-2.34-2.113,2.475,2.475,0,0,0-2.3.949,3.524,3.524,0,0,0-.647,2.145Z" transform="translate(-4134.833 -856.301)" fill="#828387" fill-rule="evenodd"/>
        <path id="Path_109142" data-name="Path 109142" d="M2525.04,892.9c0,3.732,3.83,3.973,4.958,1.863.18-.336.191-.6.325-.882h-1.283c-.309.644-.323,1.057-1.359,1.057-1.888,0-1.748-4.075,0-4.075a1.215,1.215,0,0,1,1.359,1.057h1.283a2.32,2.32,0,0,0-2.34-2.113,2.433,2.433,0,0,0-2.3.947,3.409,3.409,0,0,0-.645,2.148Z" transform="translate(-2429.949 -856.3)" fill="#828387" fill-rule="evenodd"/>
        <path id="Path_109143" data-name="Path 109143" d="M5418.93,892.9c0,3.732,3.83,3.973,4.958,1.863.18-.336.191-.6.325-.882h-1.283c-.309.644-.323,1.057-1.358,1.057-1.888,0-1.748-4.075,0-4.075a1.214,1.214,0,0,1,1.358,1.057h1.283a2.32,2.32,0,0,0-2.339-2.113,2.434,2.434,0,0,0-2.3.947,3.412,3.412,0,0,0-.645,2.148Z" transform="translate(-5214.858 -856.3)" fill="#828387" fill-rule="evenodd"/>
        <path id="Path_109144" data-name="Path 109144" d="M1156.816,486.215V478.97a.98.98,0,0,0-.2.091l-1.12.631c-.435.264-.817.483-1.25.712v4.377C1154.769,485.056,1156.335,486.055,1156.816,486.215Z" transform="translate(-1110.782 -460.932)" fill="#fbb74a" fill-rule="evenodd"/>
        <path id="Path_109145" data-name="Path 109145" d="M861.734,486.206a10.2,10.2,0,0,0,1.263-.683c.419-.24.851-.52,1.287-.751v-4.378c-.438-.232-.805-.459-1.257-.705-.231-.126-.409-.23-.626-.355a3.344,3.344,0,0,0-.681-.374l.014,7.245Z" transform="translate(-829.269 -460.923)" fill="#fbb74a" fill-rule="evenodd"/>
        <path id="Path_109146" data-name="Path 109146" d="M1048.04,648.413c.724-.288,5.927-3.546,6.339-3.54a22.953,22.953,0,0,0-2.566-1.564l-.882.552c-.349.194-.621.341-.962.548-.655.4-1.265.738-1.929,1.089v2.915Z" transform="translate(-1008.572 -619.083)" fill="#fbb74a" fill-rule="evenodd"/>
        <path id="Path_109147" data-name="Path 109147" d="M867.66,644.875a6.717,6.717,0,0,1,1.607.83c.528.294,1.084.616,1.581.911L874,648.5v-2.923c-.408-.355-2.939-1.68-3.563-2.1a2.051,2.051,0,0,1-.211-.167c-.4.265-.877.5-1.287.751a6.051,6.051,0,0,0-1.279.814Z" transform="translate(-834.985 -619.083)" fill="#fbb74a" fill-rule="evenodd"/>
        <path id="Path_109148" data-name="Path 109148" d="M867.67,374.384l2.316,1.4c.293.156.336.064.812-.226l3.212-1.844V370.77c-1.052.678-2.111,1.231-3.192,1.863-.466.272-2.83,1.7-3.147,1.752Z" transform="translate(-834.995 -356.807)" fill="#fbb74a" fill-rule="evenodd"/>
        <path id="Path_109149" data-name="Path 109149" d="M1054.37,375.662a7.059,7.059,0,0,1-1.624-.849l-4.716-2.7V375l3.166,1.815c.835.482.6.394,2.375-.652.162-.1.228-.119.39-.213l.408-.291Z" transform="translate(-1008.563 -358.097)" fill="#fbb74a" fill-rule="evenodd"/>
        <path id="Path_109150" data-name="Path 109150" d="M1625.21,39.287h1.962v5.359h1.358V39.287h1.963V38.08h-5.283Z" transform="translate(-1564.006 -36.646)" fill="#828387" fill-rule="evenodd"/>
        <path id="Path_109151" data-name="Path 109151" d="M4068.18,899.782h1.283v-2.566h2.641v-.981h-2.641V894.8h3.019v-.981h-4.3Z" transform="translate(-3914.976 -860.159)" fill="#828387" fill-rule="evenodd"/>
        <path id="Path_109152" data-name="Path 109152" d="M2934.26,935.219l1.448.015-.673-2.185c-.1.115-.018-.032-.145.219a2.633,2.633,0,0,0-.1.285Z" transform="translate(-2823.758 -897.912)" fill="#fefefe" fill-rule="evenodd"/>
      </g>
    </g>
  </g>
</svg>
