<svg xmlns="http://www.w3.org/2000/svg" xmlns:xlink="http://www.w3.org/1999/xlink" width="220" height="60" viewBox="0 0 220 60">
  <defs>
    <clipPath id="clip-_01">
      <rect width="220" height="60"/>
    </clipPath>
  </defs>
  <g id="_01" data-name="01" clip-path="url(#clip-_01)">
    <rect width="220" height="60" fill="#fff"/>
    <g id="microsoft_1_" data-name="microsoft (1)" transform="translate(10 9)">
      <path id="Path_114372" data-name="Path 114372" d="M431.32,47.143V43.625h-4.368V38.157l-.147.045-4.1,1.255-.081.025v4.143h-6.475V41.317a3.666,3.666,0,0,1,.714-2.446,2.518,2.518,0,0,1,2-.817,4.662,4.662,0,0,1,1.9.432l.161.072v-3.7l-.076-.028a7.4,7.4,0,0,0-2.426-.324,7.111,7.111,0,0,0-3.441.827,5.882,5.882,0,0,0-2.361,2.334,6.959,6.959,0,0,0-.836,3.425v2.538h-3.041v3.517h3.041V61.96h4.366V47.143h6.475v9.416c0,3.878,1.829,5.843,5.437,5.843a8.919,8.919,0,0,0,1.854-.205,5.121,5.121,0,0,0,1.35-.428l.057-.034v-3.55l-.178.117a3.058,3.058,0,0,1-.878.383,3.336,3.336,0,0,1-.862.147,2.339,2.339,0,0,1-1.858-.677,3.646,3.646,0,0,1-.591-2.356V47.143h4.368Zm-32.331,11.69a4.632,4.632,0,0,1-3.715-1.561,6.627,6.627,0,0,1-1.335-4.408,6.888,6.888,0,0,1,1.335-4.525,4.558,4.558,0,0,1,3.679-1.585,4.489,4.489,0,0,1,3.582,1.516,6.754,6.754,0,0,1,1.308,4.488,7.2,7.2,0,0,1-1.23,4.543,4.379,4.379,0,0,1-3.624,1.531m.194-15.649a9.576,9.576,0,0,0-7.137,2.633A9.874,9.874,0,0,0,389.468,53a9.35,9.35,0,0,0,2.517,6.862,9.132,9.132,0,0,0,6.756,2.535,9.314,9.314,0,0,0,7-2.67,9.847,9.847,0,0,0,2.578-7.117A9.606,9.606,0,0,0,405.9,45.7a8.909,8.909,0,0,0-6.713-2.519m-16.755,0a7.893,7.893,0,0,0-5.057,1.563,4.988,4.988,0,0,0-1.971,4.068,5.692,5.692,0,0,0,.425,2.274,4.568,4.568,0,0,0,1.3,1.7,11.354,11.354,0,0,0,2.654,1.485,19.772,19.772,0,0,1,2.207,1.028,3.068,3.068,0,0,1,.972.8,1.791,1.791,0,0,1,.27,1.039c0,1.232-.922,1.831-2.821,1.831a7.754,7.754,0,0,1-2.387-.437,8.966,8.966,0,0,1-2.444-1.239l-.181-.13v4.2l.067.031a10.815,10.815,0,0,0,2.315.715,12.416,12.416,0,0,0,2.472.286,8.381,8.381,0,0,0,5.34-1.572,5.085,5.085,0,0,0,1.988-4.164,4.789,4.789,0,0,0-1.07-3.15,9.169,9.169,0,0,0-3.634-2.314,9.37,9.37,0,0,1-2.589-1.346,1.884,1.884,0,0,1-.522-1.412,1.574,1.574,0,0,1,.663-1.306,2.978,2.978,0,0,1,1.858-.524,7.606,7.606,0,0,1,2.212.34,7.108,7.108,0,0,1,1.932.9l.178.122V43.983l-.068-.029a9.525,9.525,0,0,0-1.961-.547,11.974,11.974,0,0,0-2.151-.223m-18.41,15.649a4.631,4.631,0,0,1-3.714-1.561,6.625,6.625,0,0,1-1.334-4.408A6.887,6.887,0,0,1,360.3,48.34a4.555,4.555,0,0,1,3.678-1.585,4.489,4.489,0,0,1,3.582,1.516,6.753,6.753,0,0,1,1.308,4.488,7.2,7.2,0,0,1-1.231,4.543,4.378,4.378,0,0,1-3.624,1.531m.195-15.649a9.574,9.574,0,0,0-7.137,2.633A9.874,9.874,0,0,0,354.5,53a9.349,9.349,0,0,0,2.518,6.862,9.131,9.131,0,0,0,6.756,2.535,9.315,9.315,0,0,0,7-2.67,9.848,9.848,0,0,0,2.578-7.117,9.6,9.6,0,0,0-2.419-6.913,8.909,8.909,0,0,0-6.712-2.519M347.869,46.8V43.625h-4.313V61.96h4.313V52.581a6.537,6.537,0,0,1,1.075-3.895,3.3,3.3,0,0,1,2.789-1.473,5.064,5.064,0,0,1,1.3.191,3.281,3.281,0,0,1,1.006.407l.181.131V43.594l-.07-.03a4.465,4.465,0,0,0-1.689-.257,4.419,4.419,0,0,0-2.884,1.034,5.842,5.842,0,0,0-1.659,2.459Zm-12.036-3.617a10.646,10.646,0,0,0-5.245,1.261A8.495,8.495,0,0,0,327.129,48a11.328,11.328,0,0,0-1.188,5.269,9.72,9.72,0,0,0,1.155,4.723,8.114,8.114,0,0,0,3.227,3.263,9.607,9.607,0,0,0,4.715,1.146,10.323,10.323,0,0,0,5.2-1.218l.057-.033V57.2l-.181.132a8.108,8.108,0,0,1-2.11,1.1,6.376,6.376,0,0,1-2.067.4,5.311,5.311,0,0,1-4.037-1.574,6.121,6.121,0,0,1-1.489-4.36,6.349,6.349,0,0,1,1.552-4.475,5.282,5.282,0,0,1,4.045-1.669,6.927,6.927,0,0,1,4.106,1.428l.181.131V44.15l-.058-.033a7.117,7.117,0,0,0-2-.675,11.919,11.919,0,0,0-2.411-.259m-12.862.442h-4.313V61.96h4.313Zm-2.112-7.811a2.6,2.6,0,0,0-1.838.72,2.377,2.377,0,0,0-.77,1.8,2.31,2.31,0,0,0,.762,1.763,2.627,2.627,0,0,0,1.846.7,2.66,2.66,0,0,0,1.854-.7,2.3,2.3,0,0,0,.772-1.764,2.423,2.423,0,0,0-.75-1.779,2.573,2.573,0,0,0-1.875-.74M310.1,42.273V61.96h4.4V36.376h-6.092l-7.743,19-7.514-19h-6.34V61.96h4.136V42.271h.142l7.935,19.689h3.121l7.811-19.687h.142Z" transform="translate(-231.321 -27.827)" fill="#706d6e"/>
      <path id="Path_114373" data-name="Path 114373" d="M20.289,20.289H0V0H20.289Z" fill="#f1511b"/>
      <path id="Path_114374" data-name="Path 114374" d="M136.077,20.289H115.788V0h20.289Z" transform="translate(-93.386)" fill="#80cc28"/>
      <path id="Path_114375" data-name="Path 114375" d="M20.288,136.117H0V115.828H20.288Z" transform="translate(0 -93.419)" fill="#00adef"/>
      <path id="Path_114376" data-name="Path 114376" d="M136.077,136.117H115.788V115.828h20.289Z" transform="translate(-93.386 -93.419)" fill="#fbbc09"/>
    </g>
  </g>
</svg>
