<svg xmlns="http://www.w3.org/2000/svg" xmlns:xlink="http://www.w3.org/1999/xlink" width="115" height="60" viewBox="0 0 115 60">
  <defs>
    <clipPath id="clip-_08">
      <rect width="115" height="60"/>
    </clipPath>
  </defs>
  <g id="_08" data-name="08" clip-path="url(#clip-_08)">
    <rect width="115" height="60" fill="#fff"/>
    <path id="ibm" d="M0,0V2.463H17.518V0ZM20,0V2.463H44.965A9.5,9.5,0,0,0,39.038,0ZM49.862,0V2.463h15.1L64.069,0ZM75.793,0l-.9,2.463H89.863V0ZM0,4.79V7.253H17.518V4.79Zm20,0v2.46H47.862a6.473,6.473,0,0,0-.893-2.46H20Zm29.862,0v2.46H66.621l-.83-2.46H49.862ZM74,4.793l-.83,2.46H89.863V4.793ZM5.034,9.58v2.467h7.587V9.58Zm20,0v2.467h7.587V9.58ZM40,9.58v2.467h7.587a8.393,8.393,0,0,0,.482-2.467Zm14.9,0v2.467H68.347l-.9-2.467Zm17.452,0-.9,2.467H84.966V9.58ZM5.034,14.374v2.463h7.587V14.374H5.034Zm20,0v2.463H44.413a8.307,8.307,0,0,0,2.137-2.463Zm29.862,0v2.463h7.587V15.466l.482,1.371h13.9l.517-1.371v1.371h7.587V14.374H70.724l-.756,2.086-.759-2.086ZM5.034,19.164v2.463h7.587V19.164Zm20,0v2.463H46.55a8.365,8.365,0,0,0-2.137-2.463Zm29.862,0v2.463h7.587V19.164Zm8.965,0,.918,2.463H75.2l.872-2.463Zm13.518,0v2.463h7.587V19.164ZM5.034,23.954v2.463h7.587V23.954Zm20,0v2.463h7.587V23.954Zm14.966,0v2.463h8.068a8.369,8.369,0,0,0-.482-2.463Zm14.9,0v2.463h7.587V23.954Zm10.687,0,.889,2.463h6.986l.9-2.463Zm11.795,0v2.463h7.587V23.954ZM.137,28.743V31.21H17.655V28.743Zm19.863,0V31.21H46.969a6.5,6.5,0,0,0,.893-2.467Zm30,0V31.21H62.483V28.743Zm17.311,0,.914,2.467h3.554l.858-2.467Zm10.069,0V31.21H90V28.743ZM.137,33.537V36H17.655V33.537Zm19.863,0V36H39.038a9.511,9.511,0,0,0,5.927-2.46Zm30,0V36H62.483V33.537Zm19.044,0,.879,2.456.151,0,.893-2.46Zm8.336,0V36H90V33.537Z" transform="translate(10 13)" fill="#1f70c1"/>
  </g>
</svg>
