<svg xmlns="http://www.w3.org/2000/svg" xmlns:xlink="http://www.w3.org/1999/xlink" width="185" height="60" viewBox="0 0 185 60">
  <defs>
    <clipPath id="clip-path">
      <rect id="Rectangle_7444" data-name="Rectangle 7444" width="185" height="60"/>
    </clipPath>
  </defs>
  <g id="_09" data-name="09" clip-path="url(#clip-path)">
    <rect id="Rectangle_7443" data-name="Rectangle 7443" width="185" height="60" fill="#fff"/>
    <g id="samsung-1" transform="translate(-6.258 -66.643)">
      <path id="Path_20891" data-name="Path 20891" d="M106.146,95.791a21.192,21.192,0,0,0-2.581-1.367,20.386,20.386,0,0,1-3.658-2.088,2.123,2.123,0,0,1-.493-2.423,1.514,1.514,0,0,1,1.549-.849s1.637.09,1.637,1.435v1.9h5.865l-.01-2.8s.451-4.577-6.909-4.778c0,0-5.789-.381-7.449,2.737,0,0-.651.7-.651,3.118v1.75a5.794,5.794,0,0,0,.965,3.321,7.625,7.625,0,0,0,2.02,1.795s2.917,1.57,4.667,2.47c0,0,1.767,1.009,1.535,2.613a1.731,1.731,0,0,1-1.851,1.581,1.629,1.629,0,0,1-1.56-1.686v-1.9H92.97v2.751s-.175,5.266,7.856,5.266c0,0,7.675.155,8.032-5.407V101a5.86,5.86,0,0,0-2.712-5.2ZM76.116,85.476,74.151,97.785h-.459l-1.875-12.2h-9.8l-.491,22.292h5.8l.07-16.794h.456l3.075,16.791h6.1L80.069,91.09h.4l.14,16.788h5.835l-.629-22.4h-9.7Zm-34.534.093-3.859,22.28h6.245l2.286-17.276h.51l2.286,17.276h6.244L51.438,85.569Zm131.045,9.915v3.287h1.6V102.3a1.6,1.6,0,1,1-3.2.118V90.212c0-1.257,1.591-1.325,1.591-1.325a1.489,1.489,0,0,1,1.536,1.5v1.856h5.88c.192-3.622-.53-4.5-.53-4.5-1.459-3.276-6.976-3.1-6.976-3.1-8.48,0-7.539,6.506-7.539,6.506v11.8c.182,6.1,8.537,5.482,8.679,5.477,3.717-.411,4.841-1.592,4.841-1.592a3.614,3.614,0,0,0,1.3-1.83,10.77,10.77,0,0,0,.369-2.591V95.485H172.63Zm-19.49,3.627h-.255l-5.967-13.629h-7.139v22.4h5.81l-.348-13.627h.26l6.181,13.627H158.6V85.48h-5.884l.42,13.631ZM125.591,102.3s.085,1.838-1.621,1.838a1.68,1.68,0,0,1-1.792-1.792L122.159,85.5h-6.37V102.21s-.654,6.326,8.274,6.326c0,0,7.759.092,7.759-6.035v-17h-6.228ZM29.432,95.791a20.963,20.963,0,0,0-2.58-1.367A19.993,19.993,0,0,1,23.2,92.335a2.123,2.123,0,0,1-.492-2.422,1.512,1.512,0,0,1,1.547-.849s1.638.085,1.638,1.435v1.9h5.868l-.011-2.8s.448-4.577-6.909-4.777a13.192,13.192,0,0,0-1.367.005s-4.457.24-6.051,2.684c-.009.019-.022.031-.031.048,0,0-.651.695-.651,3.118v1.75a5.786,5.786,0,0,0,.965,3.321,7.625,7.625,0,0,0,2.02,1.795s2.916,1.57,4.665,2.47c0,0,1.768,1.006,1.535,2.613a1.731,1.731,0,0,1-1.85,1.581,1.629,1.629,0,0,1-1.56-1.686v-1.9H16.26v2.753s-.175,5.266,7.856,5.266c0,0,7.672.155,8.034-5.407V101a5.867,5.867,0,0,0-2.718-5.208Z" transform="translate(0 0)" fill="#1528a0" fill-rule="evenodd"/>
    </g>
  </g>
</svg>
