<svg xmlns="http://www.w3.org/2000/svg" xmlns:xlink="http://www.w3.org/1999/xlink" width="214" height="60" viewBox="0 0 214 60">
  <defs>
    <radialGradient id="radial-gradient" cx="0.407" cy="-0.072" r="1.114" gradientTransform="translate(7.161) scale(1.374 1)" gradientUnits="objectBoundingBox">
      <stop offset="0" stop-color="#0da960"/>
      <stop offset="1" stop-color="#03914b"/>
    </radialGradient>
    <radialGradient id="radial-gradient-2" cx="0.627" cy="0.078" r="1.22" gradientTransform="translate(7.264) scale(1.277 1)" gradientUnits="objectBoundingBox">
      <stop offset="0" stop-color="#ffcd4d"/>
      <stop offset="1" stop-color="#f6c338"/>
    </radialGradient>
    <linearGradient id="linear-gradient" x1="-49.41" y1="-11.894" x2="-50.662" y2="-11.894" gradientUnits="objectBoundingBox">
      <stop offset="0" stop-color="#231f20" stop-opacity="0.2"/>
      <stop offset="1" stop-color="#f1f2f2" stop-opacity="0.251"/>
    </linearGradient>
    <radialGradient id="radial-gradient-3" cx="0.593" cy="1.072" r="1.114" gradientTransform="translate(-60.074 -32.983) rotate(180) scale(1.374 1)" gradientUnits="objectBoundingBox">
      <stop offset="0" stop-color="#4387fd"/>
      <stop offset="1" stop-color="#4683ea"/>
    </radialGradient>
    <radialGradient id="radial-gradient-4" cx="0.373" cy="0.922" r="1.22" gradientTransform="translate(-79.754 -45.868) rotate(180) scale(1.277 1)" gradientUnits="objectBoundingBox">
      <stop offset="0" stop-color="#e04a3f"/>
      <stop offset="1" stop-color="#cd372d"/>
    </radialGradient>
    <linearGradient id="linear-gradient-2" x1="-65.185" y1="-36.618" x2="-66.437" y2="-36.618" xlink:href="#linear-gradient"/>
    <clipPath id="clip-_02">
      <rect width="214" height="60"/>
    </clipPath>
  </defs>
  <g id="_02" data-name="02" clip-path="url(#clip-_02)">
    <rect width="214" height="60" fill="#fff"/>
    <g id="google-developers" transform="translate(10.001 10)">
      <g id="Group_19558" data-name="Group 19558" transform="translate(61.051 15.959)">
        <path id="Path_20881" data-name="Path 20881" d="M159.849,48.425q0,4.806-2.668,7.348t-7.687,2.542h-5.43V38.907h6a9.926,9.926,0,0,1,7.209,2.5A9.321,9.321,0,0,1,159.849,48.425Zm-3.345.106q0-6.97-6.518-6.969h-2.747V55.647h2.256Q156.5,55.647,156.5,48.532Zm11.963,10.049a7.1,7.1,0,0,1-5.357-2,7.588,7.588,0,0,1-1.932-5.5,8.326,8.326,0,0,1,1.792-5.656,6.189,6.189,0,0,1,4.925-2.057,6.053,6.053,0,0,1,4.594,1.765,6.751,6.751,0,0,1,1.686,4.859v1.686H164.39a4.822,4.822,0,0,0,1.156,3.286,4.021,4.021,0,0,0,3.066,1.148,11.309,11.309,0,0,0,2.423-.246,12.721,12.721,0,0,0,2.41-.816v2.535a9.563,9.563,0,0,1-2.31.77A14.169,14.169,0,0,1,168.466,58.581ZM167.9,45.73a3.133,3.133,0,0,0-2.383.943,4.49,4.49,0,0,0-1.068,2.747h6.665a4.063,4.063,0,0,0-.876-2.755A3,3,0,0,0,167.9,45.73Zm11.538,12.585-5.575-14.682h3.293l2.987,8.536a16.94,16.94,0,0,1,.929,3.478h.106a23.412,23.412,0,0,1,.929-3.478l2.988-8.536h3.318l-5.6,14.682Zm15.985.265a7.1,7.1,0,0,1-5.357-2,7.586,7.586,0,0,1-1.932-5.5,8.324,8.324,0,0,1,1.792-5.656,6.191,6.191,0,0,1,4.925-2.057,6.052,6.052,0,0,1,4.593,1.765,6.751,6.751,0,0,1,1.686,4.859v1.686h-9.784a4.824,4.824,0,0,0,1.155,3.286,4.022,4.022,0,0,0,3.066,1.148,11.306,11.306,0,0,0,2.423-.246,12.744,12.744,0,0,0,2.411-.816v2.535a9.575,9.575,0,0,1-2.31.77A14.173,14.173,0,0,1,195.418,58.581Zm-.571-12.85a3.134,3.134,0,0,0-2.383.943,4.493,4.493,0,0,0-1.068,2.747h6.665a4.066,4.066,0,0,0-.876-2.755A3,3,0,0,0,194.847,45.73Zm11.312,12.585H203.04V37.659h3.119Zm15.852-7.368a8.015,8.015,0,0,1-1.845,5.616,6.611,6.611,0,0,1-5.138,2.018,7.037,7.037,0,0,1-3.637-.929,6.129,6.129,0,0,1-2.429-2.668,9.083,9.083,0,0,1-.85-4.035,7.958,7.958,0,0,1,1.832-5.576,6.643,6.643,0,0,1,5.164-2,6.467,6.467,0,0,1,5.044,2.051A7.919,7.919,0,0,1,222.011,50.948Zm-10.686,0q0,5.085,3.757,5.085,3.717,0,3.717-5.085,0-5.031-3.744-5.032a3.192,3.192,0,0,0-2.847,1.3A6.623,6.623,0,0,0,211.325,50.948Zm20.087,7.633a5.143,5.143,0,0,1-4.328-2H226.9q.186,1.859.186,2.257v6.013h-3.119V43.633h2.522q.106.411.437,1.965h.16a4.886,4.886,0,0,1,4.381-2.231,5.1,5.1,0,0,1,4.282,1.991,8.978,8.978,0,0,1,1.533,5.589,8.991,8.991,0,0,1-1.56,5.616,5.143,5.143,0,0,1-4.308,2.018Zm-.756-12.664A3.241,3.241,0,0,0,227.941,47a5.642,5.642,0,0,0-.856,3.478v.465a6.867,6.867,0,0,0,.85,3.883,3.158,3.158,0,0,0,2.775,1.2,2.817,2.817,0,0,0,2.5-1.328,6.856,6.856,0,0,0,.876-3.784,6.618,6.618,0,0,0-.87-3.737,2.9,2.9,0,0,0-2.555-1.268Zm15.029,12.664a7.1,7.1,0,0,1-5.357-2,7.588,7.588,0,0,1-1.932-5.5,8.324,8.324,0,0,1,1.792-5.656,6.189,6.189,0,0,1,4.925-2.057,6.054,6.054,0,0,1,4.593,1.765,6.755,6.755,0,0,1,1.686,4.859v1.686h-9.783a4.824,4.824,0,0,0,1.155,3.286,4.023,4.023,0,0,0,3.066,1.148,11.309,11.309,0,0,0,2.423-.246,12.744,12.744,0,0,0,2.41-.816v2.535a9.569,9.569,0,0,1-2.31.77A14.185,14.185,0,0,1,245.684,58.581Zm-.57-12.85a3.133,3.133,0,0,0-2.383.943,4.494,4.494,0,0,0-1.068,2.747h6.665a4.066,4.066,0,0,0-.876-2.755A3,3,0,0,0,245.114,45.73Zm15.639-2.363a7.55,7.55,0,0,1,1.554.132L262,46.406a5.914,5.914,0,0,0-1.381-.159,3.994,3.994,0,0,0-3.033,1.222,4.414,4.414,0,0,0-1.162,3.172v7.673h-3.119V43.633h2.443l.412,2.588h.159a5.809,5.809,0,0,1,1.9-2.084A4.522,4.522,0,0,1,260.753,43.367Zm12.508,10.766a3.84,3.84,0,0,1-1.567,3.3,7.5,7.5,0,0,1-4.487,1.148,10.581,10.581,0,0,1-4.712-.89V55a11.559,11.559,0,0,0,4.819,1.195q2.88,0,2.881-1.739a1.379,1.379,0,0,0-.319-.929,3.779,3.779,0,0,0-1.049-.77,18.162,18.162,0,0,0-2.031-.9,9.4,9.4,0,0,1-3.433-1.965,3.636,3.636,0,0,1-.9-2.549,3.346,3.346,0,0,1,1.521-2.927,7.219,7.219,0,0,1,4.136-1.042,11.706,11.706,0,0,1,4.9,1.049l-1.009,2.349a10.9,10.9,0,0,0-4-.982q-2.47,0-2.469,1.407a1.416,1.416,0,0,0,.644,1.169A14.238,14.238,0,0,0,269,49.673a12.834,12.834,0,0,1,2.641,1.288,3.851,3.851,0,0,1,1.221,1.348A3.9,3.9,0,0,1,273.261,54.134Z" transform="translate(-144.064 -37.659)" fill="#6c6d6d"/>
      </g>
      <path id="Path_20882" data-name="Path 20882" d="M225.736,11.843a3.48,3.48,0,0,1-1.435.292,2.611,2.611,0,0,1-2.152-1.362,3.5,3.5,0,0,1-.559-1.631c-.08-.909.144-1.958,1.169-2.216a1.34,1.34,0,0,1,1.59.869c.114.307.044.459-.232.57L221.644,9.4l.841.053c1.008-.418,2.129-.808,3.134-1.225.208-.088.226-.1.145-.324a2.633,2.633,0,0,0-3.478-1.332,3.2,3.2,0,0,0-1.9,2.934,3.17,3.17,0,0,0,3,3.324,3.291,3.291,0,0,0,1.853-.424c.108-.1.71-.589.721-.693C225.954,11.693,225.864,11.768,225.736,11.843Zm-6.52-.275c.017-2.471-.044-4.954.058-7.426a1.478,1.478,0,0,1,.118-.576,1.246,1.246,0,0,1,.453-.409H218c-.368.163-.7.417-1.051.6.373-.012.712-.006,1.081-.015-.159,2.483-.06,4.96-.072,7.536a1.4,1.4,0,0,1-.431,1.276c.791,0,1.543.015,2.336.015a4.4,4.4,0,0,0,.507-.428C219.493,12.162,219.231,12.243,219.217,11.568Z" transform="translate(-125.009 -1.819)" fill="#666"/>
      <path id="Path_20883" data-name="Path 20883" d="M175.845,6.805q-1.67-.015-3.339-.011a2.731,2.731,0,0,0-2.552,1.5A2.425,2.425,0,0,0,169.8,9.84a2.224,2.224,0,0,0,2.46,1.611c.119-.017.158-.053.093.054a1.067,1.067,0,0,0,.406,1.351,5.806,5.806,0,0,0-1.015.017c-1.319.156-2.784.837-2.707,2.26.056,1.107,1.176,1.921,2.943,1.922A3.693,3.693,0,0,0,175.3,15.6a2.1,2.1,0,0,0-.647-2.821c-.406-.3-1.112-.722-1.068-1.3a.787.787,0,0,1,.433-.568,2.167,2.167,0,0,0,.988-1.1,2.04,2.04,0,0,0-.023-1.42,2.293,2.293,0,0,0-.831-1.073h.9l.793-.511ZM173.6,13.513a1.709,1.709,0,0,1,.964,1.647c-.076.671-.723,1.2-1.818,1.26-1.177.073-2.755-.391-2.463-1.935.158-.823,1.251-1.245,2.147-1.274.256-.008.505.009.753.017C173.322,13.325,173.465,13.418,173.6,13.513Zm-.6-2.483c-.792.219-1.664-.4-1.943-1.5-.314-1.21.005-1.978.752-2.209.882-.278,1.825.521,2.039,1.825C174,10,173.78,10.813,173.008,11.03Zm-3.888-1.342a3.114,3.114,0,0,0-3.327-3.064,3.271,3.271,0,0,0-3.336,3.185,3.333,3.333,0,0,0,6.662-.122Zm-2.691,2.8c-1.115.252-2.3-.669-2.588-2.233-.326-1.721.208-2.854,1.258-3.133,1.246-.326,2.514.927,2.7,2.777C167.919,11.107,167.512,12.237,166.429,12.488Zm-7.9-5.864a3.292,3.292,0,0,0-3.378,3.185,3.371,3.371,0,0,0,6.738-.122,3.134,3.134,0,0,0-3.36-3.064Zm.639,5.864c-1.126.252-2.32-.669-2.616-2.233-.328-1.721.213-2.854,1.276-3.133,1.258-.326,2.538.927,2.725,2.777C160.67,11.107,160.261,12.237,159.163,12.488Zm-8.4-2.01,2.038-.06V12.18c0,.254,0,.289-.411.423a5.487,5.487,0,0,1-1.834.136,4.492,4.492,0,0,1-3.948-3.779,4.065,4.065,0,0,1,2.063-4.442,3.391,3.391,0,0,1,2.592-.223A3.99,3.99,0,0,1,152.9,5.313l-.334.6.627-.167.962-.99a6.246,6.246,0,0,0-6.309-.589,5.079,5.079,0,0,0-2.852,4.262,4.933,4.933,0,0,0,2.178,4.177c1.861,1.256,5.085.98,7.029,0l-.008-.181h.008v-2l.45-.533h-2.829Z" transform="translate(-83.545 -2.061)" fill="#666"/>
      <path id="Path_20884" data-name="Path 20884" d="M79.672,28.1a3.492,3.492,0,0,1,.08,3.063l6.027-10.039a3.492,3.492,0,0,0,0-3.261L76.039,1.631A3.755,3.755,0,0,0,73.155,0H64.664c-1.044,0-1.46.736-.922,1.631l6.065,10.1c.037.051.089.1.121.144L79.672,28.1Z" transform="translate(-36.594)" fill="url(#radial-gradient)"/>
      <path id="Path_20885" data-name="Path 20885" d="M64.7,63.253H73.2a3.738,3.738,0,0,0,2.884-1.632l3.714-6.183a3.5,3.5,0,0,0-.08-3.063L73.531,42.137a3.5,3.5,0,0,1,0,3.261L67.5,55.431c-.031.067-.046.146-.08.208L63.72,61.8c-.379.811.011,1.453.985,1.453Z" transform="translate(-36.635 -24.28)" fill="url(#radial-gradient-2)"/>
      <path id="Path_20886" data-name="Path 20886" d="M90.284,52.378,84.1,42.14a3.5,3.5,0,0,1,0,3.261l-2.178,3.628,8.441,6.411a3.491,3.491,0,0,0-.08-3.063Z" transform="translate(-47.206 -24.282)" fill="url(#linear-gradient)"/>
      <g id="Group_19559" data-name="Group 19559" transform="translate(-0.001)">
        <path id="Path_20887" data-name="Path 20887" d="M6.511,21.5a3.5,3.5,0,0,1-.077-3.063L.4,28.478a3.5,3.5,0,0,0,0,3.262L10.15,47.965A3.743,3.743,0,0,0,13.028,49.6h8.491c1.048,0,1.464-.735.926-1.632l-6.067-10.1c-.034-.052-.089-.1-.119-.145Z" transform="translate(0.001 -10.624)" fill="url(#radial-gradient-3)"/>
        <path id="Path_20888" data-name="Path 20888" d="M29.84,0H21.349a3.731,3.731,0,0,0-2.878,1.631L14.755,7.814a3.5,3.5,0,0,0,.077,3.063l6.187,10.24a3.5,3.5,0,0,1,0-3.262L27.046,7.822a1.623,1.623,0,0,1,.084-.209l3.7-6.16C31.207.643,30.814,0,29.84,0Z" transform="translate(-8.32 0)" fill="url(#radial-gradient-4)"/>
        <path id="Path_20889" data-name="Path 20889" d="M14.832,21.5l6.187,10.24a3.5,3.5,0,0,1,0-3.262L23.2,24.852l-8.441-6.414a3.5,3.5,0,0,0,.077,3.063Z" transform="translate(-8.32 -10.624)" fill="url(#linear-gradient-2)"/>
      </g>
    </g>
  </g>
</svg>
