<svg xmlns="http://www.w3.org/2000/svg" xmlns:xlink="http://www.w3.org/1999/xlink" width="94" height="60" viewBox="0 0 94 60">
  <defs>
    <clipPath id="clip-_03">
      <rect width="94" height="60"/>
    </clipPath>
  </defs>
  <g id="_03" data-name="03" clip-path="url(#clip-_03)">
    <rect width="94" height="60" fill="#fff"/>
    <g id="aws-2" transform="translate(8.332 10.051)">
      <path id="Path_20870" data-name="Path 20870" d="M31.793,17.08a7.4,7.4,0,0,0,.269,2.178,13.1,13.1,0,0,0,.783,1.762,1.064,1.064,0,0,1,.171.563.969.969,0,0,1-.465.734L31.01,23.345a1.173,1.173,0,0,1-.636.22,1.126,1.126,0,0,1-.734-.343,7.57,7.57,0,0,1-.881-1.15c-.245-.416-.489-.881-.759-1.444a9.04,9.04,0,0,1-7.195,3.377,6.705,6.705,0,0,1-4.894-1.762,6.286,6.286,0,0,1-1.811-4.7A6.3,6.3,0,0,1,16.327,12.5a8.9,8.9,0,0,1,6-1.909,19.376,19.376,0,0,1,2.594.2c.905.122,1.835.318,2.814.538V9.543a5.422,5.422,0,0,0-1.15-3.915C25.8,4.869,24.476,4.5,22.592,4.5a11.134,11.134,0,0,0-2.643.318,19.5,19.5,0,0,0-2.643.832,7.022,7.022,0,0,1-.857.318,1.5,1.5,0,0,1-.392.073c-.343,0-.514-.245-.514-.759v-1.2a1.548,1.548,0,0,1,.171-.857,1.832,1.832,0,0,1,.685-.514,14.089,14.089,0,0,1,3.083-1.1A14.837,14.837,0,0,1,23.3,1.149c2.912,0,5.041.661,6.412,1.982,1.346,1.321,2.031,3.328,2.031,6.02V17.08ZM21.858,20.8a7.931,7.931,0,0,0,2.521-.44A5.453,5.453,0,0,0,26.7,18.793a3.884,3.884,0,0,0,.832-1.566A8.785,8.785,0,0,0,27.78,15.1V14.07a20.436,20.436,0,0,0-2.251-.416,18.44,18.44,0,0,0-2.3-.147,5.642,5.642,0,0,0-3.646.979,3.411,3.411,0,0,0-1.2,2.814,3.158,3.158,0,0,0,3.475,3.5Zm19.651,2.643a1.366,1.366,0,0,1-.93-.245,2,2,0,0,1-.514-.954L34.314,3.327a4.287,4.287,0,0,1-.22-.979.537.537,0,0,1,.587-.612h2.4a1.357,1.357,0,0,1,.954.245,2,2,0,0,1,.489.954l4.111,16.2,3.818-16.2a1.717,1.717,0,0,1,.465-.954,1.683,1.683,0,0,1,.979-.245h1.958a1.473,1.473,0,0,1,.979.245,1.649,1.649,0,0,1,.465.954l3.867,16.4L59.4,2.935a2.1,2.1,0,0,1,.489-.954,1.6,1.6,0,0,1,.954-.245h2.276a.544.544,0,0,1,.612.612,2.441,2.441,0,0,1-.049.392,3.481,3.481,0,0,1-.171.612l-5.9,18.917a1.876,1.876,0,0,1-.514.954,1.566,1.566,0,0,1-.93.245h-2.1a1.473,1.473,0,0,1-.979-.245,1.735,1.735,0,0,1-.465-.979L48.825,6.459l-3.769,15.76a1.91,1.91,0,0,1-.465.979,1.517,1.517,0,0,1-.979.245Zm31.446.661a16.194,16.194,0,0,1-3.769-.44,11.133,11.133,0,0,1-2.814-.979A1.763,1.763,0,0,1,65.613,22a1.727,1.727,0,0,1-.147-.685V20.066c0-.514.2-.759.563-.759a1.386,1.386,0,0,1,.44.073c.147.049.367.147.612.245a13.311,13.311,0,0,0,2.692.857,14.7,14.7,0,0,0,2.912.294,6.6,6.6,0,0,0,3.573-.808,2.635,2.635,0,0,0,1.273-2.325,2.383,2.383,0,0,0-.661-1.713A6.14,6.14,0,0,0,74.4,14.657l-3.548-1.1a7.464,7.464,0,0,1-3.915-2.5,5.83,5.83,0,0,1-1.224-3.548A5.446,5.446,0,0,1,66.371,4.8a6.292,6.292,0,0,1,1.762-2.007,7.767,7.767,0,0,1,2.545-1.273A10.665,10.665,0,0,1,73.762,1.1a12.285,12.285,0,0,1,1.64.1c.563.073,1.077.171,1.591.269.489.122.954.245,1.395.392a5.341,5.341,0,0,1,1.028.44,2.116,2.116,0,0,1,.734.612,1.319,1.319,0,0,1,.22.808v1.15c0,.514-.2.783-.563.783a2.545,2.545,0,0,1-.93-.294,11.2,11.2,0,0,0-4.7-.954,6.316,6.316,0,0,0-3.255.685,2.363,2.363,0,0,0-1.15,2.178A2.311,2.311,0,0,0,70.507,9,7.31,7.31,0,0,0,73.2,10.35l3.475,1.1A7.443,7.443,0,0,1,80.467,13.8a5.538,5.538,0,0,1,1.126,3.426,6.291,6.291,0,0,1-.636,2.839,6.582,6.582,0,0,1-1.786,2.154,7.888,7.888,0,0,1-2.716,1.37,11.637,11.637,0,0,1-3.5.514Z" transform="translate(-9.39 0)" fill="#252f3e"/>
      <g id="Group_19557" data-name="Group 19557" transform="translate(1.668 28.531)">
        <path id="Path_20871" data-name="Path 20871" d="M68.19,125.152c-8.051,5.947-19.749,9.1-29.806,9.1A53.923,53.923,0,0,1,1.994,120.38c-.759-.685-.073-1.615.832-1.077A73.387,73.387,0,0,0,39.24,128.97a72.665,72.665,0,0,0,27.775-5.677C68.361,122.681,69.511,124.174,68.19,125.152Z" transform="translate(-1.668 -117.687)" fill="#f90" fill-rule="evenodd"/>
        <path id="Path_20872" data-name="Path 20872" d="M256.072,116.84c-1.028-1.321-6.8-.636-9.422-.318-.783.1-.905-.587-.2-1.1,4.6-3.23,12.162-2.3,13.043-1.224.881,1.1-.245,8.663-4.552,12.285-.661.563-1.3.269-1-.465C254.922,123.595,257.1,118.137,256.072,116.84Z" transform="translate(-186.198 -113.192)" fill="#f90" fill-rule="evenodd"/>
      </g>
    </g>
  </g>
</svg>
