<svg xmlns="http://www.w3.org/2000/svg" xmlns:xlink="http://www.w3.org/1999/xlink" width="210" height="60" viewBox="0 0 210 60">
  <defs>
    <clipPath id="clip-_04">
      <rect width="210" height="60"/>
    </clipPath>
  </defs>
  <g id="_04" data-name="04" clip-path="url(#clip-_04)">
    <rect width="210" height="60" fill="#fff"/>
    <g id="Page-1" transform="translate(-32 -47.675)">
      <g id="xamarin-logo" transform="translate(42 56)">
        <path id="Logo" d="M118.138,89.929,113.224,80.5,108.2,89.929h-5.4l7.664-12.17-6.9-12.095h5.48l4.475,9.189,4.849-9.189h5.012l-7.084,12.02,7.2,12.245Zm17.523,0V87.288h-.075A6.365,6.365,0,0,1,129.92,90.4a6.223,6.223,0,0,1-4.451-1.536,5.482,5.482,0,0,1-1.627-4.158q0-5.581,6.265-6.349l5.592-.768q0-3.914-3.628-3.914a10.488,10.488,0,0,0-6.359,2.135V71.986a12,12,0,0,1,3.1-1.18,14.992,14.992,0,0,1,3.7-.524q7.406,0,7.406,7.492V89.929h-4.264Zm-4.1-8.784a5.016,5.016,0,0,0-2.712.955,2.764,2.764,0,0,0-.767,2.154,2.494,2.494,0,0,0,.879,1.967,3.424,3.424,0,0,0,2.3.749,4.18,4.18,0,0,0,3.179-1.33,4.647,4.647,0,0,0,1.253-3.315V80.6l-4.133.543ZM167.5,89.929V79.1a7.4,7.4,0,0,0-.842-3.971,3.21,3.21,0,0,0-2.955-1.311,3.451,3.451,0,0,0-2.861,1.573,6.118,6.118,0,0,0-1.16,3.765V89.929h-4.32v-11.2q0-4.907-3.759-4.907a3.512,3.512,0,0,0-2.9,1.48,6.215,6.215,0,0,0-1.122,3.858V89.929h-4.32V70.75h4.32v2.959h.075a6.668,6.668,0,0,1,6.06-3.428,5.763,5.763,0,0,1,3.366,1.011,5.252,5.252,0,0,1,2.076,2.753,7.014,7.014,0,0,1,6.434-3.765q6.247,0,6.247,7.791V89.929Zm18.7,0V87.288h-.075A6.365,6.365,0,0,1,180.46,90.4a6.223,6.223,0,0,1-4.451-1.536,5.482,5.482,0,0,1-1.627-4.158q0-5.581,6.265-6.349l5.592-.768q0-3.914-3.628-3.914a10.488,10.488,0,0,0-6.359,2.135V71.986a12,12,0,0,1,3.1-1.18,14.992,14.992,0,0,1,3.7-.524q7.406,0,7.406,7.492V89.929H186.2Zm-4.1-8.784a5.015,5.015,0,0,0-2.712.955,2.764,2.764,0,0,0-.767,2.154,2.494,2.494,0,0,0,.879,1.967,3.424,3.424,0,0,0,2.3.749,4.18,4.18,0,0,0,3.179-1.33,4.647,4.647,0,0,0,1.253-3.315V80.6l-4.133.543Zm22.832-6.181a4.688,4.688,0,0,0-2.506-.656,3.619,3.619,0,0,0-3.048,1.611,7.017,7.017,0,0,0-1.16,4.2v9.814H193.9V70.75h4.32v3.727h.075q1.384-4.064,4.9-4.064a4.5,4.5,0,0,1,1.739.262v4.289Zm4.3-8.5a2.648,2.648,0,0,1-1.87-.712,2.365,2.365,0,0,1-.767-1.779,2.407,2.407,0,0,1,.767-1.817,2.758,2.758,0,0,1,3.759.019,2.47,2.47,0,0,1,0,3.577A2.673,2.673,0,0,1,209.238,66.461Zm-2.207,23.468V70.75h4.32V89.929Zm20.648,0V79.16q0-5.338-3.834-5.338a4.15,4.15,0,0,0-3.236,1.48,5.422,5.422,0,0,0-1.29,3.727v10.9H215V70.75h4.32v3.072h.075a6.777,6.777,0,0,1,6.209-3.54q6.4,0,6.4,7.866V89.929h-4.32ZM56.02,56a3.853,3.853,0,0,0-3.257,1.889l-10.275,17.9a3.9,3.9,0,0,0,0,3.778l10.275,17.9a3.853,3.853,0,0,0,3.257,1.889H76.569a3.853,3.853,0,0,0,3.258-1.889L90.1,79.564a3.9,3.9,0,0,0,0-3.778l-10.275-17.9A3.853,3.853,0,0,0,76.569,56Zm.186,10.47a.442.442,0,0,1,.086,0h3.544a.467.467,0,0,1,.387.231l6.013,10.744a.464.464,0,0,1,.057.173.464.464,0,0,1,.057-.173l6-10.744a.468.468,0,0,1,.4-.231H76.3a.486.486,0,0,1,.4.678L70.829,77.675,76.7,88.188a.486.486,0,0,1-.4.692H72.752a.469.469,0,0,1-.4-.245l-6-10.744a.464.464,0,0,1-.057-.173.463.463,0,0,1-.057.173L60.225,88.635a.468.468,0,0,1-.387.245H56.293a.486.486,0,0,1-.4-.692L61.76,77.675,55.891,67.147a.485.485,0,0,1,.316-.678Z" transform="translate(-42 -56)" fill="#3498db" fill-rule="evenodd"/>
      </g>
    </g>
  </g>
</svg>
