<svg xmlns="http://www.w3.org/2000/svg" xmlns:xlink="http://www.w3.org/1999/xlink" width="156" height="60" viewBox="0 0 156 60">
  <defs>
    <clipPath id="clip-univ_toronto">
      <rect width="156" height="60"/>
    </clipPath>
  </defs>
  <g id="univ_toronto" clip-path="url(#clip-univ_toronto)">
    <g id="UofT_Centered" transform="translate(-13.175 -171.579)">
      <path id="University_of_Toronto_Mark_Stacked" d="M156.446,199.788a9.538,9.538,0,0,1,9.685,9.637,10.069,10.069,0,0,1-9.966,9.825c-5.473,0-9.4-4.445-9.4-9.825a9.916,9.916,0,0,1,9.686-9.637m.984,18.247c3.508,0,5.706-3.461,5.706-6.784,0-5.286-3.041-10.247-7.579-10.247-3.6,0-5.8,3.182-5.8,6.878C149.755,212.748,152.563,218.035,157.43,218.035ZM137.969,200.21h-4c-1.731,0-3.041,0-4.118-.047-.983-.047-1.216-.281-1.357-.468h-.515c-.094.234-1.357,3.6-1.4,3.79l.608.374c.608-1.637,1.31-2.433,4.631-2.433a25.34,25.34,0,0,1,2.669.14c.186,2.385.232,4.724.232,7.111,0,1.5-.046,7.1-.232,8.318-.095.563-.376.828-1.918,1.11-.657.094-1.077.139-1.451.187l.141.757c.5-.046,1.1-.079,1.845-.125s1.663-.076,3.019-.076c.515,0,1.358-.034,2.153.013s1.5.049,2.48.094l.094-.783a8.443,8.443,0,0,1-.89-.1,3.477,3.477,0,0,1-1.684-.561c-.608-.7-.608-5.747-.608-7.1,0-1.169.187-7.064.187-8.421,0-.562.188-.562,1.872-.562l.057.008c.754-.026.965-.008,1.246-.008,3.322,0,3.414.8,4.02,2.433l.61-.374c-.047-.188-.7-3.555-.794-3.79h-.514c-.142.187-.375.421-1.358.468-1.279.056-2.793.047-4.318.047h-.7Zm-30.822-.047c-.749.047-1.314.047-2.25.047-.468,0-.935,0-1.4-.047s-.542-.041-.991-.093v.8c2.713.514,2.955.935,2.861,6.362l-.01,3.322c0,1.263-.086,5.006-.227,6.082-.14,1.217-.654,1.31-1.355,1.451-.375.094-.8.188-1.077.234v.7c.7,0,1.4-.046,2.105-.093s1.642-.094,2.343-.094,1.449.046,2.106.094a8.011,8.011,0,0,1,1.309.093v-.8c-3.7-.654-3.7-1.169-3.649-4.3l0-7.906.046-1.5c-.01-.012-.009.024,13.764,14.6h.961c-.093-1.545-.093-5.521-.093-7.251,0-2.48-.017-8.876.088-9.675.16-1.22,1.783-1.32,2.673-1.32v-.7c-2.012,0-3.115.048-4-.046a18.3,18.3,0,0,0-1.965-.139,9.8,9.8,0,0,0-1.17,0l-.139.7c3.134.188,3.063.466,3.063,7.528,0,.842-.03,4.972-.03,5.767Zm-16.942-.375a9.536,9.536,0,0,1,9.684,9.637,10.069,10.069,0,0,1-9.966,9.825c-5.473,0-9.4-4.445-9.4-9.825A9.915,9.915,0,0,1,90.206,199.788Zm.983,18.247c3.508,0,5.708-3.461,5.708-6.784,0-5.286-3.041-10.247-7.58-10.247-3.6,0-5.8,3.182-5.8,6.878C83.515,212.748,86.322,218.035,91.188,218.035ZM60.5,200.07c.608.046,1.17.093,1.778.093.561.047,1.169.047,1.731.047.421,0,1.5-.094,2.573-.187s1.87-.094,2.526-.094c3.977,0,6.5,2.151,6.5,5.051,0,2.62-2.387,4.212-4.258,4.68,3.882,5.615,4.584,6.457,6.082,7.859a4.883,4.883,0,0,0,2.808,1.357l-.048.7a8.31,8.31,0,0,1-5.66-1.918c-2.855-2.246-5.661-6.69-6.176-7.625-.8,0-1.123,0-2.479-.094v2.712c0,1.217-.047,3.931.328,4.68.233.421,1.637.842,2.573,1.122l.047.7a29.164,29.164,0,0,0-4.117-.328c-.656,0-3.556.186-4.164.233l-.14-.561c.281-.047,1.965-.421,2.386-1.216.327-.7.28-4.633.28-5.894V206.9c0-5.8-.28-5.9-2.62-6.035Zm5.427,8.795a14.426,14.426,0,0,0,2.012.094c.7,0,4.631,0,4.631-3.742a4.3,4.3,0,0,0-4.585-4.258c-1.965,0-1.965.233-2.012,3.415Zm-18.433-9.077a9.537,9.537,0,0,1,9.685,9.637,10.068,10.068,0,0,1-9.965,9.825c-5.474,0-9.4-4.445-9.4-9.825A9.915,9.915,0,0,1,47.492,199.788Zm.983,18.247c3.509,0,5.707-3.461,5.707-6.784,0-5.286-3.041-10.247-7.579-10.247-3.6,0-5.8,3.182-5.8,6.878C40.8,212.748,43.609,218.035,48.474,218.035Zm-19.9-17.825H24.567c-1.731,0-3.041,0-4.117-.047-.983-.047-1.216-.281-1.356-.468h-.514c-.094.234-1.357,3.6-1.4,3.79l.608.374c.608-1.637,1.31-2.433,4.632-2.433a25.32,25.32,0,0,1,2.667.14c.188,2.385.234,4.724.234,7.111,0,1.5-.046,7.1-.234,8.318-.094.563-.374.828-1.918,1.11-.655.094-1.076.139-1.45.187l.14.757c.5-.046,1.1-.079,1.846-.125s1.662-.076,3.019-.076c.515,0,1.357-.034,2.152.013s1.5.049,2.48.094l.094-.783a8.439,8.439,0,0,1-.889-.1,3.479,3.479,0,0,1-1.685-.561c-.608-.7-.608-5.747-.608-7.1,0-1.169.187-7.064.187-8.421,0-.562.187-.562,1.872-.562l.057.008c.754-.026.964-.008,1.245-.008,3.322,0,3.415.8,4.023,2.433l.608-.374c-.048-.188-.7-3.555-.794-3.79h-.514c-.141.187-.375.421-1.357.468-1.278.056-2.792.047-4.32.047h-.7ZM149.447,183.7a20.894,20.894,0,0,1-2.837.123l-1.421-.021-1.465-.041-.485.029-.38.039v.355l.065,0c.369.019.714.055.867.277.216.327.239.665.239,3.612a30.588,30.588,0,0,1-.166,3.188c-.075.325-.529.44-.865.5l-.052.01-.031.443.081-.006c.826-.063,1.727-.082,1.961-.082l.727.02,1.35.065,0-.073v-.412l-.1-.009c-.961-.091-1.283-.258-1.384-.382a2.838,2.838,0,0,1-.14-1.152c0-.155,0-.311.009-.462,0,0,.033-1.245.041-1.537l.686-.037a6.8,6.8,0,0,1,1.937.281c.132.043.245.311.3.684l.008.061h.417l.006-.065a23.131,23.131,0,0,0,.042-2.366l0-.068h-.44l-.01.058c-.1.612-.143.865-1.772.865a7.623,7.623,0,0,1-1.111-.071l-.036,0c-.01-.148-.016-.306-.016-.478,0-.188,0-.388.01-.594,0,0,.025-1.733.029-2,.472-.056.881-.075,1-.075a3.835,3.835,0,0,1,2.028.416,1.405,1.405,0,0,1,.436.823l.013.057.464-.029-.007-.071c-.011-.134.017-.591.044-.995l.045-.886Zm-12.689-.061a4.3,4.3,0,0,1,4.4,4.3,4.513,4.513,0,0,1-4.527,4.378,4.281,4.281,0,0,1-4.273-4.378A4.463,4.463,0,0,1,136.758,183.64Zm.437,8a2.735,2.735,0,0,0,2.482-2.9c0-2.174-1.24-4.423-3.318-4.423a2.684,2.684,0,0,0-2.525,2.946C133.834,189.413,135.091,191.641,137.2,191.641Zm-16.072-7.828v.416l.1,0c.418.019.992.046.992.38,0,.1-.177.59-1.755,2.879a20.842,20.842,0,0,1-2.184-3c0-.093,0-.2.956-.217h.068v-.489l-.794.017-1.534.026-1.66-.022v.449h.069a1.419,1.419,0,0,1,.861.194,25.679,25.679,0,0,1,2.363,2.746c0,.008.718.928.789,1.018.043.593.082,1.253.082,2.066,0,1.252,0,1.513-1.168,1.551l-.063,0-.031.42.07,0c.171.012.709-.028,1.227-.067l.891-.056.676.033.137.008.913.045,0-.074v-.351l-.064-.008c-1.143-.1-1.155-.246-1.173-.469,0,.006,0-.086,0-.086-.027-.516-.04-1.09-.04-1.715,0-.469.009-.969.023-1.495l1.642-2.506c.523-.8.811-1.241,1.931-1.262h.065v-.482l-.061-.005c-.147-.013-.6.012-1,.036l-.538.026-.637-.035-.45-.027-.626-.021-.072,0Zm-7.4-.234h-.264l-.02.028c-.044.055-.12.158-.555.177l-1.681.02h-2.35l-1.836-.02c-.434-.02-.513-.122-.555-.177l-.021-.028h-.311l-.018.043c-.034.086-.606,1.58-.63,1.67l-.011.051.388.233.028-.078c.263-.694.547-1.021,2.006-1.021.466,0,.86.029,1.126.056.087,1.133.1,2.225.1,3.053,0,.795-.025,3.133-.1,3.636-.032.182-.086.3-.8.428l-.519.066-.2.024.088.466.693-.047.194-.012,1.344-.033.215,0,.745.008.567.022.6.021.01-.063.05-.414-.378-.039-.087-.012a1.429,1.429,0,0,1-.714-.227c-.092-.1-.251-.645-.251-3.063l.041-1.726.042-1.966c0-.167,0-.176.769-.176l.027,0,.457,0h.1c1.354,0,1.457.284,1.689.9l.072.2.385-.233-.092-.445c-.134-.657-.247-1.206-.277-1.278l-.018-.043Zm-13.975.254v.416l.066,0c1.094.041,1.273.264,1.361.49a24.529,24.529,0,0,1,.184,3.626v.147a10.354,10.354,0,0,1-.222,2.792c-.073.129-.355.356-1.43.437l-.064,0v.425l1.324-.044h1.215l2.021.064-.008-.077-.024-.394H104.1c-.883,0-1.168-.016-1.273-.361a16.9,16.9,0,0,1-.08-2.359c0-3.261.019-4.123.2-4.438.222-.363,1-.317,1.23-.293l.077.008v-.5h-.99l-1.4.041-.922-.027-.4-.014-.73-.02-.071,0v.071Zm-7.407,2.237c0,1.425,1.215,1.923,2.1,2.287l.075.03c1.522.617,2.217.9,2.217,1.95a1.327,1.327,0,0,1-1.479,1.284,3.047,3.047,0,0,1-1.943-.7,2.145,2.145,0,0,1-.646-1.191l-.011-.055h-.506l.028.09a6.25,6.25,0,0,1,.355,2.379l0,.067.408.028.02-.047c.019-.048.09-.2.187-.2a3.508,3.508,0,0,1,.511.106l.057.015.123.036a3.1,3.1,0,0,0,1.023.151c2.043,0,3.145-1.241,3.145-2.408,0-1.642-1.619-2.282-2.689-2.706-1.018-.391-1.788-.753-1.788-1.58a1.4,1.4,0,0,1,1.563-1.367,2.283,2.283,0,0,1,1.579.633,1.81,1.81,0,0,1,.5,1.04l.013.054.059.017h.37l-.112-1.1a4.582,4.582,0,0,1,.122-.988l.018-.075-.374-.056-.268.182a5.842,5.842,0,0,0-1.681-.262C93.563,183.681,92.339,184.664,92.339,186.069ZM86.444,183.7c1.753,0,2.977.94,2.977,2.285a2.344,2.344,0,0,1-1.861,2.09,17.835,17.835,0,0,0,2.656,3.358,2.155,2.155,0,0,0,1.211.576l.07,0-.03.444H91.4a3.826,3.826,0,0,1-2.573-.856,13.888,13.888,0,0,1-2.758-3.331l-1-.036v1.117s0,.3,0,.381a5.732,5.732,0,0,0,.139,1.635,3.108,3.108,0,0,0,1.109.46l.046.014.03.445-.085-.014a13.107,13.107,0,0,0-1.83-.143c-.286,0-1.572.081-1.857.1l-.057,0-.1-.377.074-.012c.173-.028.854-.2,1.016-.494a12.608,12.608,0,0,0,.118-2.363v-2.161c0-2.511-.1-2.517-1.106-2.577l-.069,0,.03-.489.124.009.741.037.769.021c.186,0,.674-.042,1.143-.082h0Zm-1.352,3.926a7.287,7.287,0,0,0,.83.034c.747,0,2-.2,2-1.571a1.831,1.831,0,0,0-1.981-1.8c-.809,0-.809.027-.831,1.429C85.111,185.722,85.093,187.509,85.091,187.627Zm-4.949-3.885c-1.027.061-2.645.082-3.72.082-.652,0-2.283-.041-2.885-.061l-.071,0v.418l.058.009c.709.123.754.14.8.3a16.442,16.442,0,0,1,.164,3.487,28.179,28.179,0,0,1-.187,3.372c-.054.284-.41.377-.964.436l-.07.008.06.467.066-.008a32.634,32.634,0,0,1,3.3-.122l3.344.041.031-.05a4.478,4.478,0,0,0,.626-2.041l.011-.074-.4-.03-.019.049c-.284.769-.849,1.555-2.885,1.555a3.34,3.34,0,0,1-1.424-.249,11.561,11.561,0,0,1-.1-1.612s-.016-1.248-.02-1.536a9.4,9.4,0,0,1,1.248-.074c1.636,0,1.76.128,1.983,1.135l.011.054h.4v-.071c-.021-1.1-.02-1.365.041-2.518l0-.073h-.44l-.013.052c-.161.615-.294.734-.529.77a15.167,15.167,0,0,1-2.642.086c0-.108-.04-1.1-.04-1.1a14.126,14.126,0,0,1,.139-1.949,12.116,12.116,0,0,1,1.612-.156c.926,0,1.47.121,1.712.379a1.149,1.149,0,0,1,.184.881l0,.065.476.058v-.079c0-.089.055-.423.1-.667l.049-.309a4.954,4.954,0,0,0,.065-.85v-.074Zm-18.118.1.025.365.056.008c1.126.14,1.17.146,2.081,2.012l1.883,3.836.016.035a18.356,18.356,0,0,1,.963,2.251l.014.051h.416l.016-.047a17.85,17.85,0,0,1,1.147-2.719l2.03-3.98c.468-.937.669-1.175,1.583-1.358l.056-.011v-.458l-.073,0c-.519.02-1.024.02-1.543,0l-1.593-.043,0,.061-.026.433.073,0c.42,0,.978.053.978.5a2.993,2.993,0,0,1-.3.928l-.032.07c-.415.935-.677,1.448-.955,1.992l-.927,1.9-.218.477a40.753,40.753,0,0,1-2.579-5.638c0-.1.023-.113.707-.2l.213-.027v-.461l-1.281,0-.692,0c-.482,0-1.457-.022-1.961-.061l-.081-.007Zm-5.648-.005v.416l.067,0c1.094.04,1.272.264,1.36.49a24.6,24.6,0,0,1,.184,3.626v.147a10.322,10.322,0,0,1-.221,2.792c-.073.129-.355.356-1.431.437l-.064,0v.425l1.324-.044H58.81l2.022.064-.008-.077-.025-.394h-.065c-.882,0-1.167-.016-1.273-.361A16.937,16.937,0,0,1,59.381,189c0-3.262.02-4.123.2-4.438.223-.363,1-.317,1.231-.293l.075.008v-.5H59.9l-1.4.041-.92-.027-.4-.014-.73-.02-.072,0v.071Zm-4.806-.139h-.054l0,.053-.079.388.08,0c1.616.095,1.362.13,1.406,3.471,0,0,.021,2.02.016,2.249-.113-.119-5.8-6.06-5.8-6.06l-.021-.026-.931.021-.621-.021-.053-.005-.566-.041.009.079,0,.4.053.01c1.162.216,1.356.344,1.314,2.719L46.3,188.4c0,.541-.063,2.191-.126,2.657s-.239.516-.543.576l-.542.115,0,.057v.381l1.951-.085.936.041.653.045.006-.074V191.7l-.058-.01c-1.6-.277-1.594-.453-1.573-1.816l.042-3.466s.009-.3.016-.492c.315.325,6.061,6.282,6.029,6.3l.019.025.544-.01-.005-.078c-.041-.675-.041-2.418-.041-3.179,0-1.13.05-3.765.108-4.09.073-.564.556-.7,1.02-.7h.069v-.448h-.069c-.9,0-1.357.059-1.751.018l-.265-.03-.619-.037Zm-15.2.082-.485.009c-.57,0-1.719.02-1.89.041l-.065.008.029.46h.065c.547,0,.732,0,.86.09a5.308,5.308,0,0,1,.285,2.343l-.1,2.728c0,1.884,1.2,2.88,3.479,2.88,3.606,0,3.8-1.927,3.855-5.936l.021-1.211v-.051c.019-.586.026-.829,1-.885l.061,0,.031-.469-.186.012-1.457.034-1.122-.028-.5-.016,0,.072v.419h.069a1.623,1.623,0,0,1,1.019.206,4.175,4.175,0,0,1,.335,1.939v.739c0,2.778-.187,4.464-2.775,4.464-2.358,0-2.358-1.879-2.358-2.782v-1.559c0-2.9.106-2.91,1.4-3.028l.063-.006v-.479l-.066,0C37.612,183.749,36.891,183.765,36.366,183.775Z" transform="translate(0 0)" fill="#fff"/>
    </g>
  </g>
</svg>
