<svg xmlns="http://www.w3.org/2000/svg" xmlns:xlink="http://www.w3.org/1999/xlink" id="twitter" width="36" height="36" viewBox="0 0 36 36">
    <defs>
        <linearGradient id="linear-gradient" x1=".738" x2="-.899" y1=".628" y2="-.25" gradientUnits="objectBoundingBox">
            <stop offset="0" stop-color="#204bb7" stop-opacity="0"/>
            <stop offset="1" stop-color="#204bb7"/>
        </linearGradient>
        <linearGradient id="linear-gradient-2" x1=".5" x2=".5" y1=".27" y2=".926" xlink:href="#linear-gradient"/>
        <style>
            .cls-4{fill:#fff}
        </style>
    </defs>
    <path id="Path_115221" fill="#4176fa" d="M29.561 35.384a108.736 108.736 0 0 1-23.122 0 6.555 6.555 0 0 1-5.823-5.823 108.733 108.733 0 0 1 0-23.122A6.555 6.555 0 0 1 6.439.616a108.733 108.733 0 0 1 23.122 0 6.555 6.555 0 0 1 5.823 5.823 108.733 108.733 0 0 1 0 23.122 6.555 6.555 0 0 1-5.823 5.823zm0 0"/>
    <path id="Path_115222" fill="url(#linear-gradient)" d="M60.232 34.548a5.817 5.817 0 0 0-5.167-5.167 96.524 96.524 0 0 0-20.518 0 5.817 5.817 0 0 0-5.167 5.167 96.522 96.522 0 0 0 0 20.517 5.817 5.817 0 0 0 5.167 5.167 96.486 96.486 0 0 0 20.517 0 5.816 5.816 0 0 0 5.167-5.167 96.486 96.486 0 0 0 .001-20.517zm0 0" transform="translate(-26.807 -26.807)"/>
    <path id="Path_115223" fill="url(#linear-gradient-2)" d="M7.672 409.8q.037.373.077.747a6.555 6.555 0 0 0 5.823 5.823 108.733 108.733 0 0 0 23.122 0 6.555 6.555 0 0 0 5.823-5.823q.04-.373.077-.747zm0 0" transform="translate(-7.132 -380.99)"/>
    <g id="behance" transform="translate(7.21 11.256)">
        <g id="Group_68660">
            <g id="Group_68659">
                <path id="Path_115219" d="M8.878 102.076a3.237 3.237 0 0 0 1.018-.747 2.9 2.9 0 0 0 .616-1.938 3.317 3.317 0 0 0-.612-2.009 4.116 4.116 0 0 0-3.457-1.4H0v13.155h6.009a9.4 9.4 0 0 0 1.884-.177 3.706 3.706 0 0 0 1.507-.66 3.648 3.648 0 0 0 .944-1.035 3.8 3.8 0 0 0 .595-2.1 3.451 3.451 0 0 0-.519-1.928 3 3 0 0 0-1.542-1.161zm-6.22-3.812h2.9a5.118 5.118 0 0 1 1.577.205 1.18 1.18 0 0 1 .716 1.217 1.239 1.239 0 0 1-.542 1.155 2.72 2.72 0 0 1-1.411.326H2.659zm4.59 8.356a3.179 3.179 0 0 1-1.352.232H2.659v-3.508h3.283a3.426 3.426 0 0 1 1.335.221 1.411 1.411 0 0 1 .848 1.412 1.654 1.654 0 0 1-.876 1.643z" class="cls-4" transform="translate(0 -95.979)"/>
                <path id="Rectangle_6694" d="M0 0H5.715V1.638H0z" class="cls-4" transform="translate(13.791 0.614)"/>
                <path id="Path_115220" d="M289.566 175.085a4.693 4.693 0 0 0-.788-2.011 3.971 3.971 0 0 0-1.7-1.439 5.635 5.635 0 0 0-2.32-.456 4.8 4.8 0 0 0-3.526 1.349 5.233 5.233 0 0 0-1.358 3.879 4.673 4.673 0 0 0 1.507 3.894 5.413 5.413 0 0 0 3.473 1.2 4.834 4.834 0 0 0 3.711-1.418 3.192 3.192 0 0 0 .955-1.759h-2.633a2.123 2.123 0 0 1-.531.669 2.2 2.2 0 0 1-1.43.445 2.643 2.643 0 0 1-1.423-.367 2.324 2.324 0 0 1-1.033-2.052h7.185a12.38 12.38 0 0 0-.089-1.934zm-7.034.252a2.637 2.637 0 0 1 .688-1.505 2.073 2.073 0 0 1 1.539-.557 2.289 2.289 0 0 1 1.531.523 2.127 2.127 0 0 1 .687 1.539z" class="cls-4" transform="translate(-268.075 -168.009)"/>
            </g>
        </g>
    </g>
</svg>
