<svg xmlns="http://www.w3.org/2000/svg" xmlns:xlink="http://www.w3.org/1999/xlink" width="340" height="200" viewBox="0 0 340 200">
  <defs>
    <clipPath id="clip-path">
      <path id="Rectangle_5943" data-name="Rectangle 5943" d="M0,0H340V200H0Z"/>
    </clipPath>
  </defs>
  <g id="clutch" clip-path="url(#clip-path)">
    <g id="Group_19568" data-name="Group 19568" transform="matrix(0.994, -0.105, 0.105, 0.994, 11.942, 39.029)">
      <g id="Group_70" data-name="Group 70">
        <g id="Group_69" data-name="Group 69">
          <g id="Group_51" data-name="Group 51" transform="translate(20.824 10.929)">
            <path id="Path_106" data-name="Path 106" d="M46.59,133.07s-3.506-1.667-5.337-2.659C16.7,117.1,0,91.755,0,62.711,0,37.011,13.077,14.218,33.246,0,14.346,13.966,2.168,35.768,2.168,60.289c0,28.246,16.143,52.91,40.334,66.218,1.593.876,5.19,2.612,5.19,2.612Z" fill="#222"/>
          </g>
          <g id="Group_60" data-name="Group 60">
            <g id="Group_53" data-name="Group 53" transform="translate(39.739 91.503)">
              <path id="Path_108" data-name="Path 108" d="M4.7,33.586S-7.22,15.212,6.908,0C6.908,0,20.618,17.041,4.7,33.586Z" fill="#222"/>
            </g>
            <path id="Path_109" data-name="Path 109" d="M32.066,15.058S9.714,18.858,0,.8c0,0,21.7-5.883,32.066,14.258Z" transform="translate(9.756 112.305)" fill="#222"/>
            <path id="Path_110" data-name="Path 110" d="M27.9,13.1S8.453,16.413,0,.7c0,0,18.886-5.122,27.9,12.4Z" transform="translate(0 95.583)" fill="#222"/>
            <path id="Path_111" data-name="Path 111" d="M19.578,22.607S.52,17.645,0,0C0,0,19.378,3.1,19.578,22.607Z" transform="translate(2.542 69.285)" fill="#222"/>
            <path id="Path_112" data-name="Path 112" d="M15.186,21.956S-1.276,15.763.079,0c0,0,16.93,4.566,15.107,21.956Z" transform="translate(7.07 47.596)" fill="#222"/>
            <path id="Path_113" data-name="Path 113" d="M5.533,26.179S-5.607,13.1,3.727,0C3.726,0,16.11,11.881,5.533,26.179Z" transform="translate(17.702 25.011)" fill="#222"/>
            <path id="Path_114" data-name="Path 114" d="M4.539,21.484S-4.6,10.749,3.06,0C3.06,0,13.224,9.753,4.539,21.484Z" transform="translate(30.632 10.781)" fill="#222"/>
            <path id="Path_115" data-name="Path 115" d="M0,14.058S.275,2.835,10.971,0A13.629,13.629,0,0,1,0,14.058Z" transform="translate(42.643 0.396)" fill="#222"/>
            <g id="Group_54" data-name="Group 54" transform="translate(28.282 76.688)">
              <path id="Path_116" data-name="Path 116" d="M.9,28.529S-4.6,9.816,11.61,0c0,0,7.4,17.987-10.71,28.529Z" fill="#222"/>
            </g>
            <g id="Group_55" data-name="Group 55" transform="translate(23.867 59.192)">
              <path id="Path_117" data-name="Path 117" d="M0,22.238S-.234,4.932,16.081,0C16.081,0,18.125,17.095,0,22.238Z" fill="#222"/>
            </g>
            <g id="Group_56" data-name="Group 56" transform="translate(22.266 44.161)">
              <path id="Path_118" data-name="Path 118" d="M0,15.433S4.821.078,20.667,0C20.667,0,17.51,15.642,0,15.433Z" fill="#222"/>
            </g>
            <g id="Group_57" data-name="Group 57" transform="translate(30.426 28.421)">
              <path id="Path_119" data-name="Path 119" d="M0,12.221S6.852-1.819,22.017.2C22.015.2,16.708,14.735,0,12.221Z" fill="#222"/>
            </g>
            <g id="Group_58" data-name="Group 58" transform="translate(41.634 13.087)">
              <path id="Path_120" data-name="Path 120" d="M0,7.721S8.552-3.3,21.326,1C21.326.994,14.017,12.7,0,7.721Z" fill="#222"/>
            </g>
            <g id="Group_59" data-name="Group 59" transform="translate(55.404)">
              <path id="Path_121" data-name="Path 121" d="M0,7.722S8.552-3.3,21.328.994C21.328.993,14.019,12.7,0,7.722Z" fill="#222"/>
            </g>
          </g>
        </g>
      </g>
    </g>
    <g id="Group_19569" data-name="Group 19569" transform="matrix(-0.994, -0.105, 0.105, -0.994, 314.066, 182.175)">
      <g id="Group_70-2" data-name="Group 70">
        <g id="Group_69-2" data-name="Group 69">
          <g id="Group_51-2" data-name="Group 51" transform="translate(20.828)">
            <path id="Path_106-2" data-name="Path 106" d="M46.59,0s-3.506,1.667-5.337,2.659C16.7,15.974,0,41.315,0,70.362c0,25.7,13.077,48.493,33.246,62.711C14.343,119.107,2.168,97.3,2.168,72.785c0-28.246,16.143-52.91,40.334-66.218,1.593-.876,5.19-2.612,5.19-2.612Z" fill="#222"/>
          </g>
          <g id="Group_60-2" data-name="Group 60" transform="translate(0 16.301)">
            <g id="Group_53-2" data-name="Group 53" transform="translate(39.742 2.614)">
              <path id="Path_108-2" data-name="Path 108" d="M4.7,0S-7.22,18.374,6.908,33.586C6.908,33.586,20.618,16.54,4.7,0Z" fill="#222"/>
            </g>
            <path id="Path_109-2" data-name="Path 109" d="M32.066.334S9.714-3.47,0,14.592c0,0,21.7,5.883,32.066-14.258Z" transform="translate(9.76)" fill="#222"/>
            <path id="Path_110-2" data-name="Path 110" d="M27.9.291S8.458-3.021,0,12.7c0,0,18.89,5.114,27.9-12.409Z" transform="translate(0 18.723)" fill="#222"/>
            <path id="Path_111-2" data-name="Path 111" d="M19.578,0S.52,4.962,0,22.607C0,22.607,19.371,19.5,19.578,0Z" transform="translate(2.549 35.806)" fill="#222"/>
            <path id="Path_112-2" data-name="Path 112" d="M15.186,0S-1.275,6.193.079,21.956c0,0,16.93-4.566,15.107-21.956Z" transform="translate(7.074 58.146)" fill="#222"/>
            <path id="Path_113-2" data-name="Path 113" d="M5.533,0S-5.607,13.083,3.727,26.179C3.727,26.179,16.11,14.3,5.533,0Z" transform="translate(17.706 76.507)" fill="#222"/>
            <path id="Path_114-2" data-name="Path 114" d="M4.538,0S-4.6,10.735,3.059,21.484C3.059,21.484,13.223,11.732,4.538,0Z" transform="translate(30.637 95.432)" fill="#222"/>
            <path id="Path_115-2" data-name="Path 115" d="M0,0S.275,11.223,10.971,14.058A13.63,13.63,0,0,0,0,0Z" transform="translate(42.647 113.247)" fill="#222"/>
            <g id="Group_54-2" data-name="Group 54" transform="translate(28.288 22.481)">
              <path id="Path_116-2" data-name="Path 116" d="M.9,0S-4.6,18.713,11.607,28.529c0,0,7.4-17.987-10.707-28.529Z" fill="#222"/>
            </g>
            <g id="Group_55-2" data-name="Group 55" transform="translate(23.87 46.268)">
              <path id="Path_117-2" data-name="Path 117" d="M0,0S-.233,17.306,16.081,22.238C16.081,22.238,18.126,5.143,0,0Z" fill="#222"/>
            </g>
            <g id="Group_56-2" data-name="Group 56" transform="translate(22.27 68.1)">
              <path id="Path_118-2" data-name="Path 118" d="M0,0S4.821,15.359,20.667,15.437C20.667,15.437,17.51-.2,0,0Z" fill="#222"/>
            </g>
            <g id="Group_57-2" data-name="Group 57" transform="translate(30.43 86.763)">
              <path id="Path_119-2" data-name="Path 119" d="M0,.292s6.852,14.04,22.017,12.023c0,0-5.31-14.537-22.017-12.023Z" fill="#222"/>
            </g>
            <g id="Group_58-2" data-name="Group 58" transform="translate(41.638 105.657)">
              <path id="Path_120-2" data-name="Path 120" d="M0,1.235S8.552,12.259,21.326,7.961c0,0-7.305-11.71-21.326-6.726Z" fill="#222"/>
            </g>
            <g id="Group_59-2" data-name="Group 59" transform="translate(55.408 118.742)">
              <path id="Path_121-2" data-name="Path 121" d="M0,1.234S8.552,12.26,21.328,7.963c0,0-7.309-11.711-21.328-6.729Z" fill="#222"/>
            </g>
          </g>
        </g>
      </g>
    </g>
    <g id="Group_19570" data-name="Group 19570" transform="translate(87.007 26)">
      <path id="Path_20903" data-name="Path 20903" d="M-52.472-8.232V0h-2.744V-8.232H-57.47v-2.324h7.252v2.324Zm4.83,4.606a1.627,1.627,0,0,0,.133.665,1.782,1.782,0,0,0,.35.525,1.54,1.54,0,0,0,.518.35A1.633,1.633,0,0,0-46-1.96a1.633,1.633,0,0,0,.637-.126,1.54,1.54,0,0,0,.518-.35,1.782,1.782,0,0,0,.35-.525,1.593,1.593,0,0,0,.133-.651,1.559,1.559,0,0,0-.133-.637,1.782,1.782,0,0,0-.35-.525,1.54,1.54,0,0,0-.518-.35A1.633,1.633,0,0,0-46-5.25a1.633,1.633,0,0,0-.637.126,1.54,1.54,0,0,0-.518.35,1.81,1.81,0,0,0-.35.518,1.511,1.511,0,0,0-.137.63Zm-2.674-.028a3.5,3.5,0,0,1,.322-1.491,3.662,3.662,0,0,1,.9-1.2,4.26,4.26,0,0,1,1.365-.8A4.926,4.926,0,0,1-46-7.448a4.992,4.992,0,0,1,1.715.287,4.245,4.245,0,0,1,1.372.8,3.58,3.58,0,0,1,.9,1.218,3.722,3.722,0,0,1,.322,1.561,3.655,3.655,0,0,1-.329,1.561A3.7,3.7,0,0,1-42.92-.8a4.044,4.044,0,0,1-1.38.789,5.271,5.271,0,0,1-1.743.28,5.044,5.044,0,0,1-1.708-.28,3.942,3.942,0,0,1-1.351-.8,3.7,3.7,0,0,1-.889-1.239,3.888,3.888,0,0,1-.325-1.6Zm15.526.084a1.717,1.717,0,0,0-.119-.637,1.529,1.529,0,0,0-.343-.525,1.715,1.715,0,0,0-.525-.357,1.593,1.593,0,0,0-.651-.133,1.582,1.582,0,0,0-.63.126,1.558,1.558,0,0,0-.511.35,1.782,1.782,0,0,0-.35.525,1.559,1.559,0,0,0-.133.637,1.582,1.582,0,0,0,.126.63,1.558,1.558,0,0,0,.35.511,1.782,1.782,0,0,0,.525.35,1.559,1.559,0,0,0,.637.133,1.582,1.582,0,0,0,.63-.126,1.558,1.558,0,0,0,.511-.35,1.81,1.81,0,0,0,.35-.518,1.478,1.478,0,0,0,.133-.616Zm-3.192,7.154h-2.534V-7.182h2.534v.8A2.674,2.674,0,0,1-35.77-7.406a3.439,3.439,0,0,1,1.435.3,3.637,3.637,0,0,1,1.155.819,3.716,3.716,0,0,1,.763,1.218,4.086,4.086,0,0,1,.273,1.5,3.977,3.977,0,0,1-.273,1.484,3.815,3.815,0,0,1-.756,1.2,3.489,3.489,0,0,1-1.141.812,3.46,3.46,0,0,1-1.428.294A2.992,2.992,0,0,1-37.982-.7ZM-26.74,0l1.792-10.556h2.716l2.114,5.628,2.1-5.628H-15.3L-13.51,0h-2.73l-.91-6.076L-19.642,0h-1.092L-23.1-6.076-24.01,0ZM-9.9-3.626a1.627,1.627,0,0,0,.133.665,1.782,1.782,0,0,0,.35.525,1.54,1.54,0,0,0,.518.35,1.633,1.633,0,0,0,.637.126,1.633,1.633,0,0,0,.637-.126,1.54,1.54,0,0,0,.518-.35,1.782,1.782,0,0,0,.35-.525,1.593,1.593,0,0,0,.133-.651,1.559,1.559,0,0,0-.133-.637,1.782,1.782,0,0,0-.35-.525,1.54,1.54,0,0,0-.518-.35A1.633,1.633,0,0,0-8.26-5.25a1.633,1.633,0,0,0-.637.126,1.54,1.54,0,0,0-.518.35,1.81,1.81,0,0,0-.35.518,1.511,1.511,0,0,0-.135.63Zm-2.674-.028a3.5,3.5,0,0,1,.322-1.491,3.662,3.662,0,0,1,.9-1.2,4.26,4.26,0,0,1,1.365-.8,4.926,4.926,0,0,1,1.727-.3,4.992,4.992,0,0,1,1.715.287,4.245,4.245,0,0,1,1.372.8,3.58,3.58,0,0,1,.9,1.218,3.722,3.722,0,0,1,.322,1.561A3.655,3.655,0,0,1-4.28-2.021,3.7,3.7,0,0,1-5.18-.8a4.044,4.044,0,0,1-1.379.791A5.271,5.271,0,0,1-8.3.266a5.044,5.044,0,0,1-1.708-.28,3.942,3.942,0,0,1-1.351-.8,3.7,3.7,0,0,1-.889-1.239,3.888,3.888,0,0,1-.324-1.6ZM2.954-3.57a1.633,1.633,0,0,0-.126-.637,1.618,1.618,0,0,0-.35-.525,1.74,1.74,0,0,0-.518-.357,1.544,1.544,0,0,0-.644-.133,1.582,1.582,0,0,0-.63.126,1.558,1.558,0,0,0-.511.35,1.782,1.782,0,0,0-.35.525,1.559,1.559,0,0,0-.133.637,1.582,1.582,0,0,0,.126.63,1.558,1.558,0,0,0,.35.511,1.782,1.782,0,0,0,.525.35,1.559,1.559,0,0,0,.637.133,1.582,1.582,0,0,0,.63-.126,1.558,1.558,0,0,0,.511-.35,1.81,1.81,0,0,0,.35-.518,1.478,1.478,0,0,0,.133-.616ZM-.238-11.62v5.152A2.97,2.97,0,0,1,2-7.406a3.507,3.507,0,0,1,1.463.3A3.45,3.45,0,0,1,4.6-6.293a3.743,3.743,0,0,1,.735,1.2A4.086,4.086,0,0,1,5.6-3.612a4.086,4.086,0,0,1-.273,1.5A3.716,3.716,0,0,1,4.564-.9a3.637,3.637,0,0,1-1.155.819,3.439,3.439,0,0,1-1.435.3A2.674,2.674,0,0,1-.238-.8V0H-2.772V-11.62ZM9.3-7.182V0H6.762V-7.182ZM6.594-9.94a1.378,1.378,0,0,1,.112-.553,1.452,1.452,0,0,1,.308-.455,1.452,1.452,0,0,1,.455-.308,1.378,1.378,0,0,1,.553-.112,1.378,1.378,0,0,1,.553.112,1.452,1.452,0,0,1,.455.308,1.452,1.452,0,0,1,.308.455,1.378,1.378,0,0,1,.112.553,1.378,1.378,0,0,1-.112.553,1.452,1.452,0,0,1-.308.455,1.452,1.452,0,0,1-.455.308,1.378,1.378,0,0,1-.553.112,1.378,1.378,0,0,1-.553-.112,1.452,1.452,0,0,1-.455-.308,1.452,1.452,0,0,1-.308-.455,1.378,1.378,0,0,1-.112-.553Zm6.692-1.68V0H10.752V-11.62Zm6.706,6.986a1.525,1.525,0,0,0-.518-.854,1.451,1.451,0,0,0-.952-.322,1.451,1.451,0,0,0-.959.308,1.394,1.394,0,0,0-.469.868Zm-2.968,1.47q0,1.638,1.54,1.638A1.376,1.376,0,0,0,19.81-2.2h2.45Q21.518.266,18.55.266a4.874,4.874,0,0,1-1.666-.273,3.719,3.719,0,0,1-1.3-.777,3.463,3.463,0,0,1-.833-1.2,4.013,4.013,0,0,1-.294-1.568,4.436,4.436,0,0,1,.28-1.617,3.4,3.4,0,0,1,.8-1.225,3.536,3.536,0,0,1,1.253-.777,4.74,4.74,0,0,1,1.659-.273,4.638,4.638,0,0,1,1.638.273,3.315,3.315,0,0,1,1.232.791,3.437,3.437,0,0,1,.77,1.267,5.019,5.019,0,0,1,.266,1.687v.266ZM33.978-3.92,32.746-7.434,31.514-3.92Zm.728,2.086h-3.92L30.156,0H27.23l4.018-10.556h3L38.262,0H35.336ZM44.828-3.57a1.717,1.717,0,0,0-.119-.637,1.529,1.529,0,0,0-.343-.525,1.715,1.715,0,0,0-.525-.357,1.593,1.593,0,0,0-.651-.133,1.582,1.582,0,0,0-.63.126,1.558,1.558,0,0,0-.511.35,1.782,1.782,0,0,0-.35.525,1.559,1.559,0,0,0-.133.637,1.582,1.582,0,0,0,.126.63,1.558,1.558,0,0,0,.35.511,1.782,1.782,0,0,0,.525.35,1.559,1.559,0,0,0,.637.133,1.582,1.582,0,0,0,.63-.126,1.558,1.558,0,0,0,.511-.35,1.81,1.81,0,0,0,.35-.518,1.478,1.478,0,0,0,.133-.616ZM41.636,3.584H39.1V-7.182h2.534v.8A2.674,2.674,0,0,1,43.846-7.4a3.439,3.439,0,0,1,1.435.3,3.637,3.637,0,0,1,1.155.819A3.716,3.716,0,0,1,47.2-5.068a4.086,4.086,0,0,1,.273,1.5A3.977,3.977,0,0,1,47.2-2.086a3.815,3.815,0,0,1-.756,1.2A3.489,3.489,0,0,1,45.3-.07a3.46,3.46,0,0,1-1.428.294A2.992,2.992,0,0,1,41.636-.7ZM54.362-3.57a1.717,1.717,0,0,0-.119-.637,1.529,1.529,0,0,0-.343-.525,1.715,1.715,0,0,0-.525-.357,1.593,1.593,0,0,0-.651-.133,1.582,1.582,0,0,0-.63.126,1.558,1.558,0,0,0-.511.35,1.782,1.782,0,0,0-.35.525,1.559,1.559,0,0,0-.133.637,1.582,1.582,0,0,0,.126.63,1.558,1.558,0,0,0,.35.511,1.782,1.782,0,0,0,.525.35,1.559,1.559,0,0,0,.637.133,1.582,1.582,0,0,0,.63-.126,1.558,1.558,0,0,0,.511-.35,1.81,1.81,0,0,0,.35-.518,1.478,1.478,0,0,0,.133-.616ZM51.17,3.584H48.636V-7.182H51.17v.8A2.674,2.674,0,0,1,53.382-7.4a3.439,3.439,0,0,1,1.435.3,3.637,3.637,0,0,1,1.155.819,3.716,3.716,0,0,1,.763,1.218,4.086,4.086,0,0,1,.273,1.5,3.977,3.977,0,0,1-.273,1.484,3.815,3.815,0,0,1-.756,1.2,3.489,3.489,0,0,1-1.141.812A3.46,3.46,0,0,1,53.41.224,2.992,2.992,0,0,1,51.17-.7ZM-81.249,13.676h.63a3.408,3.408,0,0,0,1.274-.224,2.72,2.72,0,0,0,.945-.616,2.638,2.638,0,0,0,.588-.931,3.331,3.331,0,0,0,.2-1.183,3.248,3.248,0,0,0-.21-1.176,2.707,2.707,0,0,0-.6-.938,2.72,2.72,0,0,0-.945-.616,3.367,3.367,0,0,0-1.26-.224h-.63Zm-2.744-8.232h4.06a4.789,4.789,0,0,1,2.023.434,5.513,5.513,0,0,1,1.652,1.155,5.358,5.358,0,0,1,1.113,1.68,5.1,5.1,0,0,1,.406,2.009,5.144,5.144,0,0,1-.4,1.995,5.343,5.343,0,0,1-1.1,1.683A5.451,5.451,0,0,1-77.9,15.566,4.822,4.822,0,0,1-79.933,16h-4.06Zm15.736,5.922a1.525,1.525,0,0,0-.518-.854,1.451,1.451,0,0,0-.952-.322,1.451,1.451,0,0,0-.959.308,1.394,1.394,0,0,0-.469.868Zm-2.968,1.47q0,1.638,1.54,1.638a1.376,1.376,0,0,0,1.246-.672h2.45q-.742,2.464-3.71,2.464a4.874,4.874,0,0,1-1.666-.273,3.719,3.719,0,0,1-1.3-.777,3.463,3.463,0,0,1-.833-1.2,4.013,4.013,0,0,1-.294-1.568,4.436,4.436,0,0,1,.28-1.617,3.4,3.4,0,0,1,.8-1.225,3.536,3.536,0,0,1,1.253-.777A4.74,4.74,0,0,1-69.8,8.552a4.638,4.638,0,0,1,1.638.273,3.315,3.315,0,0,1,1.232.791,3.437,3.437,0,0,1,.77,1.267,5.019,5.019,0,0,1,.266,1.687v.266Zm8.148-4.018,1.708,3.682,1.736-3.682h2.828L-60.543,16h-1.694l-3.7-7.182ZM-51.3,11.366a1.525,1.525,0,0,0-.518-.854,1.451,1.451,0,0,0-.952-.322,1.451,1.451,0,0,0-.959.308,1.394,1.394,0,0,0-.469.868Zm-2.968,1.47q0,1.638,1.54,1.638a1.376,1.376,0,0,0,1.246-.672h2.45q-.742,2.464-3.71,2.464a4.874,4.874,0,0,1-1.666-.273,3.719,3.719,0,0,1-1.3-.777,3.463,3.463,0,0,1-.833-1.2,4.013,4.013,0,0,1-.294-1.568,4.436,4.436,0,0,1,.28-1.617,3.4,3.4,0,0,1,.8-1.225,3.536,3.536,0,0,1,1.25-.781,4.74,4.74,0,0,1,1.659-.273,4.638,4.638,0,0,1,1.638.273,3.315,3.315,0,0,1,1.232.791,3.437,3.437,0,0,1,.77,1.267,5.019,5.019,0,0,1,.266,1.687v.266Zm9.03-8.456V16h-2.534V4.38Zm3.85,7.994a1.627,1.627,0,0,0,.133.665,1.782,1.782,0,0,0,.35.525,1.54,1.54,0,0,0,.518.35,1.633,1.633,0,0,0,.637.126,1.633,1.633,0,0,0,.637-.126,1.54,1.54,0,0,0,.518-.35,1.782,1.782,0,0,0,.35-.525,1.593,1.593,0,0,0,.133-.651,1.559,1.559,0,0,0-.133-.637,1.782,1.782,0,0,0-.35-.525,1.54,1.54,0,0,0-.518-.35,1.633,1.633,0,0,0-.637-.126,1.633,1.633,0,0,0-.637.126,1.54,1.54,0,0,0-.518.35,1.81,1.81,0,0,0-.35.518,1.511,1.511,0,0,0-.136.63Zm-2.674-.028a3.5,3.5,0,0,1,.322-1.491,3.662,3.662,0,0,1,.9-1.2,4.26,4.26,0,0,1,1.365-.8,4.926,4.926,0,0,1,1.729-.294,4.992,4.992,0,0,1,1.715.287,4.245,4.245,0,0,1,1.372.8,3.58,3.58,0,0,1,.9,1.218,3.722,3.722,0,0,1,.322,1.561,3.655,3.655,0,0,1-.329,1.561,3.705,3.705,0,0,1-.9,1.218A4.044,4.044,0,0,1-38.045,16a5.271,5.271,0,0,1-1.743.28A5.044,5.044,0,0,1-41.5,16a3.942,3.942,0,0,1-1.351-.8,3.7,3.7,0,0,1-.889-1.239,3.888,3.888,0,0,1-.329-1.612Zm15.526.084a1.717,1.717,0,0,0-.119-.637A1.529,1.529,0,0,0-29,11.268a1.715,1.715,0,0,0-.525-.357,1.593,1.593,0,0,0-.651-.133,1.582,1.582,0,0,0-.63.126,1.558,1.558,0,0,0-.511.35,1.782,1.782,0,0,0-.35.525,1.559,1.559,0,0,0-.133.637,1.582,1.582,0,0,0,.126.63,1.558,1.558,0,0,0,.35.511,1.782,1.782,0,0,0,.525.35,1.559,1.559,0,0,0,.637.133,1.582,1.582,0,0,0,.63-.126,1.558,1.558,0,0,0,.511-.35,1.81,1.81,0,0,0,.35-.518,1.478,1.478,0,0,0,.132-.616Zm-3.192,7.154h-2.534V8.818h2.534v.8A2.674,2.674,0,0,1-29.516,8.6a3.439,3.439,0,0,1,1.435.3,3.637,3.637,0,0,1,1.155.819,3.716,3.716,0,0,1,.763,1.218,4.086,4.086,0,0,1,.273,1.5,3.977,3.977,0,0,1-.273,1.484,3.815,3.815,0,0,1-.756,1.2,3.489,3.489,0,0,1-1.141.812,3.46,3.46,0,0,1-1.428.294,2.992,2.992,0,0,1-2.24-.924Zm7-10.766H-22.2V9.7a3.277,3.277,0,0,1,2.324-.994A2.7,2.7,0,0,1-17.44,10.05,2.717,2.717,0,0,1-15,8.692a3.034,3.034,0,0,1,.952.147,1.956,1.956,0,0,1,.77.462,2.211,2.211,0,0,1,.511.819,3.479,3.479,0,0,1,.189,1.218V16h-2.534V12.458a4.289,4.289,0,0,0-.077-.9,1.415,1.415,0,0,0-.224-.546.742.742,0,0,0-.343-.266,1.24,1.24,0,0,0-.42-.07q-1.218,0-1.218,1.778V16h-2.534V12.458a4.821,4.821,0,0,0-.07-.9,1.664,1.664,0,0,0-.2-.567.679.679,0,0,0-.343-.287,1.421,1.421,0,0,0-.49-.077,1.408,1.408,0,0,0-.448.07.8.8,0,0,0-.371.273,1.488,1.488,0,0,0-.252.56,3.884,3.884,0,0,0-.091.931V16h-2.534ZM-5.87,11.366a1.525,1.525,0,0,0-.518-.854,1.451,1.451,0,0,0-.952-.322,1.451,1.451,0,0,0-.96.31,1.394,1.394,0,0,0-.469.868Zm-2.968,1.47q0,1.638,1.54,1.638A1.376,1.376,0,0,0-6.055,13.8H-3.6q-.742,2.464-3.71,2.464a4.874,4.874,0,0,1-1.666-.273,3.719,3.719,0,0,1-1.3-.777,3.463,3.463,0,0,1-.833-1.2,4.013,4.013,0,0,1-.294-1.568,4.436,4.436,0,0,1,.28-1.617,3.4,3.4,0,0,1,.8-1.225A3.536,3.536,0,0,1-9.07,8.827a4.74,4.74,0,0,1,1.659-.273,4.638,4.638,0,0,1,1.638.273,3.315,3.315,0,0,1,1.232.791,3.437,3.437,0,0,1,.77,1.267A5.019,5.019,0,0,1-3.5,12.572v.266Zm6.5-4.018H.189v.91a2.774,2.774,0,0,1,1.05-.847,3.285,3.285,0,0,1,1.246-.217,3.113,3.113,0,0,1,1.3.245A2.583,2.583,0,0,1,4.7,9.6a1.991,1.991,0,0,1,.42.812,4.229,4.229,0,0,1,.112,1.022V16H2.7V12.374a3.9,3.9,0,0,0-.077-.861,1.067,1.067,0,0,0-.273-.525.96.96,0,0,0-.378-.238,1.408,1.408,0,0,0-.448-.07,1.253,1.253,0,0,0-.987.385,1.6,1.6,0,0,0-.343,1.1V16H-2.345ZM9.5,10.932V16H6.965V10.932h-.84V8.818h.84V6.662H9.5V8.818h1.442v2.114Zm14.434-1.96A2.928,2.928,0,0,0,21.581,7.81a2.877,2.877,0,0,0-1.141.224,2.733,2.733,0,0,0-1.5,1.526,3.01,3.01,0,0,0-.217,1.148,3.048,3.048,0,0,0,.217,1.162,2.8,2.8,0,0,0,2.625,1.764,3.177,3.177,0,0,0,2.366-1.12v3.248l-.28.1a8.1,8.1,0,0,1-1.176.329,5.7,5.7,0,0,1-1.078.1,5.51,5.51,0,0,1-3.857-1.575,5.781,5.781,0,0,1-1.225-1.778,5.423,5.423,0,0,1-.462-2.247,5.4,5.4,0,0,1,.455-2.233,5.575,5.575,0,0,1,5.1-3.311,5.79,5.79,0,0,1,1.239.133,7.516,7.516,0,0,1,1.281.413Zm3.612,3.4a1.627,1.627,0,0,0,.133.665,1.782,1.782,0,0,0,.35.525,1.54,1.54,0,0,0,.518.35,1.673,1.673,0,0,0,1.274,0,1.54,1.54,0,0,0,.518-.35,1.782,1.782,0,0,0,.35-.525,1.593,1.593,0,0,0,.133-.651,1.559,1.559,0,0,0-.133-.637,1.782,1.782,0,0,0-.35-.525,1.54,1.54,0,0,0-.518-.35,1.673,1.673,0,0,0-1.274,0,1.54,1.54,0,0,0-.518.35,1.81,1.81,0,0,0-.35.518,1.511,1.511,0,0,0-.134.632Zm-2.674-.028a3.5,3.5,0,0,1,.322-1.491,3.662,3.662,0,0,1,.9-1.2,4.26,4.26,0,0,1,1.365-.8,4.926,4.926,0,0,1,1.729-.294,4.992,4.992,0,0,1,1.715.287,4.245,4.245,0,0,1,1.372.8,3.58,3.58,0,0,1,.9,1.218,3.722,3.722,0,0,1,.322,1.561,3.655,3.655,0,0,1-.329,1.561,3.705,3.705,0,0,1-.9,1.218A4.044,4.044,0,0,1,30.889,16a5.271,5.271,0,0,1-1.743.28A5.044,5.044,0,0,1,27.438,16a3.942,3.942,0,0,1-1.351-.8,3.7,3.7,0,0,1-.889-1.239,3.888,3.888,0,0,1-.327-1.61Zm9.8-3.528h2.534V9.7a3.277,3.277,0,0,1,2.324-.994,2.7,2.7,0,0,1,2.436,1.344A2.717,2.717,0,0,1,44.4,8.692a3.035,3.035,0,0,1,.952.147,1.956,1.956,0,0,1,.77.462,2.211,2.211,0,0,1,.511.819,3.479,3.479,0,0,1,.189,1.218V16H44.289V12.458a4.29,4.29,0,0,0-.077-.9,1.415,1.415,0,0,0-.224-.546.742.742,0,0,0-.343-.266,1.24,1.24,0,0,0-.42-.07q-1.218,0-1.218,1.778V16H39.473V12.458a4.821,4.821,0,0,0-.07-.9,1.664,1.664,0,0,0-.2-.567.679.679,0,0,0-.343-.287,1.533,1.533,0,0,0-.938-.007.8.8,0,0,0-.371.273,1.488,1.488,0,0,0-.252.56,3.884,3.884,0,0,0-.091.931V16H34.671ZM54.257,12.43a1.717,1.717,0,0,0-.119-.637,1.529,1.529,0,0,0-.343-.525,1.715,1.715,0,0,0-.525-.357,1.649,1.649,0,0,0-1.281-.007,1.558,1.558,0,0,0-.511.35,1.782,1.782,0,0,0-.35.525,1.559,1.559,0,0,0-.133.637,1.582,1.582,0,0,0,.126.63,1.558,1.558,0,0,0,.35.511,1.782,1.782,0,0,0,.525.35,1.559,1.559,0,0,0,.637.133,1.582,1.582,0,0,0,.63-.126,1.558,1.558,0,0,0,.511-.35,1.81,1.81,0,0,0,.35-.518,1.478,1.478,0,0,0,.133-.616Zm-3.192,7.154H48.531V8.818h2.534v.8A2.674,2.674,0,0,1,53.277,8.6a3.439,3.439,0,0,1,1.435.3,3.637,3.637,0,0,1,1.155.819,3.716,3.716,0,0,1,.763,1.218,4.086,4.086,0,0,1,.273,1.5,3.977,3.977,0,0,1-.273,1.484,3.815,3.815,0,0,1-.756,1.2,3.465,3.465,0,0,1-2.574,1.1,2.992,2.992,0,0,1-2.24-.924Zm9.352-7.2a1.675,1.675,0,0,0,.469,1.176,1.54,1.54,0,0,0,.518.35,1.669,1.669,0,0,0,.651.126,1.633,1.633,0,0,0,.637-.126,1.54,1.54,0,0,0,.518-.35,1.81,1.81,0,0,0,.35-.518,1.511,1.511,0,0,0,.133-.63,1.559,1.559,0,0,0-.133-.637,1.782,1.782,0,0,0-.35-.525,1.54,1.54,0,0,0-.518-.35,1.633,1.633,0,0,0-.637-.126,1.669,1.669,0,0,0-.651.126,1.54,1.54,0,0,0-.518.35,1.725,1.725,0,0,0-.343.511,1.533,1.533,0,0,0-.126.627Zm3.192-3.57h2.548V16H63.609v-.8a2.659,2.659,0,0,1-2.2,1.022,3.568,3.568,0,0,1-1.442-.287,3.478,3.478,0,0,1-1.148-.8,3.716,3.716,0,0,1-.763-1.218,4.164,4.164,0,0,1-.273-1.526,4.047,4.047,0,0,1,.266-1.463,3.762,3.762,0,0,1,.742-1.211A3.5,3.5,0,0,1,59.927,8.9a3.459,3.459,0,0,1,1.456-.3,2.925,2.925,0,0,1,2.226.938Zm3.99,0h2.534v.91a2.774,2.774,0,0,1,1.05-.847,3.285,3.285,0,0,1,1.246-.217,3.113,3.113,0,0,1,1.295.245,2.583,2.583,0,0,1,.917.693,1.991,1.991,0,0,1,.42.812,4.229,4.229,0,0,1,.112,1.022V16H72.639V12.374a3.9,3.9,0,0,0-.077-.861,1.067,1.067,0,0,0-.273-.525.96.96,0,0,0-.378-.238,1.408,1.408,0,0,0-.448-.07,1.253,1.253,0,0,0-.987.385,1.6,1.6,0,0,0-.343,1.1V16H67.6Zm11.34,6.2-3.472-6.2h2.94L80.325,12.5l1.862-3.682H85.1L79.331,19.584H76.489Z" transform="translate(83.993 88)"/>
      <g id="Group_20023" data-name="Group 20023" transform="translate(0 -1)">
        <path id="Path_20901" data-name="Path 20901" d="M16.51,0H.728L5.59-5.044q1.924-2,3.016-3.393a18.68,18.68,0,0,0,1.625-2.353,6.184,6.184,0,0,0,.663-1.56,4.907,4.907,0,0,0,.13-1.014,2.621,2.621,0,0,0-.143-.858,2.186,2.186,0,0,0-.429-.741,2.16,2.16,0,0,0-.689-.52,2.157,2.157,0,0,0-.949-.195A2.035,2.035,0,0,0,7.189-15,2.491,2.491,0,0,0,6.6-13.31a6.381,6.381,0,0,0,.078.832H1.118a8.366,8.366,0,0,1,.559-3.12,7.076,7.076,0,0,1,1.573-2.42,6.947,6.947,0,0,1,2.4-1.56,8.291,8.291,0,0,1,3.055-.546,8.584,8.584,0,0,1,3.029.52,7.237,7.237,0,0,1,2.405,1.456,6.685,6.685,0,0,1,1.586,2.223,6.8,6.8,0,0,1,.572,2.8,6.512,6.512,0,0,1-.689,2.977,10.48,10.48,0,0,1-2.2,2.8l-3.25,3.042H16.51Zm6.942-9.828a11.056,11.056,0,0,0,.234,2.366,6.882,6.882,0,0,0,.663,1.846,3.57,3.57,0,0,0,1.027,1.209,2.263,2.263,0,0,0,1.352.429,2.281,2.281,0,0,0,1.339-.429,3.388,3.388,0,0,0,1.027-1.209,7.2,7.2,0,0,0,.65-1.846,11.056,11.056,0,0,0,.234-2.366,11.1,11.1,0,0,0-.234-2.353,6.966,6.966,0,0,0-.65-1.846,3.416,3.416,0,0,0-1.027-1.2,2.281,2.281,0,0,0-1.339-.429,2.263,2.263,0,0,0-1.352.429,3.6,3.6,0,0,0-1.027,1.2,6.67,6.67,0,0,0-.663,1.846,11.1,11.1,0,0,0-.234,2.353Zm-5.044,0a13.913,13.913,0,0,1,.611-4.251,9.819,9.819,0,0,1,1.716-3.263,7.741,7.741,0,0,1,2.626-2.093,7.584,7.584,0,0,1,3.367-.741,7.608,7.608,0,0,1,3.354.741,7.579,7.579,0,0,1,2.626,2.093,9.96,9.96,0,0,1,1.7,3.263,13.913,13.913,0,0,1,.611,4.251,13.913,13.913,0,0,1-.611,4.251,10.117,10.117,0,0,1-1.7,3.276A7.517,7.517,0,0,1,30.082-.2a7.608,7.608,0,0,1-3.354.741A7.584,7.584,0,0,1,23.361-.2a7.677,7.677,0,0,1-2.626-2.1,9.972,9.972,0,0,1-1.716-3.276,13.913,13.913,0,0,1-.611-4.252ZM52.286,0H36.5l4.862-5.044q1.924-2,3.016-3.393A18.68,18.68,0,0,0,46-10.79a6.183,6.183,0,0,0,.663-1.56,4.907,4.907,0,0,0,.13-1.014,2.621,2.621,0,0,0-.143-.858,2.186,2.186,0,0,0-.429-.741,2.16,2.16,0,0,0-.689-.52,2.157,2.157,0,0,0-.949-.2A2.035,2.035,0,0,0,42.965-15a2.491,2.491,0,0,0-.585,1.69,6.38,6.38,0,0,0,.078.832H36.894a8.366,8.366,0,0,1,.559-3.12,7.077,7.077,0,0,1,1.573-2.418,6.947,6.947,0,0,1,2.4-1.56,8.291,8.291,0,0,1,3.055-.546,8.584,8.584,0,0,1,3.029.52,7.237,7.237,0,0,1,2.4,1.456,6.685,6.685,0,0,1,1.59,2.223,6.8,6.8,0,0,1,.572,2.8,6.512,6.512,0,0,1-.689,2.977,10.48,10.48,0,0,1-2.2,2.8L45.934-4.3h6.344Z" transform="translate(48.993 65.177)" fill="#222"/>
        <path id="Path_20901-2" data-name="Path 20901" d="M16.51,0H.728L5.59-5.044q1.924-2,3.016-3.393a18.68,18.68,0,0,0,1.625-2.353,6.184,6.184,0,0,0,.663-1.56,4.907,4.907,0,0,0,.13-1.014,2.621,2.621,0,0,0-.143-.858,2.186,2.186,0,0,0-.429-.741,2.16,2.16,0,0,0-.689-.52,2.157,2.157,0,0,0-.949-.195A2.035,2.035,0,0,0,7.189-15,2.491,2.491,0,0,0,6.6-13.31a6.381,6.381,0,0,0,.078.832H1.118a8.366,8.366,0,0,1,.559-3.12,7.076,7.076,0,0,1,1.573-2.42,6.947,6.947,0,0,1,2.4-1.56,8.291,8.291,0,0,1,3.055-.546,8.584,8.584,0,0,1,3.029.52,7.237,7.237,0,0,1,2.405,1.456,6.685,6.685,0,0,1,1.586,2.223,6.8,6.8,0,0,1,.572,2.8,6.512,6.512,0,0,1-.689,2.977,10.48,10.48,0,0,1-2.2,2.8l-3.25,3.042H16.51Z" transform="translate(102.993 65.125)" fill="#222"/>
      </g>
      <g id="clutch-co-vector-logo" transform="translate(41.993)">
        <path id="Path_20895" data-name="Path 20895" d="M177,235.9h3.864v23.856H177Z" transform="translate(-155.16 -235.9)" fill="#222"/>
        <path id="Path_20896" data-name="Path 20896" d="M235.584,299.668a3.747,3.747,0,0,1-4.032,4.032c-2.352,0-2.688-2.184-2.688-3.36V291.1H225v9.072a7.094,7.094,0,0,0,2.016,5.376,6.081,6.081,0,0,0,4.536,1.68,5.866,5.866,0,0,0,4.032-1.344v1.344h3.864V291.1h-3.864Z" transform="translate(-196.44 -283.372)" fill="#222"/>
        <path id="Path_20897" data-name="Path 20897" d="M340.92,249.1h-3.864v5.88H334.2v3.7h2.856v12.432h3.864V258.676h2.856v-3.7H340.92Z" transform="translate(-290.352 -247.252)" fill="#222"/>
        <path id="Path_20898" data-name="Path 20898" d="M418.824,300.292a5.3,5.3,0,0,1-3.192,1.176,4.458,4.458,0,0,1-4.536-4.7,4.321,4.321,0,0,1,4.536-4.536,4.435,4.435,0,0,1,3.192,1.176l.5.5,2.688-2.52-.672-.5a8.614,8.614,0,0,0-5.712-2.184,8.232,8.232,0,0,0,0,16.464,8.614,8.614,0,0,0,5.712-2.184l.672-.5-2.688-2.688Z" transform="translate(-353.304 -281.308)" fill="#222"/>
        <path id="Path_20899" data-name="Path 20899" d="M536.76,244.972a5.332,5.332,0,0,0-4.2-1.68,5.053,5.053,0,0,0-3.7,1.344V235.9H525v23.856h3.864v-8.9c0-3.7,2.52-4.032,3.528-4.032,2.352,0,2.184,2.184,2.184,3.36v9.408h3.864v-9.24c0-2.188-.5-4.2-1.68-5.38Z" transform="translate(-454.44 -235.9)" fill="#222"/>
        <circle id="Ellipse_3972" data-name="Ellipse 3972" cx="2.688" cy="2.688" r="2.688" transform="translate(59.472 12.936)" fill="#ef4335"/>
        <path id="Path_20900" data-name="Path 20900" d="M37.464,259.011a7.878,7.878,0,0,1-5.544,2.184c-4.2,0-7.224-3.36-7.224-7.9s3.024-7.9,7.392-7.9a7.905,7.905,0,0,1,5.544,2.352l.5.5,2.52-2.52-.5-.5a11.314,11.314,0,0,0-8.064-3.36C25.7,241.707,21,246.747,21,253.3s4.7,11.592,10.92,11.592a11.034,11.034,0,0,0,8.064-3.36l.5-.5-2.52-2.52Z" transform="translate(-21 -241.035)" fill="#222"/>
      </g>
      <path id="Path_20902" data-name="Path 20902" d="M-26.317-1.884h-1.79V0h-.562V-4.266h2.643V-3.8h-2.08v1.459h1.79ZM-24.75,0h-.562V-4.266h.563Zm2.593-1.726h-1V0h-.565V-4.266h1.412a1.671,1.671,0,0,1,1.109.328,1.181,1.181,0,0,1,.388.955,1.148,1.148,0,0,1-.215.694,1.285,1.285,0,0,1-.6.442l1,1.811V0h-.6Zm-1-.46h.864a.976.976,0,0,0,.667-.217.732.732,0,0,0,.248-.58.771.771,0,0,0-.236-.606A1,1,0,0,0-22.3-3.8h-.861Zm3.858-2.08,1.4,3.48,1.4-3.48h.729V0h-.562V-1.661l.053-1.793L-17.692,0h-.431l-1.4-3.445.056,1.784V0h-.562V-4.266ZM-13.532-1.9a2.645,2.645,0,0,1-1.053-.511.977.977,0,0,1-.33-.749,1.032,1.032,0,0,1,.4-.833,1.6,1.6,0,0,1,1.047-.33,1.748,1.748,0,0,1,.784.17,1.289,1.289,0,0,1,.533.469,1.2,1.2,0,0,1,.189.653h-.565a.776.776,0,0,0-.246-.608,1,1,0,0,0-.694-.221,1.026,1.026,0,0,0-.649.183.61.61,0,0,0-.233.508.549.549,0,0,0,.221.441,2.171,2.171,0,0,0,.753.33,3.487,3.487,0,0,1,.832.33,1.263,1.263,0,0,1,.445.42,1.073,1.073,0,0,1,.145.565,1,1,0,0,1-.4.831A1.724,1.724,0,0,1-13.434.06a2.005,2.005,0,0,1-.82-.168,1.381,1.381,0,0,1-.587-.461,1.126,1.126,0,0,1-.207-.665h.565a.735.735,0,0,0,.286.611,1.2,1.2,0,0,0,.763.224,1.106,1.106,0,0,0,.683-.182.59.59,0,0,0,.237-.5.579.579,0,0,0-.22-.485,2.533,2.533,0,0,0-.8-.334Zm6.618-1.9H-8.285V0h-.56V-3.8h-1.368v-.463h3.3ZM-3,0h-.565V-1.972h-2.15V0h-.562V-4.266h.563v1.834h2.15V-4.266H-3ZM.4-1.113H-1.383L-1.784,0h-.58L-.735-4.266h.492L1.389,0H.812Zm-1.617-.463H.237l-.727-2ZM4.532-3.8H3.161V0H2.6V-3.8H1.233v-.463h3.3Zm2,3.8V-4.266h1.2a1.938,1.938,0,0,1,.984.246,1.664,1.664,0,0,1,.661.7,2.279,2.279,0,0,1,.236,1.043V-2A2.287,2.287,0,0,1,9.385-.946a1.638,1.638,0,0,1-.665.7A2.062,2.062,0,0,1,7.714,0ZM7.1-3.8V-.46h.592A1.288,1.288,0,0,0,8.7-.864a1.669,1.669,0,0,0,.362-1.151v-.249a1.7,1.7,0,0,0-.342-1.13A1.215,1.215,0,0,0,7.752-3.8Zm5.783,1.831H11.03V-.46h2.147V0h-2.71V-4.266h2.681V-3.8H11.03v1.371h1.849ZM14.443-.46h2.021V0H13.878V-4.266h.565ZM17.71,0h-.562V-4.266h.563Zm2.44-.747,1.219-3.519h.615L20.4,0h-.5L18.325-4.266h.612Zm4.816-1.225H23.118V-.46h2.147V0h-2.71V-4.266h2.681V-3.8H23.118v1.371h1.849Zm2.563.246h-1V0h-.565V-4.266h1.412a1.671,1.671,0,0,1,1.109.328,1.181,1.181,0,0,1,.388.955,1.148,1.148,0,0,1-.215.694,1.285,1.285,0,0,1-.6.442l1,1.811V0h-.6Zm-1-.46h.864A.976.976,0,0,0,28.06-2.4a.732.732,0,0,0,.248-.58.771.771,0,0,0-.236-.606A1,1,0,0,0,27.39-3.8h-.861Z" transform="translate(83.993 32)"/>
      <g id="Group_68687" data-name="Group 68687" transform="translate(6.947)">
        <g id="Group_68684" data-name="Group 68684" transform="translate(53.811 118.417)">
          <path id="Path_111267" data-name="Path 111267" d="M-12.637-16.328l-1.641,1.641a4.636,4.636,0,0,1-6.536,0L-31.45-25.323a4.636,4.636,0,0,1,0-6.536l10.635-10.635a4.636,4.636,0,0,1,6.536,0l1.641,1.641L-9.81-43.68c.09-.09.186-.173.281-.254l-3.5-3.5a6.284,6.284,0,0,0-8.858,0L-36.3-33.02a6.284,6.284,0,0,0,0,8.858L-21.885-9.749a6.284,6.284,0,0,0,8.858,0l3.5-3.5c-.088-.076-.176-.151-.259-.234Z" transform="translate(38.124 49.259)" fill="#222"/>
        </g>
        <g id="Group_68685" data-name="Group 68685" transform="translate(79.036 123.995)">
          <path id="Path_111268" data-name="Path 111268" d="M-10.63-5.887l-1.337-1.337-9.2-9.2a4.593,4.593,0,0,0-6.2-.255,3.588,3.588,0,0,0-.281.255l-1.313,1.313L-30.473-13.6l-1.574,1.574L-29.023-9l1.574-1.574.955-.955a2.96,2.96,0,0,1,4.175,0l5.131,5.13,1.663,1.663a2.961,2.961,0,0,1,0,4.175l-1.78,1.781-5.014,5.014a2.961,2.961,0,0,1-4.175,0l-.976-.976-1.574-1.574-3.024,3.024L-30.5,8.282-28.98,9.8l1.337,1.337c.083.084.171.158.259.234a4.592,4.592,0,0,0,6.217-.234l9.226-9.226L-10.63.59a4.593,4.593,0,0,0,0-6.477" transform="translate(32.069 17.76)" fill="#222"/>
        </g>
        <g id="Group_68686" data-name="Group 68686" transform="translate(64.415 129.021)">
          <path id="Path_111269" data-name="Path 111269" d="M-3.922-9.54l-7.02-7.02a3.058,3.058,0,0,1,0-4.313l7.02-7.018a3.059,3.059,0,0,1,4.313,0l7.02,7.019a3.059,3.059,0,0,1,0,4.313L.392-9.54a3.058,3.058,0,0,1-4.313,0" transform="translate(11.831 28.781)" fill="#222"/>
        </g>
      </g>
    </g>
  </g>
</svg>
