<svg xmlns="http://www.w3.org/2000/svg" xmlns:xlink="http://www.w3.org/1999/xlink" width="315" height="60" viewBox="0 0 315 60">
  <defs>
    <clipPath id="clip-_06">
      <rect width="315" height="60"/>
    </clipPath>
  </defs>
  <g id="_06" data-name="06" clip-path="url(#clip-_06)">
    <rect width="315" height="60" fill="#fff"/>
    <path id="Path_111807" data-name="Path 111807" d="M162.8,45.352,169.346,21l5.39,1.444-6.064,22.908Z" transform="translate(-17.564 -3.669)" fill="#22ad69"/>
    <path id="Path_111808" data-name="Path 111808" d="M171.6,45.183,179.3,16.5l5.39,1.444-7.22,27.239Z" transform="translate(-17.893 -3.5)" fill="#22ad69"/>
    <g id="Group_21604" data-name="Group 21604" transform="translate(172.282 17.631)">
      <path id="Path_111809" data-name="Path 111809" d="M43.2,76.786V53.3h9.24c9.144,0,9.048,14.441,0,14.441H47.916V76.7l-4.716.1Zm8.855-13.571c3.176,0,3.176-5.294,0-5.294H47.913v5.294Z" transform="translate(-43.2 -52.434)" fill="#222"/>
      <path id="Path_111810" data-name="Path 111810" d="M68.114,52.4H68.6L78.51,76.752H73.216l-.963-2.5h-7.8l-.963,2.5H58.2Zm2.407,17.421L68.4,63.757l-2.214,6.064Z" transform="translate(-43.762 -52.4)" fill="#222"/>
      <path id="Path_111811" data-name="Path 111811" d="M93.543,76.786,88.827,67.83H86.516v8.956H81.8V53.3h9.24c8.374,0,9.144,11.743,2.311,13.77l5.485,9.722ZM86.516,63.214h4.142c3.176,0,3.176-5.294,0-5.294H86.516Z" transform="translate(-44.647 -52.434)" fill="#222"/>
      <path id="Path_111812" data-name="Path 111812" d="M107.372,76.789V58.02H101.5V53.4h16.363v4.62h-5.872V76.789Z" transform="translate(-45.384 -52.437)" fill="#222"/>
      <path id="Path_111813" data-name="Path 111813" d="M126.916,76.767H122.2V52.8h1.252l11.84,13.77V53.281h4.716V77.152h-1.252l-11.84-13.283Z" transform="translate(-46.16 -52.415)" fill="#222"/>
      <path id="Path_111814" data-name="Path 111814" d="M145.2,76.786V53.3h11.743v4.716h-7.027v4.716h6.157v4.716h-6.157v4.716h7.411v4.716H145.2Z" transform="translate(-47.021 -52.434)" fill="#222"/>
      <path id="Path_111815" data-name="Path 111815" d="M173.043,76.786l-4.716-8.956h-2.311v8.956H161.3V53.3h9.24c8.374,0,9.144,11.743,2.311,13.77l5.485,9.722Zm-7.027-13.571h4.142c3.176,0,3.176-5.294,0-5.294h-4.142Z" transform="translate(-47.624 -52.434)" fill="#222"/>
    </g>
    <path id="Path_115241" data-name="Path 115241" d="M267.173,299.718l8.188,11.748h-5.767l-6.194-9.114v9.114h-4.7V288.183h4.7v9.292l5.874-9.292h5.411Zm16.269-11.463h-4.7v23.282h12v-4.7h-7.4l.107-18.583Zm21.182-.854,9.79,24.1h-5.269l-.926-2.528h-7.725l-.926,2.528h-5.3l9.79-24.1Zm1.887,17.23-2.1-6.016-2.172,6.016ZM321,301.177l-4.806-12.923h-5.269l9.79,24.1h.463l9.79-24.1h-5.3Zm13.564,10.36h4.7V288.254h-4.7Zm23.282-23.282-4.735,8.046-4.735-8.046h-5.66l8.081,12.78v10.5h4.628v-10.5l8.152-12.78Zm29.761,11.214A12.068,12.068,0,1,1,375.539,287.4h0A12.079,12.079,0,0,1,387.607,299.468Zm-4.521,0a7.512,7.512,0,1,0-7.512,7.512h0a7.506,7.506,0,0,0,7.512-7.476v-.036Z" transform="translate(-247.857 -269.878)" fill="#171a1d"/>
  </g>
</svg>
