<svg xmlns="http://www.w3.org/2000/svg" xmlns:xlink="http://www.w3.org/1999/xlink" width="36" height="36" viewBox="0 0 36 36">
    <defs>
        <linearGradient id="5ejwophxhb" x1=".332" x2=".585" y1=".141" y2=".682" gradientUnits="objectBoundingBox">
            <stop offset="0" stop-color="#00c3ff"/>
            <stop offset="1" stop-color="#00b0ed"/>
        </linearGradient>
        <linearGradient id="4wby57rq5a" x1=".738" x2="-.899" y1=".628" y2="-.25" gradientUnits="objectBoundingBox">
            <stop offset="0" stop-color="#00b0ed" stop-opacity="0"/>
            <stop offset="1" stop-color="#00a2ce"/>
        </linearGradient>
        <linearGradient id="r9jyx530qc" x1=".5" x2=".5" y1=".27" y2=".926" xlink:href="#4wby57rq5a"/>
        <linearGradient id="9qewc4qqld" x1=".946" x2=".342" y1=".922" y2=".273" xlink:href="#4wby57rq5a"/>
    </defs>
    <path fill="url(#5ejwophxhb)" d="M29.561 35.384a108.736 108.736 0 0 1-23.122 0 6.555 6.555 0 0 1-5.823-5.823 108.733 108.733 0 0 1 0-23.122A6.555 6.555 0 0 1 6.439.616a108.733 108.733 0 0 1 23.122 0 6.555 6.555 0 0 1 5.823 5.823 108.733 108.733 0 0 1 0 23.122 6.555 6.555 0 0 1-5.823 5.823zm0 0"/>
    <path fill="url(#4wby57rq5a)" d="M60.232 34.548a5.817 5.817 0 0 0-5.167-5.167 96.524 96.524 0 0 0-20.518 0 5.817 5.817 0 0 0-5.167 5.167 96.522 96.522 0 0 0 0 20.517 5.817 5.817 0 0 0 5.167 5.167 96.486 96.486 0 0 0 20.517 0 5.816 5.816 0 0 0 5.167-5.167 96.486 96.486 0 0 0 .001-20.517zm0 0" transform="translate(-26.807 -26.807)"/>
    <path fill="url(#r9jyx530qc)" d="M7.672 409.8q.037.373.077.747a6.555 6.555 0 0 0 5.823 5.823 108.733 108.733 0 0 0 23.122 0 6.555 6.555 0 0 0 5.823-5.823q.04-.373.077-.747zm0 0" transform="translate(-7.132 -380.99)"/>
    <path fill="url(#9qewc4qqld)" d="M126.47 134.522L119 127.05a8.918 8.918 0 0 1-2.131.892 6.1 6.1 0 0 1-.751.154 4.64 4.64 0 0 0-7.962 3.24c0 .093 0 .184.009.275a4.475 4.475 0 0 0 .084.653 12.711 12.711 0 0 1-7.863-3.144l-1.564-1.564a4.617 4.617 0 0 0 .863 5.632 5.147 5.147 0 0 0 .391.391l.034.038a4.546 4.546 0 0 1-2.035-.565 4.5 4.5 0 0 0 1.507 3.4l1.317 1.328a2.562 2.562 0 0 1-1.153-.11 4.435 4.435 0 0 0 1.328 2.087l1.845 1.854a9.549 9.549 0 0 1-5.594 1.245l11.19 10.934a108.854 108.854 0 0 0 11.528-.616 6.555 6.555 0 0 0 5.823-5.823 108.9 108.9 0 0 0 .604-12.829zm0 0" transform="translate(-90.477 -117.787)"/>
    <path fill="#fff" d="M119.631 128.852a8.394 8.394 0 0 1-2.394.665l-.01-.056a4.454 4.454 0 0 0 1.766-2.411 8.918 8.918 0 0 1-2.131.892 6.151 6.151 0 0 1-.751.154 4.64 4.64 0 0 0-7.962 3.24c0 .092 0 .184.009.275a4.475 4.475 0 0 0 .084.653 12.97 12.97 0 0 1-9.428-4.708 4.589 4.589 0 0 0 1.407 6.067 4.839 4.839 0 0 1-2.154-.572 4.641 4.641 0 0 0 3.781 4.572 4.39 4.39 0 0 1-2.11.044 4.475 4.475 0 0 0 4.221 3.21 9.246 9.246 0 0 1-6.642 1.977 13.113 13.113 0 0 0 20.114-11.085v-.271-.161-.113a8.2 8.2 0 0 0 2.2-2.372zm0 0" transform="translate(-90.474 -117.787)"/>
</svg>
